SplineFontDB: 3.0
FontName: Untitled1
FullName: Untitled1
FamilyName: Untitled1
Weight: Regular
Copyright: Copyright (c) 2019, antoine
Version: 001.000
ItalicAngle: 0
UnderlinePosition: -100
UnderlineWidth: 50
Ascent: 687
Descent: 312
InvalidEm: 0
sfntRevision: 0x00010000
LayerCount: 2
Layer: 0 0 "Arri+AOgA-re" 1
Layer: 1 0 "Avant" 0
XUID: [1021 842 695120675 1748914]
StyleMap: 0x0000
FSType: 0
OS2Version: 4
OS2_WeightWidthSlopeOnly: 0
OS2_UseTypoMetrics: 1
CreationTime: 1558303865
ModificationTime: 1559894146
PfmFamily: 17
TTFWeight: 400
TTFWidth: 5
LineGap: 90
VLineGap: 0
Panose: 2 0 5 3 0 0 0 0 0 0
OS2TypoAscent: 687
OS2TypoAOffset: 0
OS2TypoDescent: -312
OS2TypoDOffset: 0
OS2TypoLinegap: 90
OS2WinAscent: 1049
OS2WinAOffset: 0
OS2WinDescent: 218
OS2WinDOffset: 0
HheadAscent: 1049
HheadAOffset: 0
HheadDescent: -218
HheadDOffset: 0
OS2SubXSize: 649
OS2SubYSize: 699
OS2SubXOff: 0
OS2SubYOff: 139
OS2SupXSize: 649
OS2SupYSize: 699
OS2SupXOff: 0
OS2SupYOff: 479
OS2StrikeYSize: 49
OS2StrikeYPos: 258
OS2CapHeight: 668
OS2XHeight: 454
OS2Vendor: 'PfEd'
OS2CodePages: 00000001.00000000
OS2UnicodeRanges: 80000207.00000002.00000000.00000000
DEI: 91125
LangName: 1033 "" "" "" "FontForge 2.0 : Untitled1 : 5-6-2019"
Encoding: UnicodeBmp
UnicodeInterp: none
NameList: AGL For New Fonts
DisplaySize: -96
AntiAlias: 1
FitToEm: 0
WinInfo: 19 19 8
BeginPrivate: 8
BlueValues 23 [-10 6 450 459 668 712]
OtherBlues 11 [-217 -217]
BlueScale 9 0.0208333
BlueShift 2 16
StdHW 4 [20]
StdVW 4 [39]
StemSnapH 31 [20 32 36 50 58 83 114 145 208]
StemSnapV 7 [20 39]
EndPrivate
BeginChars: 65537 155

StartChar: .notdef
Encoding: 65536 -1 0
Width: 499
Flags: MW
HStem: 0 49<98 401 98 450> 409 49<98 401 98 98>
VStem: 49 49<49 49 49 409> 401 49<49 409 409 409>
LayerCount: 2
Fore
SplineSet
49 0 m 1
 49 458 l 1
 450 458 l 1
 450 0 l 1
 49 0 l 1
98 49 m 1
 401 49 l 1
 401 409 l 1
 98 409 l 1
 98 49 l 1
EndSplineSet
Validated: 1
EndChar

StartChar: exclam
Encoding: 33 33 2
Width: 116
GlyphClass: 2
Flags: MW
HStem: 18 50<50 58 57 58>
VStem: 32 51<36 50> 47 21<196.5 199 642 653 642 653>
LayerCount: 2
Fore
SplineSet
57 68 m 2xc0
 58 68 l 2
 72 68 83 57 83 43 c 0
 83 29 72 18 58 18 c 2
 57 18 l 2
 43 18 32 29 32 43 c 0
 32 57 43 68 57 68 c 2xc0
68 653 m 2xa0
 68 642 l 2
 70 646 70 650 68 653 c 2xa0
47 653 m 2
 45 650 45 646 47 642 c 2
 47 653 l 2
57 679 m 1
 79 679 95 655 87 635 c 1
 68 199 l 2
 68 194 62 190 57 190 c 0
 52 190 48 194 47 199 c 2
 28 635 l 1
 20 655 35 678 57 678 c 1
 57 679 l 1
EndSplineSet
Validated: 33
EndChar

StartChar: numbersign
Encoding: 35 35 3
Width: 394
GlyphClass: 2
Flags: MW
HStem: 160 19<50.5 54 53 54 54 111 133 219 240 304> 335 19<68.5 137 71 135 71 154 156 242 264 321 321 322>
VStem: 62 19<-210 -208 -210 -208> 169 19<-210 -208 -210 -208> 187 19<722 725> 294 19<725 725>
LayerCount: 2
Fore
SplineSet
154 335 m 1xe4
 133 179 l 1
 221 179 l 1
 242 335 l 1
 154 335 l 1xe4
304 733 m 0
 309 733 313 729 313 724 c 2
 313 722 l 1
 264 354 l 1
 321 354 l 1
 322 354 l 2
 327 354 331 350 331 345 c 0
 331 340 327 335 322 335 c 2
 321 335 l 1
 261 335 l 1
 240 179 l 1
 304 179 l 2
 309 179 313 175 313 170 c 0
 313 165 309 160 304 160 c 2
 238 160 l 1
 188 -210 l 2
 187 -215 184 -218 179 -218 c 0
 174 -218 169 -214 169 -209 c 2
 169 -208 l 1xf4
 219 160 l 1
 130 160 l 1
 81 -210 l 2
 80 -215 76 -218 71 -218 c 0
 66 -218 62 -214 62 -209 c 2
 62 -208 l 1
 111 160 l 1
 54 160 l 1
 53 160 l 2
 48 160 44 165 44 170 c 0
 44 175 48 179 53 179 c 2
 54 179 l 1
 114 179 l 1
 135 335 l 1
 71 335 l 2
 66 335 62 340 62 345 c 0
 62 350 66 354 71 354 c 2
 137 354 l 1
 187 725 l 2
 188 730 191 733 196 733 c 2
 197 733 l 2
 202 733 206 729 206 724 c 2
 206 722 l 1xec
 156 354 l 1
 245 354 l 1
 294 725 l 2
 295 730 299 733 304 733 c 0
EndSplineSet
Validated: 1
EndChar

StartChar: dollar
Encoding: 36 36 4
Width: 324
GlyphClass: 2
Flags: MW
HStem: -1 20<152 160 152 161 160 161 161 162.5 152 170> 648 20<152 161 152 161 161 170>
VStem: 29 19 47 34 132 20<-53 -1 22 329 415 642 642 642 668 720> 170 20<-53 -1 -1 -1 25 286 370 644 668 720> 255 20<535 597 567 597>
LayerCount: 2
Fore
SplineSet
190 286 m 1xce
 190 25 l 1
 235 41 264 89 260 147 c 0
 256 199 226 244 190 286 c 1xce
190 318 m 1
 190 317 l 1
 215 290 239 260 256 228 c 1
 240 260 216 289 190 318 c 1
152 329 m 1
 152 19 l 1
 161 19 l 2
 164 19 167 20 170 20 c 2
 170 309 l 1
 164 316 158 322 152 329 c 1
152 360 m 1
 152 359 l 1
 158 352 164 346 170 339 c 1
 170 340 l 1
 164 347 158 353 152 360 c 1
132 383 m 1
 132 382 l 1
 132 383 l 1
132 642 m 1
 102 628 82 591 81 550 c 0xde
 80 501 102 456 132 415 c 1
 132 642 l 1
161 648 m 1
 152 648 l 1
 152 390 l 1
 158 383 164 377 170 370 c 1
 170 648 l 1
 161 648 l 1
170 -1 m 1
 161 -1 l 1
 160 -1 l 1
 152 -1 l 1
 152 -53 l 2
 152 -59 148 -63 142 -63 c 0
 136 -63 132 -59 132 -53 c 2
 132 0 l 1
 56 13 -10 106 29 198 c 0
 30 201 34 204 38 204 c 0
 44 204 48 200 48 194 c 2
 48 103 l 1xee
 57 60 91 32 132 22 c 1
 132 351 l 1
 87 404 46 463 47 535 c 0
 48 596 82 649 132 664 c 1
 132 720 l 2
 132 725 137 730 142 730 c 0
 148 730 152 726 152 720 c 2
 152 668 l 1
 161 668 l 1
 170 668 l 1
 170 720 l 2
 170 725 174 730 180 730 c 0
 186 730 190 726 190 720 c 2
 190 665 l 1
 225 657 256 634 274 601 c 0
 275 600 275 598 275 597 c 2
 275 567 l 2
 277 554 280 525 265 525 c 0
 259 525 255 529 255 535 c 2
 255 567 l 1
 250 603 225 633 190 644 c 1
 190 348 l 1
 239 295 289 239 294 164 c 0
 298 107 272 53 229 23 c 0
 217 14 205 7 190 3 c 1
 190 -53 l 2
 190 -59 186 -63 180 -63 c 0
 174 -63 170 -59 170 -53 c 2
 170 -1 l 1
EndSplineSet
Validated: 33
EndChar

StartChar: percent
Encoding: 37 37 5
Width: 440
GlyphClass: 2
Flags: MW
HStem: 33 20<285 322 296 322 296 326> 221 20<329 329 329 356> 471 20<78.5 111 85 111 85 115> 596 20<229 266 233 266 233 268> 658 20<119 119 119 145>
LayerCount: 2
Fore
SplineSet
329 221 m 1
 297 194 l 1
 284 111 l 1
 296 53 l 1
 322 53 l 1
 355 80 l 1
 367 164 l 1
 356 221 l 1
 329 221 l 1
364 241 m 2
 368 241 372 238 373 235 c 2
 391 206 l 2
 392 204 393 202 393 200 c 2
 393 199 l 1
 393 137 l 1
 393 134 l 1
 374 72 l 2
 373 70 371 67 369 66 c 2
 332 35 l 2
 330 34 328 33 326 33 c 2
 287 33 l 2
 283 33 281 35 279 38 c 2
 260 68 l 2
 259 70 258 72 258 74 c 2
 258 75 l 1
 258 137 l 2
 258 138 259 140 259 141 c 2
 278 202 l 2
 279 204 280 207 282 208 c 2
 319 239 l 2
 321 240 324 241 326 241 c 2
 362 241 l 1
 364 241 l 2
119 658 m 1
 86 632 l 1
 73 548 l 1
 85 491 l 1
 111 491 l 1
 144 518 l 1
 159 590 l 1
 145 658 l 1
 119 658 l 1
152 678 m 1
 153 679 l 2
 155 679 159 677 161 675 c 0
 185 655 209 636 233 616 c 1
 266 616 l 1
 320 645 l 1
 356 675 l 2
 358 677 361 679 364 679 c 2
 366 678 l 1
 383 678 l 2
 389 678 393 674 393 668 c 0
 393 667 393 665 392 664 c 2
 105 39 l 2
 104 36 100 33 96 33 c 2
 78 33 l 1
 77 33 l 2
 72 33 66 37 66 43 c 0
 66 45 67 48 68 49 c 2
 337 633 l 2
 335 631 332 629 330 628 c 2
 273 597 l 2
 272 596 269 596 268 596 c 2
 230 596 l 2
 228 596 225 597 223 598 c 0
 209 609 196 620 182 631 c 1
 182 607 l 1
 182 606 l 1
 182 605 l 1
 182 575 l 1
 182 572 l 1
 163 509 l 2
 162 507 161 505 160 504 c 2
 121 473 l 2
 119 472 117 471 115 471 c 2
 79 471 l 2
 78 471 78 470 77 470 c 0
 73 470 69 473 68 476 c 2
 49 507 l 2
 48 508 47 510 47 512 c 2
 47 574 l 1
 47 575 l 2
 47 576 48 578 48 579 c 2
 67 640 l 2
 68 642 69 645 71 646 c 2
 109 676 l 2
 111 677 113 678 115 678 c 2
 152 678 l 1
EndSplineSet
Validated: 1
EndChar

StartChar: quotesingle
Encoding: 39 39 6
Width: 190
GlyphClass: 2
Flags: MW
VStem: 66 21<611 620 620 620>
LayerCount: 2
Fore
SplineSet
66 620 m 2
 65 619 63 618 61 618 c 1
 63 616 64 613 66 611 c 2
 66 620 l 2
62 656 m 1
 59 660 53 659 50 655 c 1
 52 656 55 656 57 656 c 2
 58 656 l 1
 62 656 l 1
32 664 m 0
 44 683 71 682 81 663 c 0
 85 655 87 646 87 637 c 0
 87 570 81 510 45 474 c 0
 43 472 40 471 38 471 c 0
 32 471 28 475 28 481 c 0
 28 483 29 486 31 488 c 0
 57 514 74 561 49 600 c 0
 40 614 17 638 32 664 c 0
EndSplineSet
Validated: 33
EndChar

StartChar: parenleft
Encoding: 40 40 7
Width: 250
GlyphClass: 2
Flags: MW
VStem: 44 37<173.5 340.5 173.5 341>
LayerCount: 2
Fore
SplineSet
179 733 m 2
 184 733 188 728 188 723 c 0
 188 721 186 719 185 717 c 0
 71 603 81 424 81 257 c 0
 81 90 71 -88 185 -202 c 0
 186 -204 188 -207 188 -209 c 0
 188 -214 183 -218 178 -218 c 0
 176 -218 174 -217 172 -216 c 0
 50 -94 44 89 44 257 c 0
 44 425 50 608 172 730 c 0
 174 731 176 733 178 733 c 2
 179 733 l 2
EndSplineSet
Validated: 33
EndChar

StartChar: parenright
Encoding: 41 41 8
Width: 250
GlyphClass: 2
Flags: MW
VStem: 169 37<173.5 340.5>
LayerCount: 2
Fore
SplineSet
62 723 m 0
 62 728 66 733 71 733 c 2
 72 733 l 2
 75 733 76 731 78 730 c 0
 200 608 206 425 206 257 c 0
 206 89 200 -94 78 -216 c 1
 65 -202 l 1
 179 -88 169 90 169 257 c 0
 169 424 179 603 65 717 c 0
 64 718 62 720 62 723 c 0
EndSplineSet
Validated: 33
EndChar

StartChar: asterisk
Encoding: 42 42 9
Width: 306
GlyphClass: 2
Flags: MW
HStem: 658 20G<151 155.5>
VStem: 47 21<411 413 411 418 411 419.5 549 551> 124 58<325 326 324 326 636 637> 239 20<411 413 413 413 549 551 551 551>
LayerCount: 2
Fore
SplineSet
73 416 m 1
 68 413 l 1
 68 411 l 1
 73 416 l 1
233 416 m 1
 239 411 l 1
 239 413 l 1
 233 416 l 1
68 551 m 1
 68 549 l 1
 73 545 l 1
 68 551 l 1
239 551 m 1
 233 545 l 1
 239 549 l 1
 239 551 l 1
47 575 m 2
 47 581 51 585 57 585 c 2
 59 585 l 1
 77 585 l 2
 80 585 82 583 84 581 c 2
 139 514 l 1
 124 636 l 1
 124 637 l 2
 124 639 124 641 125 642 c 2
 144 672 l 2
 145 675 149 678 153 678 c 0
 158 678 162 675 163 672 c 2
 181 642 l 2
 182 641 182 639 182 637 c 2
 182 636 l 1
 167 514 l 1
 222 581 l 2
 224 583 227 585 230 585 c 2
 247 585 l 1
 249 585 l 2
 255 585 259 581 259 575 c 2
 259 573 l 1
 259 543 l 2
 259 540 258 537 255 535 c 2
 172 481 l 1
 255 427 l 2
 258 425 259 421 259 418 c 2
 259 389 l 1
 259 387 l 2
 259 382 254 377 249 377 c 2
 247 377 l 1
 230 377 l 2
 227 377 224 379 222 381 c 2
 167 447 l 1
 182 326 l 1
 182 325 l 2
 182 323 182 320 181 319 c 2
 162 289 l 2
 161 286 157 283 153 283 c 0
 149 283 146 286 144 289 c 2
 125 319 l 2
 124 320 124 323 124 325 c 2
 124 326 l 1
 139 447 l 1
 84 381 l 2
 82 379 80 377 77 377 c 2
 59 377 l 1
 57 377 l 2
 52 377 47 382 47 387 c 2
 47 389 l 1
 47 418 l 2
 47 421 49 425 52 427 c 2
 135 481 l 1
 52 535 l 2
 49 537 47 540 47 543 c 2
 47 573 l 1
 47 575 l 2
EndSplineSet
Validated: 1
EndChar

StartChar: plus
Encoding: 43 43 10
Width: 496
GlyphClass: 2
Flags: MW
HStem: 283 20<74 220 87 220 87 220 259 392> 314 21<87 87 87 220 259 392>
VStem: 67 20<303 314 303 323 303 323> 220 39<43 45 45 283 303 314 335 573 573 575> 392 20<303 314 314 314>
CounterMasks: 1 38
LayerCount: 2
Fore
SplineSet
259 314 m 1
 259 303 l 1
 392 303 l 1
 392 314 l 1
 259 314 l 1
87 314 m 1
 87 303 l 1
 220 303 l 1
 220 314 l 1
 87 314 l 1
220 575 m 2
 220 580 225 585 230 585 c 2
 231 585 l 1
 249 585 l 2
 255 585 259 581 259 575 c 2
 259 335 l 1
 402 335 l 2
 408 335 412 331 412 325 c 2
 412 295 l 1
 412 293 l 2
 412 288 407 283 402 283 c 2
 401 283 l 1
 259 283 l 1
 259 45 l 1
 259 43 l 2
 259 38 254 33 249 33 c 2
 247 33 l 1
 230 33 l 2
 224 33 220 37 220 43 c 2
 220 283 l 1
 77 283 l 2
 71 283 67 287 67 293 c 2
 67 323 l 1
 66 325 l 2
 66 330 71 335 76 335 c 2
 77 335 l 1
 78 335 l 1
 220 335 l 1
 220 573 l 1
 220 575 l 2
EndSplineSet
Validated: 1
EndChar

StartChar: comma
Encoding: 44 44 11
Width: 116
GlyphClass: 2
Flags: MW
VStem: 66 21<17 26 26 26>
LayerCount: 2
Fore
SplineSet
66 26 m 2
 65 25 63 24 61 24 c 1
 63 22 64 19 66 17 c 2
 66 26 l 2
62 62 m 1
 59 66 53 65 50 61 c 1
 52 62 55 62 57 62 c 2
 58 62 l 1
 62 62 l 1
32 70 m 0
 44 89 71 88 81 69 c 0
 85 61 87 52 87 43 c 0
 87 -24 81 -84 45 -120 c 0
 43 -122 40 -123 38 -123 c 0
 32 -123 28 -119 28 -113 c 0
 28 -111 29 -108 31 -106 c 0
 57 -80 74 -32 49 7 c 0
 40 21 17 44 32 70 c 0
EndSplineSet
Validated: 33
EndChar

StartChar: hyphen
Encoding: 45 45 12
Width: 172
GlyphClass: 2
Flags: MW
HStem: 252 20<16 153 19 153>
VStem: 9 154<259 265>
LayerCount: 2
Fore
SplineSet
19 272 m 2
 153 272 l 2
 159 272 163 268 163 262 c 0
 163 256 159 252 153 252 c 2
 19 252 l 2
 13 252 9 256 9 262 c 0
 9 268 13 272 19 272 c 2
EndSplineSet
Validated: 1
EndChar

StartChar: period
Encoding: 46 46 13
Width: 116
GlyphClass: 2
Flags: MW
HStem: 2 20<54 60 54 67> 33 20<55.5 58 57 58> 64 21<54 60>
VStem: 28 59<33 53>
LayerCount: 2
Fore
SplineSet
49 38 m 1
 50 31 51 22 57 22 c 0
 63 22 65 31 66 38 c 1
 64 35 61 33 58 33 c 2
 57 33 l 2
 54 33 51 35 49 38 c 1
66 48 m 1
 65 55 63 64 57 64 c 0
 51 64 50 55 49 48 c 1
 51 51 54 53 57 53 c 2
 58 53 l 2
 61 53 64 51 66 48 c 1
28 43 m 0
 28 63 37 85 57 85 c 0
 77 85 87 63 87 43 c 0
 87 23 77 2 57 2 c 0
 37 2 28 23 28 43 c 0
EndSplineSet
Validated: 1
EndChar

StartChar: slash
Encoding: 47 47 14
Width: 269
GlyphClass: 2
Flags: MW
VStem: 26 215
LayerCount: 2
Fore
SplineSet
36 -218 m 2
 31 -218 26 -214 26 -209 c 0
 26 -208 27 -207 27 -206 c 2
 205 725 l 2
 206 729 210 733 214 733 c 2
 232 733 l 2
 237 733 242 728 242 723 c 2
 241 722 l 1
 63 -211 l 2
 62 -215 58 -218 54 -218 c 2
 37 -218 l 1
 36 -218 l 2
EndSplineSet
Validated: 1
EndChar

StartChar: zero
Encoding: 48 48 15
Width: 362
GlyphClass: 2
Flags: HMW
HStem: 2 20 658 20
VStem: 28 40 296 40
LayerCount: 2
Fore
SplineSet
156.359055793 667.73687455 m 1
 128.377425762 667.35347255 110.887165245 658.582442281 97.1123046875 643.349609375 c 0
 83.0244140625 627.768554688 73.1845703125 603.88671875 67.1416015625 574.049804688 c 0
 66.4617552979 570.693146155 65.8306942125 567.267608067 65.2450811681 563.778067008 c 0
 60.0404538924 505.85463188 65.7764286438 431.055079025 73.8896484375 359.045898438 c 0
 81.572265625 290.86328125 75.1611328125 216.067382812 82.421875 156.984375 c 0
 86.0517578125 127.442382812 93.048828125 102.25390625 105.182617188 83.7548828125 c 0
 117.041430589 65.6726740968 133.225411875 53.0678296272 160.220787373 46.5111882931 c 1
 188.200506705 46.8948137181 205.691229328 55.6630158391 219.46484375 70.896484375 c 0
 233.552734375 86.4765625 243.393554688 110.358398438 249.436523438 140.1953125 c 0
 260.285666478 193.762517947 258.71013987 264.871729586 258.274068576 333.702315075 c 0
 254.889986099 337.493533794 251.336240215 341.25555666 247.608398438 344.983398438 c 0
 223 369.591796875 215.383789062 403.1171875 213.8828125 436.989257812 c 0
 212.380859375 470.861328125 216.678710938 506.44921875 218.567382812 539.443359375 c 0
 220.455078125 572.4375 219.630859375 602.534179688 211.07421875 624.126953125 c 0
 202.678387275 645.313922966 188.912125518 659.884695697 156.359055793 667.73687455 c 1
293.069991655 283.177653831 m 1
 293.318613512 230.864411146 292.229578518 178.485282065 283.09375 133.37890625 c 0
 278.485977869 110.627614347 271.804055587 89.4873217041 261.583528925 71.2440197144 c 1
 279.102100674 86.4559208292 293.210124189 107.084062513 302.58203125 131.274414062 c 0
 319.565681872 175.112967827 320.031551294 229.837419865 293.069991655 283.177653831 c 1
31.0221672896 567.38246774 m 0
 32.0544879644 578.334275101 33.4608035245 588.895325433 35.296875 598.981445312 c 0
 41.5048828125 633.088867188 52.576171875 662.5625 73.7705078125 682.529296875 c 0
 89.666015625 697.50390625 111.198242188 705.390625 136.12890625 704.939453125 c 0
 143.854766797 704.798735336 151.905561447 703.85876405 160.217737077 702.079524299 c 0
 196.132974322 701.621303418 225.071217159 688.356076032 244.939453125 666.3828125 c 0
 265.162109375 644.016601562 276.349609375 614.168945312 283.09375 580.869140625 c 0
 296.583007812 514.268554688 292.529296875 431.811523438 292.529296875 357.124023438 c 0
 292.529296875 353.550413159 292.538577131 349.959020381 292.554772008 346.3524327 c 0
 352.737903954 272.049787696 360.428500827 185.524054919 334.604492188 118.868164062 c 0
 306.298863768 45.8068161944 235.883046036 -4.94060143066 156.354740045 12.1685948074 c 1
 120.44218397 12.6281346714 91.5078191688 25.8931230734 71.640625 47.865234375 c 0
 51.41796875 70.23046875 40.23046875 100.079101562 33.486328125 133.37890625 c 0
 19.9970703125 199.979492188 24.048828125 282.435546875 24.048828125 357.124023438 c 0
 24.048828125 426.846096419 20.517905383 503.338962684 31.0221672896 567.38246774 c 0
258.331967215 388.947065988 m 1
 258.743438914 445.011503021 259.543458195 502.048182764 253.450284151 549.417769798 c 1
 253.285127311 545.443248882 253.080445921 541.462418871 252.852539062 537.481445312 c 0
 250.881835938 503.041015625 246.870117188 468.28515625 248.190429688 438.510742188 c 0
 249.044540914 419.235392669 251.999884035 402.621166985 258.331967215 388.947065988 c 1
EndSplineSet
Validated: 524321
EndChar

StartChar: one
Encoding: 49 49 16
Width: 327
GlyphClass: 2
Flags: MW
HStem: 12 20<73 77 76 77 77 115 115 122 211 249> 596 20<74.5 77 77 96 141 143> 658 20G<170 175>
VStem: 143 39<53 596 596 596 616 617 617 617> 163 19
LayerCount: 2
Fore
SplineSet
143 617 m 2xf0
 142 617 142 616 141 616 c 2
 143 616 l 1
 143 617 l 2xf0
115 32 m 2
 129 32 143 40 143 53 c 2
 143 596 l 1xf0
 77 596 l 2
 72 596 67 601 67 606 c 0
 67 611 72 616 77 616 c 0
 115 616 148 638 163 672 c 0
 164 675 168 678 172 678 c 0
 178 678 182 674 182 668 c 2xe8
 182 53 l 2
 182 40 197 32 211 32 c 2
 249 32 l 2
 255 32 259 28 259 22 c 0
 259 16 255 12 249 12 c 2
 174 12 l 1
 172 12 l 1
 171 12 l 1
 155 12 l 1
 153 12 l 1
 152 12 l 1
 77 12 l 1
 76 12 l 2
 70 12 66 16 66 22 c 0
 66 28 70 32 76 32 c 2
 77 32 l 1
 115 32 l 2
EndSplineSet
Validated: 1
EndChar

StartChar: two
Encoding: 50 50 17
Width: 327
GlyphClass: 2
Flags: HMWO
HStem: 12 20 43 20
VStem: 28 269
LayerCount: 2
Fore
SplineSet
188.108398438 430.21484375 m 1
 155.858398438 423.802734375 133.494140625 401.231445312 123.651367188 373.44140625 c 0
 114.291992188 347.01171875 116.794921875 317.155273438 135.118164062 292.5390625 c 1
 155.217773438 338.016601562 174.1875 383.604492188 188.108398438 430.21484375 c 1
212.844726562 639.643554688 m 1
 219.857421875 629.618164062 225.650390625 618.602539062 229.84765625 606.810546875 c 0
 243.653320312 568.02734375 244.381835938 521.693359375 235.360351562 477.196289062 c 0
 234.96484375 475.25 234.450195312 473.346679688 234.036132812 471.407226562 c 1
 247.227539062 476.744140625 256.743164062 486.209960938 263.827148438 498.453125 c 0
 275.059570312 517.866210938 278.53125 545.034179688 272.760742188 570.392578125 c 0
 266.990234375 595.751953125 252.540039062 618.69921875 229.787109375 632.075195312 c 0
 224.649414062 635.095703125 218.967773438 637.607421875 212.844726562 639.643554688 c 1
127.986328125 686.318359375 m 0
 133.022460938 686.20703125 138.147460938 685.727539062 143.341796875 684.850585938 c 0
 151.463867188 683.48046875 158.916992188 681.004882812 166.034179688 678.037109375 c 0
 197.768554688 680.680664062 225.259765625 674.572265625 247.19140625 661.678710938 c 0
 279.228515625 642.845703125 298.702148438 611.16796875 306.24609375 578.012695312 c 0
 313.790039062 544.856445312 309.965820312 509.619140625 293.552734375 481.252929688 c 0
 279.724609375 457.35546875 255.668945312 439.086914062 224.771484375 433.873046875 c 1
 207.805664062 372.638671875 182.805664062 314.501953125 157.290039062 257.642578125 c 0
 156.883789062 256.0703125 155.819335938 253.701171875 154.913085938 252.354492188 c 0
 125.991660619 188.038175137 96.0488135646 124.188527552 65.3259007672 60.71484375 c 1
 226.336914062 60.71484375 l 2
 226.416992188 60.7158203125 226.546875 60.716796875 226.625976562 60.716796875 c 0
 236.10546875 60.716796875 243.798828125 53.0244140625 243.798828125 43.544921875 c 0
 243.798828125 37.4836783432 240.652827341 32.1524283927 235.905538584 29.0961410151 c 1
 235.691754753 19.8020557926 228.082478295 12.3251948167 218.73828125 12.3251953125 c 0
 218.681640625 12.3251953125 218.588867188 12.326171875 218.532226562 12.3271484375 c 2
 31.2197265625 12.3271484375 l 2
 21.7412109375 12.3271484375 14.048828125 20.0205078125 14.048828125 29.4990234375 c 0
 14.048828125 31.6982421875 14.8349609375 35.0859375 15.8037109375 37.060546875 c 0
 51.638671875 110.0859375 86.203125 183.725585938 119.65625 257.87109375 c 1
 84.0966796875 293.475585938 76.6015625 343.456054688 91.28125 384.905273438 c 0
 106.383789062 427.548828125 145.389648438 462.483398438 197.623046875 466.189453125 c 1
 199.02734375 472.124023438 200.490234375 478.044921875 201.702148438 484.020507812 c 0
 209.698242188 523.458007812 208.447265625 564.528320312 197.497070312 595.29296875 c 0
 189.619140625 617.422851562 177.823242188 633.748046875 160.493164062 643.155273438 c 1
 151.083984375 641.776367188 141.004882812 639.463867188 130.134765625 635.966796875 c 0
 90.001953125 623.0546875 63.1943359375 585.522460938 63.9970703125 543.37109375 c 0
 63.998046875 543.283203125 64 543.140625 64 543.052734375 c 0
 64 533.57421875 56.306640625 525.880859375 46.8271484375 525.880859375 c 0
 40.888671875 525.880859375 33.9658203125 530.217773438 31.375 535.561523438 c 0
 -3.0595703125 606.670898438 52.44140625 687.986328125 127.986328125 686.318359375 c 0
EndSplineSet
Validated: 524321
EndChar

StartChar: three
Encoding: 51 51 18
Width: 288
GlyphClass: 2
Flags: MW
HStem: 2 20<131 154 131 182> 660 20G<110 173>
VStem: 47 21<572.5 575> 220 39<215 215>
LayerCount: 2
Fore
SplineSet
82 49 m 1
 79 55 72 69 67 69 c 0
 66 69 64 68 64 67 c 2
 65 66 l 2
 71 60 76 54 82 49 c 1
181 645 m 1
 184 643 187 640 190 637 c 1
 187 640 184 643 181 645 c 1
166 654 m 1
 168 653 171 651 173 650 c 1
 171 651 168 653 166 654 c 1
153 377 m 0
 147 377 143 381 143 387 c 0
 143 390 144 392 146 394 c 0
 178 426 198 468 205 513 c 0
 214 575 188 639 133 643 c 0
 95 646 65 613 68 575 c 0
 68 569 63 564 57 564 c 0
 51 564 47 570 47 575 c 0
 39 630 82 680 138 680 c 0
 208 680 244 613 240 543 c 0
 237 487 210 436 173 395 c 1
 239 380 260 294 259 215 c 0
 258 117 230 2 134 2 c 0
 97 2 72 30 50 52 c 0
 29 73 64 102 84 82 c 0
 101 65 104 40 121 27 c 0
 125 24 128 22 134 22 c 0
 174 22 192 49 203 81 c 0
 216 118 219 167 220 215 c 0
 222 273 218 337 188 364 c 0
 179 372 168 377 153 377 c 0
EndSplineSet
Validated: 37
EndChar

StartChar: four
Encoding: 52 52 19
Width: 327
GlyphClass: 2
Flags: MW
HStem: 12 21G<208 211 211 230> 189 36<35 201 60 201 60 201 240 287> 658 20G<228 233>
VStem: 201 39<22 189 225 570 570 570 625 625> 221 19
LayerCount: 2
Fore
SplineSet
201 570 m 1xf0
 60 225 l 1
 201 225 l 1
 201 570 l 1xf0
230 678 m 0
 236 678 240 674 240 668 c 2xe8
 240 225 l 1
 287 225 l 2
 293 225 297 221 297 215 c 2
 297 200 l 2
 297 194 293 189 287 189 c 2
 240 189 l 1
 240 22 l 2
 240 16 236 12 230 12 c 2
 211 12 l 2
 205 12 201 16 201 22 c 2
 201 189 l 1
 38 189 l 2
 32 189 28 194 28 200 c 0
 28 201 29 202 29 203 c 2
 201 625 l 1xf0
 202 626 l 1
 221 672 l 2xe8
 222 675 226 678 230 678 c 0
EndSplineSet
Validated: 1
EndChar

StartChar: five
Encoding: 53 53 20
Width: 288
GlyphClass: 2
Flags: MW
HStem: 2 20<131 172 131 185> 617 20<104 222 104 230 102 222> 648 20<105 105 105 192 192 202 96 226>
LayerCount: 2
Fore
SplineSet
82 49 m 1
 79 55 72 69 67 69 c 0
 66 69 64 68 64 67 c 2
 65 66 l 2
 71 60 76 54 82 49 c 1
105 648 m 1
 104 637 l 1
 222 637 l 1
 226 648 l 1
 105 648 l 1
77 439 m 0
 71 439 66 445 66 450 c 0
 66 451 67 451 67 452 c 2
 86 659 l 2
 86 664 91 668 96 668 c 2
 192 668 l 2
 212 668 230 678 241 695 c 0
 243 697 246 700 249 700 c 0
 255 700 259 695 259 689 c 2
 259 686 l 1
 239 624 l 2
 238 620 234 617 230 617 c 2
 102 617 l 1
 88 459 l 1
 195 451 245 335 259 232 c 0
 274 124 236 2 134 2 c 0
 97 2 72 30 50 52 c 0
 29 73 64 102 84 82 c 0
 101 65 104 40 121 27 c 0
 125 24 128 22 134 22 c 0
 210 22 229 120 225 199 c 0
 219 306 185 439 77 439 c 0
EndSplineSet
Validated: 33
EndChar

StartChar: six
Encoding: 54 54 21
Width: 327
GlyphClass: 2
Flags: MW
HStem: 2 20<181 182 181 181> 408 20<176 192 171 201> 658 20G<267 270.5>
VStem: 47 35<249 346> 105 20
LayerCount: 2
Fore
SplineSet
192 428 m 0
 335 429 340 179 285 72 c 0
 263 30 230 5 182 2 c 2
 181 2 l 2
 140 0 112 19 95 46 c 0
 58 95 47 181 47 262 c 0
 47 430 134 587 262 677 c 0
 263 678 266 678 268 678 c 0
 273 678 278 673 278 668 c 0
 278 665 276 662 274 660 c 0
 244 639 216 614 192 587 c 0
 122 507 82 402 82 293 c 0
 82 205 79 111 112 57 c 0
 127 37 150 22 182 22 c 0
 261 27 273 132 277 216 c 0
 280 286 272 361 235 393 c 0
 224 403 210 408 192 408 c 0
 160 408 132 386 125 354 c 0
 124 350 119 346 115 346 c 0
 109 346 105 350 105 356 c 2
 105 358 l 1
 114 399 150 428 192 428 c 0
EndSplineSet
Validated: 33
EndChar

StartChar: seven
Encoding: 55 55 22
Width: 327
GlyphClass: 2
Flags: MW
HStem: 2 21G<93 96 96 97 97 115> 617 20<102 115 115 264> 648 20<65 65 65 274>
LayerCount: 2
Fore
SplineSet
65 648 m 1
 62 637 l 1
 270 637 l 1
 274 648 l 1
 65 648 l 1
297 661 m 2
 297 658 l 1
 297 655 l 1
 125 9 l 2
 124 5 119 2 115 2 c 2
 97 2 l 1
 96 2 l 2
 90 2 86 6 86 12 c 2
 86 13 l 1
 86 43 l 1
 86 46 l 1
 264 617 l 1
 115 617 l 2
 89 617 64 606 45 588 c 0
 43 586 40 586 38 586 c 0
 32 586 28 590 28 596 c 0
 28 597 29 598 29 599 c 2
 48 661 l 2
 49 665 53 668 57 668 c 2
 286 668 l 1
 287 668 l 2
 292 668 296 665 297 661 c 2
EndSplineSet
Validated: 1
EndChar

StartChar: eight
Encoding: 56 56 23
Width: 306
GlyphClass: 2
Flags: MW
HStem: 2 20<144.5 172 144.5 198.5> 377 20<134 161.5> 658 20<126 180>
VStem: 28 40<168 222 168 240.5> 47 40<499.5 556.5 499.5 564.5> 220 39<499.5 556.5> 239 39<178 232>
LayerCount: 2
Fore
SplineSet
153 377 m 0xf2
 115 377 98 352 86 323 c 0
 73 290 68 244 68 200 c 0
 68 136 76 66 112 36 c 0
 123 27 136 22 153 22 c 0
 191 22 209 47 221 76 c 0
 234 109 239 156 239 200 c 0
 239 264 230 333 194 363 c 0
 183 372 170 377 153 377 c 0xf2
220 528 m 0xec
 220 585 207 658 153 658 c 0
 99 658 87 585 87 528 c 0
 87 471 99 397 153 397 c 0
 207 397 220 471 220 528 c 0xec
47 528 m 0
 47 601 81 678 153 678 c 0
 225 678 259 601 259 528 c 0xec
 259 468 236 411 195 388 c 1
 253 361 278 281 278 200 c 0
 278 108 244 2 153 2 c 0
 62 2 28 108 28 200 c 0xf2
 28 281 53 361 111 388 c 1
 70 411 47 468 47 528 c 0
EndSplineSet
Validated: 1
EndChar

StartChar: nine
Encoding: 57 57 24
Width: 327
GlyphClass: 2
Flags: MW
HStem: 2 21G<93 97> 252 20<153 169 144 174> 658 20<142 194 137.5 219>
VStem: 220 20<322 324 322 322> 263 34<347.5 443>
LayerCount: 2
Fore
SplineSet
153 252 m 0
 10 251 5 501 60 608 c 0
 80 647 112 678 163 678 c 0
 225 678 256 638 273 592 c 0
 292 542 297 479 297 418 c 0
 297 277 241 142 143 42 c 0
 130 29 116 16 102 4 c 0
 100 3 98 2 96 2 c 0
 90 2 86 6 86 12 c 0
 86 16 89 20 92 22 c 0
 105 33 117 44 129 56 c 0
 214 144 263 263 263 387 c 0
 263 499 275 658 163 658 c 0
 121 658 102 631 89 599 c 0
 74 562 69 513 68 465 c 0
 66 396 73 320 110 288 c 0
 121 278 135 272 153 272 c 0
 185 272 213 295 220 327 c 0
 221 331 226 335 230 335 c 0
 236 335 240 330 240 324 c 2
 240 322 l 1
 231 281 195 252 153 252 c 0
EndSplineSet
Validated: 33
EndChar

StartChar: colon
Encoding: 58 58 25
Width: 116
GlyphClass: 2
Flags: MW
HStem: 18 50<50 58 57 58> 393 50<50 58 57 58>
VStem: 32 51<36 50 411 425>
LayerCount: 2
Fore
SplineSet
57 68 m 2
 58 68 l 2
 72 68 83 57 83 43 c 0
 83 29 72 18 58 18 c 2
 57 18 l 2
 43 18 32 29 32 43 c 0
 32 57 43 68 57 68 c 2
57 443 m 2
 58 443 l 2
 72 443 83 432 83 418 c 0
 83 404 72 393 58 393 c 2
 57 393 l 2
 43 393 32 404 32 418 c 0
 32 432 43 443 57 443 c 2
EndSplineSet
Validated: 1
EndChar

StartChar: semicolon
Encoding: 59 59 26
Width: 116
GlyphClass: 2
Flags: MW
HStem: 377 20<56 58 56 67> 399 38<56.5 57 57 58> 439 21<56 58>
VStem: 28 59<408 428> 66 21<17 26 26 26>
LayerCount: 2
Fore
SplineSet
66 26 m 2xe8
 65 25 63 24 61 24 c 1
 63 22 64 19 66 17 c 2
 66 26 l 2xe8
62 62 m 1
 59 66 53 65 50 61 c 1
 52 62 55 62 57 62 c 2
 58 62 l 1
 62 62 l 1
32 70 m 0
 44 89 71 88 81 69 c 0
 85 61 87 52 87 43 c 0xe8
 87 -24 81 -84 45 -120 c 0
 43 -122 40 -123 38 -123 c 0
 32 -123 28 -119 28 -113 c 0xf0
 28 -111 29 -108 31 -106 c 0
 57 -80 74 -32 49 7 c 0
 40 21 17 44 32 70 c 0
53 400 m 1
 54 398 55 397 57 397 c 0
 59 397 61 398 62 400 c 1
 61 400 59 399 58 399 c 2
 57 399 l 2
 56 399 54 400 53 400 c 1
57 439 m 0
 55 439 54 439 53 437 c 2
 57 437 l 1
 58 437 l 1
 62 437 l 2
 61 439 59 439 57 439 c 0
28 418 m 0xf0
 28 438 37 460 57 460 c 0
 77 460 87 438 87 418 c 0
 87 398 77 377 57 377 c 0
 37 377 28 398 28 418 c 0xf0
EndSplineSet
Validated: 33
EndChar

StartChar: less
Encoding: 60 60 27
Width: 461
GlyphClass: 2
Flags: MW
HStem: 2 21G<382 386>
VStem: 67 326<9 294>
LayerCount: 2
Fore
SplineSet
383 585 m 0
 388 585 393 580 393 575 c 0
 393 573 392 569 390 567 c 2
 92 293 l 1
 390 19 l 2
 392 17 393 15 393 12 c 0
 393 6 389 2 383 2 c 0
 381 2 378 3 376 5 c 2
 70 286 l 2
 68 288 67 291 67 293 c 0
 67 295 68 299 70 301 c 2
 376 582 l 2
 378 584 381 585 383 585 c 0
EndSplineSet
Validated: 1
EndChar

StartChar: equal
Encoding: 61 61 28
Width: 496
GlyphClass: 2
Flags: MW
HStem: 158 20<74 392 87 392 87 401 87 402> 189 21<87 87 87 392> 408 20<74 392 87 392 87 401 87 402> 439 21<87 87 87 392>
VStem: 67 20<178 189 178 198 178 198 428 439> 392 20<178 189 189 189 428 439 439 439>
LayerCount: 2
Fore
SplineSet
87 189 m 1
 87 178 l 1
 392 178 l 1
 392 189 l 1
 87 189 l 1
66 200 m 2
 66 205 71 210 76 210 c 2
 77 210 l 1
 78 210 l 1
 402 210 l 2
 408 210 412 206 412 200 c 2
 412 170 l 1
 412 168 l 2
 412 163 407 158 402 158 c 2
 401 158 l 1
 77 158 l 2
 71 158 67 162 67 168 c 2
 67 198 l 1
 66 200 l 2
87 439 m 1
 87 428 l 1
 392 428 l 1
 392 439 l 1
 87 439 l 1
66 450 m 2
 66 455 72 460 77 460 c 2
 78 460 l 1
 402 460 l 2
 408 460 412 456 412 450 c 2
 412 420 l 1
 412 418 l 2
 412 413 407 408 402 408 c 2
 401 408 l 1
 77 408 l 2
 71 408 67 412 67 418 c 2
 67 448 l 1
 66 450 l 2
EndSplineSet
Validated: 1
EndChar

StartChar: greater
Encoding: 62 62 29
Width: 461
GlyphClass: 2
Flags: MW
HStem: 2 21G<73 77>
VStem: 66 327<9 294 292 577.5>
LayerCount: 2
Fore
SplineSet
76 585 m 2
 77 585 l 2
 79 585 81 584 83 582 c 2
 390 301 l 2
 392 299 393 295 393 293 c 0
 393 291 392 288 390 286 c 2
 83 5 l 2
 81 3 78 2 76 2 c 0
 70 2 66 6 66 12 c 0
 66 15 68 17 70 19 c 2
 368 293 l 1
 70 567 l 2
 68 569 66 573 66 575 c 0
 66 580 71 585 76 585 c 2
EndSplineSet
Validated: 1
EndChar

StartChar: question
Encoding: 63 63 30
Width: 288
GlyphClass: 2
Flags: MW
HStem: 18 50<127 135 134 135> 658 20<109 166.5>
VStem: 108 52<36 50>
LayerCount: 2
Fore
SplineSet
134 68 m 2
 135 68 l 2
 149 68 160 57 160 43 c 0
 160 29 149 18 135 18 c 2
 134 18 l 2
 120 18 108 29 108 43 c 0
 108 57 120 68 134 68 c 2
131 215 m 1
 130 204 127 180 136 178 c 0
 144 176 150 186 143 191 c 0
 137 195 133 208 131 215 c 1
48 523 m 1
 49 511 49 493 59 491 c 0
 67 490 73 499 68 507 c 0
 66 510 55 517 48 523 c 1
134 678 m 0
 208 678 251 610 259 544 c 0
 270 452 225 367 160 302 c 0
 137 279 140 234 157 205 c 1
 178 184 157 152 132 158 c 0
 115 162 109 180 110 200 c 0
 111 240 115 285 146 316 c 0
 197 367 222 438 225 512 c 0
 228 581 199 658 134 658 c 0
 81 658 54 606 49 552 c 0
 52 546 58 541 64 536 c 0
 69 532 79 528 85 517 c 0
 107 480 52 452 34 487 c 0
 26 503 26 527 28 549 c 1
 19 570 20 596 31 618 c 0
 47 651 84 678 134 678 c 0
EndSplineSet
Validated: 33
EndChar

StartChar: A
Encoding: 65 65 31
Width: 419
GlyphClass: 2
Flags: MW
HStem: 12 20<17 17 17 19 17 56 70 96 334 364> 12 57<16 57 28 56 56 57 28 59 28 96> 45 20<73 77> 189 21<107 257 107 261 102 257> 659 20G<192 194.5>
LayerCount: 2
Fore
SplineSet
73 45 m 1xb8
 70 32 l 1
 96 32 l 2
 104 32 109 33 114 33 c 1
 103 38 88 42 73 45 c 1xb8
331 47 m 1
 333 35 l 2
 333 34 334 33 334 32 c 2
 364 32 l 2
 372 32 378 33 384 33 c 1
 369 39 349 44 331 47 c 1
48 49 m 2
 49 48 51 48 52 47 c 2
 53 49 l 1
 48 49 l 2
182 572 m 1
 107 210 l 1
 257 210 l 1
 182 572 l 1
191 678 m 2
 192 679 l 2
 197 679 201 675 202 670 c 2
 326 68 l 1
 347 65 370 59 388 53 c 0
 400 49 423 43 418 26 c 0
 416 19 410 17 406 16 c 0
 397 13 385 12 364 12 c 2
 327 12 l 1
 326 12 l 1
 324 12 l 1
 309 12 l 1
 307 12 l 1
 304 12 l 1
 268 12 l 2
 262 12 258 16 258 22 c 0
 258 26 262 31 266 32 c 2x98
 291 38 l 1
 284 43 274 47 276 58 c 0
 277 64 281 68 286 69 c 1x58
 261 189 l 1
 102 189 l 1
 77 65 l 1
 100 60 137 53 146 35 c 0
 151 25 141 18 135 16 c 0
 126 13 115 12 96 12 c 2
 59 12 l 1xb8
 57 12 l 1
 56 12 l 1x58
 19 12 l 2
 13 12 9 16 9 22 c 0
 9 26 13 31 17 32 c 2x98
 32 35 l 1
 23 41 4 62 28 69 c 0
 37 72 47 70 57 69 c 1x58
 182 670 l 2
 183 675 186 678 191 678 c 2
EndSplineSet
Validated: 33
EndChar

StartChar: B
Encoding: 66 66 32
Width: 378
GlyphClass: 2
Flags: MW
HStem: 9 20<35 38 35 74 104 132 132 136 184 226> 43 20<104 104> 338 20<104 179 104 187 104 179 104 189 104 190> 636 19<35 74 104 104 104 141> 712 20<204 222 198.5 232.5>
VStem: 66 38<66 338 358 629 629 629> 311 38<163 163>
LayerCount: 2
Fore
SplineSet
104 43 m 1
 104 29 l 1
 132 29 l 2
 140 29 146 30 151 30 c 1
 138 35 120 40 104 43 c 1
226 29 m 2
 286 29 312 100 311 163 c 0
 310 246 271 337 190 338 c 2
 189 338 l 1
 187 338 l 1
 104 338 l 1
 104 63 l 1
 128 58 180 52 184 29 c 1
 226 29 l 2
311 481 m 1
 288 456 259 438 236 417 c 0
 217 399 202 381 199 358 c 1
 261 364 309 417 311 481 c 1
104 636 m 1
 104 358 l 1
 179 358 l 1
 182 389 201 411 222 431 c 0
 252 458 285 479 309 509 c 1
 297 581 230 634 152 635 c 2
 151 635 l 1
 149 636 l 1
 104 636 l 1
222 712 m 0
 186 712 164 694 161 655 c 1
 238 651 304 601 324 531 c 1
 365 598 340 659 288 692 c 0
 267 705 243 712 222 712 c 0
74 655 m 1
 75 656 l 1
 77 655 l 1
 93 655 l 1
 93 655 93 656 94 656 c 2
 96 655 l 1
 141 655 l 1
 145 703 175 732 222 732 c 0
 292 733 353 677 363 615 c 0
 368 581 360 544 330 504 c 1
 338 432 297 371 240 348 c 1
 305 322 350 247 349 163 c 0
 348 86 303 9 226 9 c 2
 96 9 l 1
 94 9 l 1
 93 9 l 1
 77 9 l 1
 75 9 l 1
 74 9 l 1
 38 9 l 2
 33 9 28 14 28 19 c 0
 28 23 31 28 35 29 c 2
 63 35 l 1
 57 39 48 44 50 55 c 0
 51 63 59 65 66 66 c 1
 66 629 l 1
 35 636 l 2
 31 637 28 641 28 645 c 0
 28 650 33 655 38 655 c 2
 74 655 l 1
EndSplineSet
Validated: 33
EndChar

StartChar: C
Encoding: 67 67 33
Width: 422
GlyphClass: 2
Flags: MW
HStem: 95 59<382 382>
VStem: 28 40<321.5 412 321.5 419.5> 373 20<533.5 536>
LayerCount: 2
Fore
SplineSet
86 177 m 1
 107 97 150 30 231 22 c 0
 284 17 330 43 355 86 c 1
 252 59 148 100 86 177 c 1
229 678 m 0
 241 679 254 679 265 677 c 0
 322 670 370 633 392 578 c 0
 392 577 393 576 393 575 c 2
 393 536 l 2
 393 530 389 526 383 526 c 0
 378 526 373 531 373 536 c 0
 370 606 311 666 231 658 c 0
 102 645 68 484 68 340 c 0
 68 303 70 265 75 229 c 1
 127 127 249 72 366 111 c 1
 369 122 372 133 373 145 c 0
 373 150 378 154 383 154 c 0
 389 154 393 150 393 144 c 2
 393 106 l 2
 393 99 388 97 382 95 c 1
 358 35 297 -5 229 2 c 0
 121 13 73 115 56 224 c 1
 39 259 28 298 28 340 c 0
 28 499 84 664 229 678 c 0
EndSplineSet
Validated: 33
EndChar

StartChar: D
Encoding: 68 68 34
Width: 383
GlyphClass: 2
Flags: MW
HStem: 12 20<17 17 17 19 17 56 87 115 115 119 168 211> 46 21<87 87> 648 20<17 56 87 87 87 172>
VStem: 47 40<70 641 641 641>
LayerCount: 2
Fore
SplineSet
87 46 m 1
 87 32 l 1
 115 32 l 2
 123 32 129 33 134 33 c 1
 121 38 103 43 87 46 c 1
87 648 m 1
 87 67 l 1
 112 62 163 55 168 32 c 1
 211 32 l 2
 275 32 304 75 320 127 c 0
 338 185 341 264 335 339 c 0
 327 447 311 568 247 622 c 0
 227 639 203 648 172 648 c 2
 87 648 l 1
75 668 m 1
 77 668 l 1
 78 668 l 1
 172 668 l 2
 323 668 364 486 374 341 c 0
 385 192 354 12 211 12 c 2
 78 12 l 1
 77 12 l 1
 75 12 l 1
 59 12 l 1
 57 12 l 1
 56 12 l 1
 19 12 l 2
 13 12 9 16 9 22 c 0
 9 26 13 31 17 32 c 2
 44 38 l 1
 38 43 29 47 31 58 c 0
 32 66 39 69 47 70 c 1
 47 641 l 1
 17 648 l 2
 13 649 9 654 9 658 c 0
 9 664 13 668 19 668 c 2
 56 668 l 1
 57 668 l 1
 59 668 l 1
 75 668 l 1
EndSplineSet
Validated: 33
EndChar

StartChar: E
Encoding: 69 69 35
Width: 362
GlyphClass: 2
Flags: MW
HStem: 12 20<36 36 36 38 36 75 106 134 134 138 187 303> 12 49<97 348 305 348 306 348 308 348> 46 21<106 106> 346 20<106 261 106 261> 648 20<36 75 106 298 106 106>
VStem: 67 39<70 346 366 641 641 641> 278 19<290 293> 316 20<562 562>
LayerCount: 2
Fore
SplineSet
106 46 m 1xbf
 106 33 l 1
 106 32 l 1
 134 32 l 2
 142 32 148 33 153 33 c 1
 140 38 122 43 106 46 c 1xbf
305 668 m 1
 306 668 l 1
 308 668 l 1
 326 668 l 2
 332 668 336 664 336 658 c 2
 336 564 l 2
 336 558 332 554 326 554 c 0
 321 554 317 558 316 562 c 2
 298 648 l 1
 106 648 l 1
 106 366 l 1
 261 366 l 1
 278 421 l 2
 279 425 283 428 287 428 c 0
 293 428 297 424 297 418 c 2
 297 357 l 1
 298 356 l 1
 297 354 l 1
 297 293 l 2
 297 287 293 283 287 283 c 0
 283 283 279 286 278 290 c 2
 261 346 l 1
 106 346 l 1
 106 67 l 1
 131 62 182 55 187 32 c 1
 303 32 l 1xbf
 339 59 l 2
 341 60 343 61 345 61 c 0x5f
 351 61 355 57 355 51 c 0
 355 49 354 47 353 46 c 2x3f
 334 17 l 2
 332 14 329 12 326 12 c 2x5f
 308 12 l 1
 306 12 l 1
 305 12 l 1
 97 12 l 1
 96 12 l 1
 94 12 l 1
 78 12 l 1
 77 12 l 1
 75 12 l 1
 38 12 l 2
 32 12 28 16 28 22 c 0
 28 26 32 31 36 32 c 2
 64 38 l 1
 58 43 49 47 51 58 c 0
 52 66 59 69 67 70 c 1
 67 641 l 1
 36 648 l 2
 32 649 28 654 28 658 c 0
 28 664 32 668 38 668 c 2
 75 668 l 1
 76 668 l 1
 77 668 l 1
 78 668 l 1
 94 668 l 1
 96 668 l 1
 97 668 l 1
 305 668 l 1
EndSplineSet
Validated: 1
EndChar

StartChar: F
Encoding: 70 70 36
Width: 362
GlyphClass: 2
Flags: MW
HStem: 12 20<36 36 36 38 36 75 106 134> 46 21<106 106> 346 20<106 261 106 261> 648 20<36 75 106 298 106 106>
VStem: 67 39<70 346 366 641 641 641> 278 19<290 293> 316 20<562 562>
LayerCount: 2
Fore
SplineSet
106 46 m 1
 106 33 l 1
 106 32 l 1
 134 32 l 2
 142 32 148 33 153 33 c 1
 140 38 122 43 106 46 c 1
305 668 m 1
 306 668 l 1
 308 668 l 1
 326 668 l 2
 332 668 336 664 336 658 c 2
 336 564 l 2
 336 558 332 554 326 554 c 0
 321 554 317 558 316 562 c 2
 298 648 l 1
 106 648 l 1
 106 366 l 1
 261 366 l 1
 278 421 l 2
 279 425 283 428 287 428 c 0
 293 428 297 424 297 418 c 2
 297 357 l 1
 298 356 l 1
 297 354 l 1
 297 293 l 2
 297 287 293 283 287 283 c 0
 283 283 279 286 278 290 c 2
 261 346 l 1
 106 346 l 1
 106 67 l 1
 132 62 176 56 186 36 c 0
 191 26 181 18 175 16 c 0
 166 13 154 12 134 12 c 2
 97 12 l 1
 96 12 l 1
 94 12 l 1
 78 12 l 1
 77 12 l 1
 75 12 l 1
 38 12 l 2
 32 12 28 16 28 22 c 0
 28 26 32 31 36 32 c 2
 64 38 l 1
 58 43 49 47 51 58 c 0
 52 66 59 69 67 70 c 1
 67 641 l 1
 36 648 l 2
 32 649 28 654 28 658 c 0
 28 664 32 668 38 668 c 2
 75 668 l 1
 76 668 l 1
 77 668 l 1
 78 668 l 1
 94 668 l 1
 96 668 l 1
 97 668 l 1
 305 668 l 1
EndSplineSet
Validated: 1
EndChar

StartChar: G
Encoding: 71 71 37
Width: 440
GlyphClass: 2
Flags: MW
HStem: 2 20<162.5 254 162.5 259.5> 283 20<326 333 414 421 421 423.5> 658 20<162.5 235.5 154 273>
VStem: 28 40<269.5 410.5 269.5 418> 354 39<116 262 116 262 116 268.5> 354 77<104.5 109 104.5 262> 373 20<509.5 512>
LayerCount: 2
Fore
SplineSet
28 340 m 0xf0
 28 496 78 678 230 678 c 0
 241 678 253 677 264 675 c 0
 319 665 366 630 392 579 c 0
 393 578 393 576 393 575 c 2
 393 512 l 2
 393 507 388 502 383 502 c 0
 377 502 373 506 373 512 c 0xf2
 374 589 316 658 230 658 c 0
 95 658 68 481 68 340 c 0
 68 199 95 22 230 22 c 0
 278 22 317 54 354 91 c 1xf4
 354 262 l 2xf8
 354 275 340 283 326 283 c 0
 321 283 316 288 316 293 c 0
 316 298 321 303 326 303 c 2
 362 303 l 1
 364 304 l 1
 366 303 l 1
 381 303 l 1
 383 304 l 1
 385 303 l 1
 421 303 l 2
 426 303 431 298 431 293 c 0xf4
 431 288 426 283 421 283 c 0
 407 283 393 275 393 262 c 2
 393 116 l 1xf8
 421 116 l 2
 427 116 431 112 431 106 c 0xf4
 431 103 430 100 428 98 c 2
 390 68 l 1
 390 68 390 66 389 66 c 0
 346 25 289 2 230 2 c 0
 78 2 28 184 28 340 c 0xf0
EndSplineSet
Validated: 33
EndChar

StartChar: H
Encoding: 72 72 38
Width: 436
GlyphClass: 2
Flags: MW
HStem: 12 20<36 36 36 38 36 75 106 134 355 383> 46 21<106 106> 346 20<106 316 106 316> 614 20<106 106> 648 20<36 75 106 106 106 134 355 355 355 383>
VStem: 67 39<70 346 366 610 610 610> 316 39<70 346 346 346 366 610 610 610>
LayerCount: 2
Fore
SplineSet
355 46 m 1
 355 32 l 1
 383 32 l 2
 391 32 397 33 402 33 c 1
 389 38 371 43 355 46 c 1
106 46 m 1
 106 33 l 1
 106 32 l 1
 134 32 l 2
 142 32 148 33 153 33 c 1
 140 38 122 43 106 46 c 1
355 648 m 1
 355 634 l 1
 371 637 389 642 402 647 c 1
 397 647 391 648 383 648 c 2
 355 648 l 1
106 648 m 1
 106 634 l 1
 122 637 140 642 153 647 c 1
 148 647 142 648 134 648 c 2
 106 648 l 1
343 668 m 1
 345 668 l 1
 346 668 l 1
 383 668 l 2
 403 668 415 667 424 664 c 0
 433 661 441 649 430 639 c 0
 414 625 381 619 355 614 c 1
 355 67 l 1
 381 62 425 56 435 36 c 0
 440 26 430 18 424 16 c 0
 415 13 403 12 383 12 c 2
 346 12 l 1
 345 12 l 1
 343 12 l 1
 327 12 l 1
 326 12 l 1
 324 12 l 1
 287 12 l 2
 281 12 277 16 277 22 c 0
 277 26 281 31 285 32 c 2
 313 38 l 1
 307 43 298 47 300 58 c 0
 301 66 308 69 316 70 c 1
 316 346 l 1
 106 346 l 1
 106 67 l 1
 132 62 176 56 186 36 c 0
 191 26 181 18 175 16 c 0
 166 13 154 12 134 12 c 2
 97 12 l 1
 96 12 l 1
 94 12 l 1
 78 12 l 1
 77 12 l 1
 75 12 l 1
 38 12 l 2
 32 12 28 16 28 22 c 0
 28 26 32 31 36 32 c 2
 64 38 l 1
 58 43 49 47 51 58 c 0
 52 66 59 69 67 70 c 1
 67 610 l 1
 51 612 46 626 56 636 c 0
 58 638 62 640 64 642 c 2
 36 648 l 2
 32 649 28 654 28 658 c 0
 28 664 32 668 38 668 c 2
 75 668 l 1
 76 668 l 1
 77 668 l 1
 78 668 l 1
 94 668 l 1
 96 668 l 1
 97 668 l 1
 134 668 l 2
 154 668 166 667 175 664 c 0
 184 661 192 649 181 639 c 0
 165 625 132 619 106 614 c 1
 106 366 l 1
 316 366 l 1
 316 610 l 1
 300 612 295 626 305 636 c 0
 307 638 311 640 313 642 c 2
 285 648 l 2
 281 649 277 654 277 658 c 0
 277 664 281 668 287 668 c 2
 324 668 l 1
 326 668 l 1
 327 668 l 1
 343 668 l 1
EndSplineSet
Validated: 1
EndChar

StartChar: I
Encoding: 73 73 39
Width: 186
GlyphClass: 2
Flags: MW
HStem: 12 20<36 36 36 38 36 75 106 134> 46 21<106 106> 614 20<106 106> 648 20<36 75 106 106 106 134>
VStem: 67 39<70 610 610 610>
LayerCount: 2
Fore
SplineSet
106 46 m 1
 106 33 l 1
 106 32 l 1
 134 32 l 2
 142 32 148 33 153 33 c 1
 140 38 122 43 106 46 c 1
106 648 m 1
 106 634 l 1
 122 637 140 642 153 647 c 1
 148 647 142 648 134 648 c 2
 106 648 l 1
76 668 m 1
 77 668 l 1
 78 668 l 1
 94 668 l 1
 96 668 l 1
 97 668 l 1
 134 668 l 2
 154 668 166 667 175 664 c 0
 184 661 192 649 181 639 c 0
 165 625 132 619 106 614 c 1
 106 67 l 1
 132 62 176 56 186 36 c 0
 191 26 181 18 175 16 c 0
 166 13 154 12 134 12 c 2
 97 12 l 1
 96 12 l 1
 94 12 l 1
 78 12 l 1
 77 12 l 1
 75 12 l 1
 38 12 l 2
 32 12 28 16 28 22 c 0
 28 26 32 31 36 32 c 2
 64 38 l 1
 58 43 49 47 51 58 c 0
 52 66 59 69 67 70 c 1
 67 610 l 1
 51 612 46 626 56 636 c 0
 58 638 62 640 64 642 c 2
 36 648 l 2
 32 649 28 654 28 658 c 0
 28 664 32 668 38 668 c 2
 75 668 l 1
 76 668 l 1
EndSplineSet
Validated: 1
EndChar

StartChar: J
Encoding: 74 74 40
Width: 264
GlyphClass: 2
Flags: MW
HStem: 614 20<182 182> 648 20<113 152 182 183 182 182 183 211>
VStem: 143 39<75 106 106 610 610 610>
LayerCount: 2
Fore
SplineSet
183 648 m 1
 182 648 l 1
 182 634 l 1
 198 637 217 642 230 647 c 1
 225 647 219 648 211 648 c 2
 183 648 l 1
153 668 m 1
 155 668 l 1
 171 668 l 1
 172 668 l 1
 174 668 l 1
 211 668 l 2
 231 668 243 667 252 664 c 0
 261 661 269 649 258 639 c 0
 242 625 208 619 182 614 c 1
 182 106 l 2
 182 2 130 -96 44 -153 c 0
 43 -154 40 -154 38 -154 c 0
 32 -154 28 -150 28 -144 c 0
 28 -141 31 -138 33 -136 c 0
 102 -88 143 -9 143 75 c 2
 143 610 l 1
 127 612 123 626 133 636 c 0
 135 638 138 640 140 642 c 2
 113 648 l 2
 109 649 105 654 105 658 c 0
 105 664 109 668 115 668 c 2
 152 668 l 1
 153 668 l 1
EndSplineSet
Validated: 1
EndChar

StartChar: K
Encoding: 75 75 41
Width: 422
GlyphClass: 2
Flags: MW
HStem: 12 20<35.5 38 38 45 35.5 75 127 134 284.5 287 287 291 375.5 383> 648 20<38 45 127 134 134 136.5 306 312.5 376.5 383 383 385.5>
VStem: 67 39<53 228 266 627>
LayerCount: 2
Fore
SplineSet
67 627 m 2
 67 640 52 648 38 648 c 0
 33 648 28 653 28 658 c 0
 28 663 33 668 38 668 c 2
 75 668 l 1
 76 668 l 1
 77 668 l 1
 78 668 l 1
 94 668 l 1
 96 668 l 1
 97 668 l 1
 134 668 l 2
 139 668 144 663 144 658 c 0
 144 653 139 648 134 648 c 0
 120 648 106 640 106 627 c 2
 106 266 l 1
 162 356 l 2
 162 360 165 364 168 365 c 2
 336 632 l 2
 338 636 340 636 335 640 c 0
 330 644 319 648 306 648 c 0
 301 648 297 653 297 658 c 0
 297 663 301 668 306 668 c 2
 383 668 l 2
 388 668 393 663 393 658 c 0
 393 653 388 648 383 648 c 0
 370 648 362 630 353 621 c 2
 193 366 l 2
 196 366 200 363 201 360 c 2
 342 52 l 1
 355 41 368 32 383 32 c 0
 389 32 393 28 393 22 c 0
 393 16 389 12 383 12 c 2
 346 12 l 1
 345 12 l 1
 343 12 l 1
 328 12 l 1
 326 12 l 1
 324 12 l 1
 287 12 l 2
 282 12 277 17 277 22 c 0
 277 27 282 32 287 32 c 0
 295 32 303 34 308 36 c 1
 172 333 l 1
 106 228 l 1
 106 53 l 2
 106 40 120 32 134 32 c 0
 139 32 144 27 144 22 c 0
 144 17 139 12 134 12 c 2
 97 12 l 1
 96 12 l 1
 94 12 l 1
 78 12 l 1
 77 12 l 1
 75 12 l 1
 38 12 l 2
 33 12 28 17 28 22 c 0
 28 27 33 32 38 32 c 0
 52 32 67 40 67 53 c 2
 67 627 l 2
EndSplineSet
Validated: 1
EndChar

StartChar: L
Encoding: 76 76 42
Width: 362
GlyphClass: 2
Flags: MW
HStem: 12 20<36 36 36 38 36 75 106 134 134 138 187 312> 12 49<97 348 315 348 316 348 318 348> 46 21<106 106> 614 20<106 106> 648 20<36 75 106 106 106 134>
VStem: 67 39<70 610 610 610>
LayerCount: 2
Fore
SplineSet
106 46 m 1xbc
 106 33 l 1
 106 32 l 1
 134 32 l 2
 142 32 148 33 153 33 c 1
 140 38 122 43 106 46 c 1xbc
106 648 m 1
 106 634 l 1
 122 637 140 642 153 647 c 1
 148 647 142 648 134 648 c 2
 106 648 l 1
76 668 m 1
 77 668 l 1
 78 668 l 1
 94 668 l 1
 96 668 l 1
 97 668 l 1
 134 668 l 2
 154 668 166 667 175 664 c 0
 184 661 192 649 181 639 c 0
 165 625 132 619 106 614 c 1
 106 67 l 1
 131 62 182 55 187 32 c 1
 312 32 l 1xbc
 338 58 l 2
 340 60 342 61 345 61 c 0x5c
 351 61 355 57 355 51 c 0
 355 49 354 47 353 46 c 2x3c
 334 17 l 2
 332 14 329 12 326 12 c 2x5c
 318 12 l 1
 316 12 l 1
 315 12 l 1
 97 12 l 1
 96 12 l 1
 94 12 l 1
 78 12 l 1
 77 12 l 1
 75 12 l 1
 38 12 l 2
 32 12 28 16 28 22 c 0
 28 26 32 31 36 32 c 2
 64 38 l 1
 58 43 49 47 51 58 c 0
 52 66 59 69 67 70 c 1
 67 610 l 1
 51 612 46 626 56 636 c 0
 58 638 62 640 64 642 c 2
 36 648 l 2
 32 649 28 654 28 658 c 0
 28 664 32 668 38 668 c 2
 75 668 l 1
 76 668 l 1
EndSplineSet
Validated: 1
EndChar

StartChar: M
Encoding: 77 77 43
Width: 503
GlyphClass: 2
Flags: MW
HStem: 2 20<38 115 75 115 77 115 87 115 87 115 412 441> 659 19<72 134>
VStem: 70 20<75 75 75 76 75 75 75 76> 340 34 369 40<76 81>
LayerCount: 2
Fore
SplineSet
88 31 m 2xe0
 88 28 87 25 87 22 c 2
 115 22 l 2
 134 22 158 24 156 32 c 0
 153 44 131 57 118 64 c 0
 109 69 99 73 90 75 c 1
 88 32 l 1
 88 31 l 2xe0
409 76 m 1xe8
 411 33 l 1
 411 31 l 1
 411 30 l 1
 412 22 l 1
 441 22 l 2
 460 22 485 23 483 31 c 0
 479 43 456 57 442 64 c 0
 431 69 419 74 409 76 c 1xe8
70 76 m 1
 66 75 69 70 70 66 c 2
 70 76 l 1
77 678 m 2
 134 678 l 2
 139 678 143 675 144 670 c 2
 238 117 l 1
 335 668 l 2
 335 674 339 678 345 678 c 2
 364 678 l 2
 369 678 374 674 374 669 c 2
 407 97 l 1
 435 92 464 77 483 62 c 0
 493 54 511 39 502 21 c 0
 494 4 471 2 441 2 c 2
 404 2 l 1
 402 2 l 1
 401 2 l 1
 385 2 l 1
 383 2 l 1
 381 2 l 1
 345 2 l 2
 339 2 335 6 335 12 c 0
 335 15 337 19 340 21 c 2xf0
 372 37 l 1
 370 64 l 2
 369 69 368 76 369 81 c 2xe8
 340 581 l 1xf0
 240 10 l 2
 239 5 235 2 230 2 c 0
 225 2 220 6 220 11 c 2
 120 581 l 1
 92 95 l 1
 116 89 141 76 158 62 c 0
 168 53 183 39 174 21 c 0
 166 5 144 2 115 2 c 2
 78 2 l 1
 77 2 l 1
 75 2 l 1
 38 2 l 2
 32 2 28 6 28 12 c 0
 28 15 31 19 34 21 c 2
 63 35 l 1
 50 55 33 93 71 97 c 1
 103 643 l 1
 72 659 l 2
 69 661 67 665 67 668 c 0
 67 674 71 678 77 678 c 2
EndSplineSet
Validated: 33
EndChar

StartChar: N
Encoding: 78 78 44
Width: 447
GlyphClass: 2
Flags: MW
HStem: 2 21G<350 355> 12 20<62 62 62 64 62 101 113 141> 49 21<91 93 91 93> 611 20<340 342> 648 20<62 122 362 362 362 390>
VStem: 93 20<32 49 32 49 70 604> 342 20<8 12 120 611 611 611>
LayerCount: 2
Fore
SplineSet
113 46 m 1x7e
 113 33 l 1
 113 32 l 1
 141 32 l 2
 149 32 155 33 160 33 c 1
 147 38 129 43 113 46 c 1x7e
91 49 m 2
 92 49 92 48 93 48 c 2
 93 49 l 1
 91 49 l 2
342 632 m 2
 341 632 341 631 340 631 c 2
 342 631 l 1
 342 632 l 2
362 648 m 1
 362 634 l 1
 378 637 396 642 409 647 c 1
 404 647 398 648 390 648 c 2
 362 648 l 1
352 668 m 1
 353 668 l 1
 390 668 l 2
 410 668 422 667 431 664 c 0
 440 661 448 649 437 639 c 0
 421 625 388 619 362 614 c 1
 362 67 l 1
 362 66 l 1
 362 12 l 2x7e
 362 6 358 2 352 2 c 0xbe
 348 2 343 4 342 8 c 2
 113 604 l 1
 113 67 l 1
 139 62 183 56 193 36 c 0
 198 26 188 18 182 16 c 0
 173 13 161 12 141 12 c 2
 104 12 l 1
 103 12 l 1
 101 12 l 1
 64 12 l 2
 58 12 54 16 54 22 c 0
 54 26 58 31 62 32 c 2
 75 35 l 1
 67 40 56 46 58 58 c 0
 60 72 78 72 93 70 c 1
 93 641 l 1
 62 648 l 2
 58 649 54 654 54 658 c 0
 54 664 58 668 64 668 c 2
 122 668 l 2
 126 668 130 666 131 662 c 2
 342 120 l 1
 342 611 l 1
 327 609 309 608 307 622 c 0
 305 634 316 640 324 645 c 1
 311 648 l 2
 307 649 303 654 303 658 c 0
 303 664 307 668 313 668 c 2
 350 668 l 1
 352 668 l 1
EndSplineSet
Validated: 33
EndChar

StartChar: O
Encoding: 79 79 45
Width: 556
GlyphClass: 2
Flags: MW
HStem: 330 21<144 145.5 144 145.5 144 152>
VStem: 123 21 506 20<323.5 417.5>
LayerCount: 2
Fore
SplineSet
469 89 m 1
 447 53 418 25 380 11 c 1
 389 12 397 14 405 18 c 0
 430 29 453 56 469 89 c 1
144 330 m 1
 146 198 183 51 291 26 c 1
 259 65 258 132 252 196 c 0
 245 270 233 330 152 330 c 2
 144 330 l 1
371 651 m 1
 454 585 479 464 506 346 c 1
 505 476 470 618 371 651 c 1
327 22 m 1
 436 24 483 135 499 242 c 1
 498 273 495 305 487 338 c 0
 457 469 432 604 323 658 c 1
 189 656 146 491 144 351 c 1
 147 351 149 350 152 350 c 0
 244 350 265 280 272 198 c 0
 278 127 277 48 327 22 c 1
123 353 m 1
 125 495 169 646 286 674 c 1
 229 695 176 698 126 676 c 0
 78 654 45 611 30 562 c 0
 -1 462 41 368 123 353 c 1
117 695 m 0
 185 726 254 713 327 678 c 1
 477 676 526 495 526 340 c 0
 526 307 525 274 520 241 c 1
 522 134 486 33 414 0 c 0
 386 -13 355 -13 323 2 c 1
 175 4 125 179 123 332 c 1
 28 348 -26 453 10 568 c 0
 27 621 63 670 117 695 c 0
EndSplineSet
Validated: 33
EndChar

StartChar: P
Encoding: 80 80 46
Width: 327
GlyphClass: 2
Flags: MW
HStem: 12 20<17 17 17 19 17 56 87 115> 46 21<87 87> 314 21<87 182 87 192 87 182> 648 20<17 56 87 87 87 153>
VStem: 47 40<70 314 335 641 641 641>
LayerCount: 2
Fore
SplineSet
87 46 m 1
 87 32 l 1
 115 32 l 2
 123 32 129 33 134 33 c 1
 121 38 103 43 87 46 c 1
273 422 m 1
 247 398 208 371 202 335 c 1
 241 341 264 380 273 422 c 1
251 618 m 1
 278 584 293 535 297 485 c 1
 319 539 290 591 251 618 c 1
87 648 m 1
 87 335 l 1
 182 335 l 1
 188 391 246 420 277 455 c 1
 280 512 266 562 241 598 c 0
 220 629 191 648 153 648 c 2
 87 648 l 1
75 668 m 1
 77 668 l 1
 78 668 l 1
 153 668 l 2
 210 668 260 645 291 609 c 0
 322 573 335 524 316 477 c 0
 311 466 304 456 297 447 c 1
 292 381 259 314 192 314 c 2
 87 314 l 1
 87 67 l 1
 113 62 156 56 166 36 c 0
 171 26 162 18 156 16 c 0
 147 13 135 12 115 12 c 2
 78 12 l 1
 77 12 l 1
 75 12 l 1
 59 12 l 1
 57 12 l 1
 56 12 l 1
 19 12 l 2
 13 12 9 16 9 22 c 0
 9 26 13 31 17 32 c 2
 44 38 l 1
 38 43 29 47 31 58 c 0
 32 66 39 69 47 70 c 1
 47 641 l 1
 17 648 l 2
 13 649 9 654 9 658 c 0
 9 664 13 668 19 668 c 2
 56 668 l 1
 57 668 l 1
 59 668 l 1
 75 668 l 1
EndSplineSet
Validated: 33
EndChar

StartChar: Q
Encoding: 81 81 47
Width: 461
GlyphClass: 2
Flags: MW
HStem: -92 114<112 297.5> 658 20<162.5 297.5>
VStem: 28 40<269.5 410.5 269.5 418> 392 39<269.5 410.5>
LayerCount: 2
Fore
SplineSet
392 340 m 0
 392 481 365 658 230 658 c 0
 95 658 68 481 68 340 c 0
 68 199 95 22 230 22 c 0
 365 22 392 199 392 340 c 0
28 340 m 0
 28 496 78 678 230 678 c 0
 382 678 431 496 431 340 c 0
 431 189 386 22 253 4 c 1
 282 -19 285 -65 304 -97 c 0
 318 -120 343 -129 371 -112 c 0
 385 -103 400 -89 414 -75 c 0
 416 -73 419 -72 421 -72 c 0
 427 -72 431 -76 431 -82 c 0
 431 -84 430 -87 428 -89 c 0
 411 -106 393 -125 372 -138 c 0
 351 -151 326 -157 302 -146 c 0
 259 -126 263 -67 237 -31 c 0
 223 -11 192 -7 174 -26 c 0
 157 -44 142 -69 122 -89 c 0
 120 -91 117 -92 115 -92 c 0
 109 -92 105 -88 105 -82 c 0
 105 -80 106 -77 108 -75 c 0
 133 -50 152 -11 185 8 c 1
 70 41 28 195 28 340 c 0
EndSplineSet
Validated: 33
EndChar

StartChar: R
Encoding: 82 82 48
Width: 362
GlyphClass: 2
Flags: MW
HStem: 2 21G<325 329> 12 20<36 36 36 38 36 75 106 134> 46 21<106 106> 314 21<106 138 106 182 106 138> 648 20<36 75 106 106 106 192>
VStem: 67 39<70 314 335 641 641 641>
LayerCount: 2
Fore
SplineSet
106 46 m 1x7c
 106 33 l 1
 106 32 l 1
 134 32 l 2
 142 32 148 33 153 33 c 1
 140 38 122 43 106 46 c 1x7c
203 309 m 1
 207 249 222 191 248 138 c 1
 226 193 211 250 203 309 c 1
190 335 m 2
 191 335 l 1
 193 335 l 2
 249 336 280 390 291 442 c 1
 254 415 212 389 185 368 c 0
 173 358 162 350 157 339 c 1
 162 335 174 335 190 335 c 2
273 630 m 1
 302 597 318 542 317 487 c 1
 347 512 348 550 325 585 c 0
 313 602 296 618 273 630 c 1
106 648 m 1
 106 335 l 1
 138 335 l 1
 135 346 141 354 148 362 c 0
 154 369 163 376 173 384 c 0
 206 410 256 440 296 470 c 1
 304 553 271 648 192 648 c 2
 106 648 l 1
76 668 m 1
 77 668 l 1
 78 668 l 1
 94 668 l 1
 96 668 l 1
 97 668 l 1
 192 668 l 2
 263 668 315 637 342 596 c 0
 369 554 369 504 332 473 c 0
 326 468 321 464 315 459 c 1
 307 396 277 336 222 319 c 1
 236 211 274 108 334 18 c 0
 335 17 336 14 336 12 c 0x7c
 336 6 332 2 326 2 c 0xbc
 324 2 320 3 318 5 c 0
 235 88 187 198 182 314 c 1
 106 314 l 1
 106 67 l 1
 132 62 176 56 186 36 c 0
 191 26 181 18 175 16 c 0
 166 13 154 12 134 12 c 2
 97 12 l 1
 96 12 l 1
 94 12 l 1
 78 12 l 1
 77 12 l 1
 75 12 l 1
 38 12 l 2
 32 12 28 16 28 22 c 0
 28 26 32 31 36 32 c 2
 64 38 l 1
 58 43 49 47 51 58 c 0
 52 66 59 69 67 70 c 1
 67 641 l 1
 36 648 l 2
 32 649 28 654 28 658 c 0
 28 664 32 668 38 668 c 2
 75 668 l 1
 76 668 l 1
EndSplineSet
Validated: 33
EndChar

StartChar: S
Encoding: 83 83 49
Width: 327
GlyphClass: 2
Flags: MW
HStem: 2 20<134.5 163 134.5 162 134.5 164> 658 20<138 189.5>
VStem: 29 19 47 35 258 20<543 544 544 576>
LayerCount: 2
Fore
SplineSet
122 404 m 1xc8
 165 346 224 299 259 234 c 1
 228 296 166 347 122 404 c 1xc8
162 22 m 1
 228 27 268 83 263 152 c 0
 258 222 206 278 155 333 c 0
 101 392 46 459 47 543 c 0
 48 612 92 678 163 678 c 0
 216 678 256 650 277 611 c 0
 278 610 278 607 278 606 c 2
 278 576 l 2
 279 566 280 555 278 544 c 2
 278 543 l 2
 277 537 274 533 268 533 c 0
 262 533 258 537 258 543 c 2
 258 576 l 1
 251 620 216 658 163 658 c 0
 113 658 83 609 82 559 c 0xd8
 80 491 122 431 170 378 c 0
 225 318 291 256 297 169 c 0
 301 111 276 56 232 26 c 0
 213 11 190 2 164 2 c 2
 163 2 l 1
 162 2 l 2
 114 -1 69 24 45 63 c 0
 17 102 8 154 29 203 c 0
 30 206 34 210 38 210 c 0
 44 210 48 206 48 200 c 2
 48 107 l 1xe8
 59 56 107 22 162 22 c 1
EndSplineSet
Validated: 33
EndChar

StartChar: T
Encoding: 84 84 50
Width: 362
GlyphClass: 2
Flags: MW
HStem: 12 20<132 132 132 134 132 171 202 230> 46 21<202 202> 619 49<16 56> 648 20<61 162 61 61 202 303 202 202>
VStem: 162 40<70 648>
LayerCount: 2
Fore
SplineSet
202 46 m 1xc8
 202 33 l 1
 202 32 l 1
 230 32 l 2
 238 32 244 33 249 33 c 1
 236 38 218 43 202 46 c 1xc8
190 668 m 1xd8
 191 668 l 1
 193 668 l 1
 305 668 l 1
 306 668 l 1
 308 668 l 1xd8
 326 668 l 2
 329 668 332 667 334 664 c 2
 353 634 l 2
 354 633 355 631 355 629 c 0
 355 623 351 619 345 619 c 0xe8
 343 619 340 620 339 621 c 2
 303 648 l 1
 202 648 l 1
 202 67 l 1
 228 62 271 56 281 36 c 0
 286 26 277 18 271 16 c 0
 262 13 250 12 230 12 c 2
 193 12 l 1
 192 12 l 1
 190 12 l 1
 174 12 l 1
 172 12 l 1
 171 12 l 1
 134 12 l 2
 128 12 124 16 124 22 c 0
 124 26 128 31 132 32 c 2
 159 38 l 1
 153 43 144 47 146 58 c 0
 147 66 154 69 162 70 c 1
 162 648 l 1
 61 648 l 1xd8
 25 621 l 2
 24 620 21 619 19 619 c 0
 13 619 9 623 9 629 c 0
 9 631 10 633 11 634 c 2
 30 664 l 2
 32 667 35 668 38 668 c 2xe8
 56 668 l 1
 58 668 l 1
 59 668 l 1
 171 668 l 1
 172 668 l 1
 174 668 l 1
 190 668 l 1xd8
EndSplineSet
Validated: 1
EndChar

StartChar: U
Encoding: 85 85 51
Width: 447
GlyphClass: 2
Flags: MW
HStem: 2 20<183.5 254 183.5 260.5> 611 20<340 342> 648 20<43 82 113 113 113 141 362 362 362 390>
VStem: 74 39<168 610 610 610> 342 20<168 611 611 611>
LayerCount: 2
Fore
SplineSet
342 632 m 2
 341 632 341 631 340 631 c 2
 342 631 l 1
 342 632 l 2
362 648 m 1
 362 634 l 1
 378 637 396 642 409 647 c 1
 404 647 398 648 390 648 c 2
 362 648 l 1
113 648 m 1
 113 634 l 1
 129 637 147 642 160 647 c 1
 155 647 149 648 141 648 c 2
 113 648 l 1
362 168 m 2
 362 81 303 2 218 2 c 0
 133 2 74 81 74 168 c 2
 74 610 l 1
 58 612 53 626 63 636 c 0
 65 638 69 640 71 642 c 2
 43 648 l 2
 39 649 35 654 35 658 c 0
 35 664 39 668 45 668 c 2
 82 668 l 1
 83 668 l 1
 84 668 l 1
 85 668 l 1
 101 668 l 1
 103 668 l 1
 104 668 l 1
 141 668 l 2
 161 668 173 667 182 664 c 0
 191 661 199 649 188 639 c 0
 172 625 139 619 113 614 c 1
 113 168 l 2
 113 97 149 22 218 22 c 0
 290 22 342 90 342 168 c 2
 342 611 l 1
 327 609 309 608 307 622 c 0
 305 634 316 640 324 645 c 1
 311 648 l 2
 307 649 303 654 303 658 c 0
 303 664 307 668 313 668 c 2
 350 668 l 1
 352 668 l 1
 353 668 l 1
 390 668 l 2
 410 668 422 667 431 664 c 0
 440 661 448 649 437 639 c 0
 421 625 388 619 362 614 c 1
 362 168 l 2
EndSplineSet
Validated: 33
EndChar

StartChar: V
Encoding: 86 86 52
Width: 419
GlyphClass: 2
Flags: MW
HStem: 2 21G<189.5 194.5> 610 58<52 56 56 57 305 305> 615 20<92 96> 648 20<17 56 89 89 89 115 334 334 334 364>
LayerCount: 2
Fore
SplineSet
334 648 m 2x90
 334 647 333 647 333 646 c 2
 331 634 l 1
 349 637 369 641 384 647 c 1
 378 647 372 648 364 648 c 2
 334 648 l 2x90
89 648 m 1
 92 635 l 1xb0
 107 638 122 642 133 647 c 1
 128 647 123 648 115 648 c 2
 89 648 l 1
75 668 m 1
 77 668 l 1
 78 668 l 1
 115 668 l 2
 140 668 161 669 166 654 c 0
 171 638 149 631 138 627 c 0
 126 622 111 618 96 615 c 1xb0
 201 108 l 1
 305 610 l 1xc0
 292 609 278 610 276 622 c 0
 274 635 287 641 296 646 c 1
 285 648 l 2
 281 649 277 654 277 658 c 0
 277 664 281 668 287 668 c 2
 324 668 l 1
 326 668 l 1
 327 668 l 1
 364 668 l 2x90
 385 668 397 668 406 665 c 0
 416 662 425 649 413 639 c 0
 395 624 355 617 326 612 c 1
 201 10 l 2
 200 6 197 2 192 2 c 0
 187 2 183 6 182 10 c 2
 57 610 l 1xc0
 47 610 38 613 36 622 c 0
 34 632 41 636 47 641 c 1
 17 648 l 2
 13 649 9 654 9 658 c 0
 9 664 13 668 19 668 c 2x90
 56 668 l 1
 57 668 l 1xc0
 59 668 l 1
 75 668 l 1
EndSplineSet
Validated: 33
EndChar

StartChar: W
Encoding: 87 87 53
Width: 552
GlyphClass: 2
Flags: MW
HStem: 2 21G<189.5 194.5 323.5 328.5> 610 58<52 56 56 57 186 190 190 191 305 305 439 439> 615 20<92 96> 648 20<17 56 89 89 89 115 223 223 223 249 334 334 334 364 468 468 468 498>
LayerCount: 2
Fore
SplineSet
305 610 m 1xc0
 291 609 270 612 277 629 c 1
 263 623 247 619 230 615 c 1xa0
 268 431 l 1
 305 610 l 1xc0
165 645 m 1
 161 635 149 631 138 627 c 0
 126 622 111 618 96 615 c 1xa0
 201 109 l 1
 248 335 l 1
 191 610 l 1xc0
 181 610 172 613 170 622 c 0
 168 632 175 636 181 641 c 1
 165 645 l 1
468 648 m 2x90
 468 647 467 647 467 646 c 2
 465 634 l 1
 483 637 503 641 518 647 c 1
 512 647 506 648 498 648 c 2
 468 648 l 2x90
334 648 m 2
 334 647 333 647 333 646 c 2
 331 634 l 1
 349 637 369 641 384 647 c 1
 378 647 372 648 364 648 c 2
 334 648 l 2
223 648 m 1
 226 635 l 1xb0
 241 638 256 642 267 647 c 1
 262 647 257 648 249 648 c 2
 223 648 l 1
89 648 m 1
 92 635 l 1
 107 638 122 642 133 647 c 1
 128 647 123 648 115 648 c 2
 89 648 l 1
419 649 m 2
 417 636 401 631 388 627 c 0
 370 621 347 615 326 612 c 1
 279 382 l 1
 335 109 l 1
 439 610 l 1xc0
 426 609 412 610 410 622 c 0
 408 635 421 641 430 646 c 1
 419 648 l 1
 419 649 l 2
364 668 m 2x90
 388 668 401 668 412 662 c 1
 413 665 417 668 421 668 c 2
 458 668 l 1
 460 668 l 1
 461 668 l 1
 498 668 l 2x90
 519 668 532 668 541 665 c 0
 551 662 559 649 547 639 c 0
 529 624 489 617 460 612 c 1
 336 11 l 2
 335 6 331 2 326 2 c 0
 321 2 317 5 316 10 c 2
 259 285 l 1
 202 11 l 2
 201 6 197 2 192 2 c 0
 187 2 183 5 182 10 c 2
 57 610 l 1xc0
 47 610 38 613 36 622 c 0
 34 632 41 636 47 641 c 1
 17 648 l 2
 13 649 9 654 9 658 c 0
 9 664 13 668 19 668 c 2x90
 56 668 l 1
 57 668 l 1xc0
 59 668 l 1
 75 668 l 1
 77 668 l 1
 78 668 l 1
 115 668 l 2
 129 668 139 667 147 666 c 0
 148 667 151 668 153 668 c 2x90
 190 668 l 1
 191 668 l 1xc0
 193 668 l 1
 209 668 l 1
 211 668 l 1
 212 668 l 1
 249 668 l 2x90
 263 668 273 667 281 666 c 0
 282 667 285 668 287 668 c 2xc0
 324 668 l 1
 326 668 l 1
 327 668 l 1
 364 668 l 2x90
EndSplineSet
Validated: 33
EndChar

StartChar: X
Encoding: 88 88 54
Width: 461
GlyphClass: 2
Flags: MW
HStem: 12 20<17 17 17 19 17 56 74 96 370 402> 617 19<98 106> 648 20<17 56 92 92 92 115 370 370 370 402>
LayerCount: 2
Fore
SplineSet
113 33 m 1
 104 37 91 41 79 44 c 1
 74 32 l 1
 96 32 l 2
 103 32 108 33 113 33 c 1
364 47 m 1
 369 36 l 2
 370 35 369 33 370 32 c 2
 402 32 l 2
 411 32 417 33 423 33 c 1
 407 39 384 44 364 47 c 1
52 49 m 2
 58 46 l 1
 59 48 l 2
 57 48 54 49 52 49 c 2
370 648 m 2
 369 646 369 644 368 643 c 2
 363 633 l 1
 383 636 406 641 423 647 c 1
 417 647 411 648 402 648 c 2
 370 648 l 2
92 648 m 1
 98 636 l 1
 110 639 122 643 132 647 c 1
 127 647 122 648 115 648 c 2
 92 648 l 1
326 38 m 1
 318 43 302 55 314 66 c 1
 205 306 l 1
 88 63 l 1
 107 58 129 52 140 40 c 0
 148 31 143 20 133 16 c 0
 125 13 114 12 96 12 c 2
 59 12 l 1
 57 12 l 1
 56 12 l 1
 19 12 l 2
 13 12 9 16 9 22 c 0
 9 27 13 31 17 32 c 2
 36 36 l 1
 29 41 19 48 22 59 c 0
 26 76 52 70 68 67 c 1
 195 330 l 1
 68 610 l 1
 56 609 44 611 41 622 c 0
 39 632 46 636 51 641 c 1
 17 648 l 2
 13 649 9 654 9 658 c 0
 9 664 13 668 19 668 c 2
 56 668 l 1
 57 668 l 1
 59 668 l 1
 75 668 l 1
 77 668 l 1
 78 668 l 1
 115 668 l 2
 139 668 158 669 163 654 c 0
 168 638 149 631 138 627 c 0
 129 623 117 620 106 617 c 1
 216 374 l 1
 329 610 l 1
 312 611 301 624 316 637 c 0
 320 640 325 643 331 646 c 1
 324 648 316 650 316 658 c 0
 316 664 320 668 326 668 c 2
 362 668 l 1
 364 668 l 1
 366 668 l 1
 402 668 l 2
 430 668 454 671 459 654 c 0
 464 637 439 631 426 627 c 0
 405 620 376 614 352 611 c 1
 227 350 l 1
 354 69 l 1
 378 66 406 60 426 53 c 0
 439 49 464 43 459 26 c 0
 455 10 429 12 402 12 c 2
 366 12 l 1
 364 12 l 1
 362 12 l 1
 347 12 l 1
 345 12 l 1
 343 12 l 1
 306 12 l 2
 300 12 296 16 296 22 c 0
 296 26 300 31 304 32 c 2
 326 38 l 1
EndSplineSet
Validated: 33
EndChar

StartChar: Y
Encoding: 89 89 55
Width: 380
GlyphClass: 2
Flags: MW
HStem: 12 20<132 132 132 134 132 171 202 230> 46 21<202 202> 610 58<74.5 75 75 77 77 78 78 80 257 263> 616 19<113 118> 648 20<36 75 109 109 109 134 295 295 295 326>
VStem: 162 40<70 323>
LayerCount: 2
Fore
SplineSet
202 46 m 1xc4
 202 33 l 1
 202 32 l 1
 230 32 l 2
 238 32 244 33 249 33 c 1
 236 38 218 43 202 46 c 1xc4
295 648 m 2xcc
 295 647 294 646 294 645 c 2
 291 633 l 1
 310 636 331 641 346 647 c 1
 340 647 334 648 326 648 c 2
 295 648 l 2xcc
109 648 m 1
 113 635 l 1xdc
 127 638 141 642 152 647 c 1
 147 647 141 648 134 648 c 2
 109 648 l 1
286 668 m 1xe4
 287 668 l 1
 289 668 l 1xe4
 326 668 l 2xcc
 347 668 360 668 369 665 c 0
 379 662 387 649 375 639 c 0
 356 623 315 616 285 612 c 1
 202 323 l 1
 202 67 l 1
 228 62 271 56 281 36 c 0
 286 26 277 18 271 16 c 0
 262 13 250 12 230 12 c 2
 193 12 l 1
 192 12 l 1
 190 12 l 1
 174 12 l 1
 172 12 l 1
 171 12 l 1
 134 12 l 2
 128 12 124 16 124 22 c 0
 124 26 128 31 132 32 c 2
 159 38 l 1
 153 43 144 47 146 58 c 0
 147 66 154 69 162 70 c 1
 162 323 l 1
 80 610 l 1xe4
 69 610 58 612 56 622 c 0
 54 632 62 636 68 641 c 1
 36 648 l 2
 32 649 28 654 28 658 c 0
 28 664 32 668 38 668 c 2xcc
 75 668 l 1
 77 668 l 1
 78 668 l 1xe4
 94 668 l 1
 96 668 l 1
 97 668 l 1
 134 668 l 2
 158 668 179 669 184 654 c 0
 189 638 168 631 157 627 c 0
 146 623 131 619 118 616 c 1xdc
 192 361 l 1
 263 610 l 1xe4
 251 610 238 611 236 622 c 0
 234 635 247 641 256 646 c 1
 247 648 l 2
 243 649 239 654 239 658 c 0
 239 664 243 668 249 668 c 2xcc
 286 668 l 1xe4
EndSplineSet
Validated: 33
EndChar

StartChar: Z
Encoding: 90 90 56
Width: 422
GlyphClass: 2
Flags: MW
HStem: 2 20<35 56 55 56 55 60 55 62 55 64 79 287 287 306 352 356> 648 20<65 65 65 69 115 134 134 343 365 365 365 367>
VStem: 28 20 374 19
LayerCount: 2
Fore
SplineSet
358 27 m 2
 356 25 354 23 352 22 c 2
 356 22 l 1
 358 27 l 2
365 648 m 1
 55 22 l 1
 56 22 l 1
 367 648 l 1
 365 648 l 1
65 648 m 1
 64 644 l 2
 66 646 67 647 69 648 c 2
 65 648 l 1
358 668 m 1
 359 668 l 1
 360 668 l 1
 361 668 l 1
 383 668 l 2
 389 668 393 664 393 658 c 0
 393 657 393 655 392 654 c 2
 79 22 l 1
 287 22 l 2
 325 22 359 45 374 79 c 0
 375 82 379 85 383 85 c 0
 389 85 393 81 393 75 c 2
 393 72 l 1
 374 9 l 2
 373 5 368 2 364 2 c 2
 64 2 l 1
 62 2 l 1
 60 2 l 1
 38 2 l 2
 32 2 28 6 28 12 c 0
 28 13 28 16 29 17 c 2
 343 648 l 1
 134 648 l 2
 96 648 63 626 48 592 c 0
 47 589 42 586 38 586 c 0
 32 586 28 590 28 596 c 0
 28 597 29 598 29 599 c 2
 48 661 l 2
 49 665 53 668 57 668 c 2
 358 668 l 1
EndSplineSet
Validated: 1
EndChar

StartChar: backslash
Encoding: 92 92 57
Width: 288
GlyphClass: 2
Flags: MW
HStem: 658 20G<4 9>
VStem: -3 20<667.5 672> 266 19<-85 -82>
LayerCount: 2
Fore
SplineSet
7 678 m 0
 11 678 16 676 17 672 c 2
 285 -78 l 1
 285 -82 l 2
 285 -88 281 -92 275 -92 c 0
 271 -92 267 -89 266 -85 c 2
 -2 665 l 2
 -2 666 -3 667 -3 668 c 0
 -3 674 1 678 7 678 c 0
EndSplineSet
Validated: 1
EndChar

StartChar: bracketright
Encoding: 93 93 58
Width: 250
GlyphClass: 2
Flags: MW
HStem: -218 18<50.5 54 53 54 54 151> 714 19<50.5 54 53 54 54 151>
VStem: 151 37<-200 714 714 714>
LayerCount: 2
Fore
SplineSet
188 -209 m 2
 188 -214 184 -218 179 -218 c 2
 177 -218 l 1
 162 -218 l 1
 161 -218 l 1
 159 -218 l 1
 54 -218 l 1
 53 -218 l 2
 48 -218 44 -214 44 -209 c 0
 44 -204 48 -200 53 -200 c 2
 54 -200 l 1
 151 -200 l 1
 151 714 l 1
 54 714 l 1
 53 714 l 2
 48 714 44 718 44 723 c 0
 44 728 48 733 53 733 c 2
 54 733 l 1
 159 733 l 1
 161 733 l 1
 162 733 l 1
 177 733 l 1
 178 733 l 1
 179 733 l 2
 184 733 188 728 188 723 c 2
 188 722 l 1
 188 -207 l 1
 188 -209 l 2
EndSplineSet
Validated: 1
EndChar

StartChar: asciicircum
Encoding: 94 94 59
Width: 422
GlyphClass: 2
Flags: MW
HStem: 471 207<73 211 209 348>
VStem: 66 289<478 482>
LayerCount: 2
Fore
SplineSet
76 471 m 0
 70 471 66 475 66 481 c 0
 66 483 68 486 69 488 c 2
 135 565 l 1
 201 672 l 2
 202 675 207 678 211 678 c 1
 211 679 l 1
 215 679 219 676 220 673 c 2
 286 565 l 1
 352 488 l 2
 354 486 355 484 355 481 c 0
 355 475 351 471 345 471 c 0
 342 471 340 472 338 474 c 2
 211 592 l 1
 84 474 l 2
 82 472 78 471 76 471 c 0
EndSplineSet
Validated: 1
EndChar

StartChar: underscore
Encoding: 95 95 60
Width: 405
GlyphClass: 2
Flags: MW
HStem: -186 21<4 390 7 390>
LayerCount: 2
Fore
SplineSet
7 -165 m 2
 390 -165 l 2
 396 -165 400 -169 400 -175 c 0
 400 -181 396 -186 390 -186 c 2
 7 -186 l 2
 1 -186 -3 -181 -3 -175 c 0
 -3 -169 1 -165 7 -165 c 2
EndSplineSet
Validated: 1
EndChar

StartChar: grave
Encoding: 96 96 61
Width: 228
GlyphClass: 2
Flags: MW
HStem: 471 208<57 175>
VStem: 47 136<478 668>
LayerCount: 2
Fore
SplineSet
47 668 m 2
 47 674 51 678 57 678 c 1
 57 679 l 1
 62 679 66 676 67 672 c 2
 104 590 l 1
 180 487 l 2
 181 485 183 483 183 481 c 0
 183 475 178 471 172 471 c 0
 169 471 167 472 165 474 c 2
 108 536 l 1
 107 537 l 1
 51 598 l 2
 49 600 47 602 47 606 c 2
 47 668 l 2
EndSplineSet
Validated: 1
EndChar

StartChar: a
Encoding: 97 97 62
Width: 306
GlyphClass: 2
Flags: MW
HStem: 263 20<147.5 169.5> 339 20<65.5 67 65.5 70.5> 439 20<133 170.5>
VStem: 38 48 201 39<110 255 255 255 277 356>
LayerCount: 2
Fore
SplineSet
163 263 m 0
 132 263 105 248 88 231 c 0
 61 197 52 114 75 69 c 0
 84 51 96 42 115 42 c 0
 133 42 147 50 161 64 c 0
 174 77 186 95 201 110 c 1
 201 255 l 1
 189 260 176 263 163 263 c 0
59 365 m 1
 60 362 64 359 67 359 c 1
 67 360 68 360 68 361 c 2
 67 361 l 2
 64 361 61 363 59 365 c 1
85 400 m 2
 66 381 l 1
 67 381 l 2
 70 381 73 380 75 378 c 1
 78 385 82 393 85 400 c 2
67 339 m 0
 52 339 38 352 38 368 c 0
 38 377 42 386 50 394 c 0
 75 419 106 459 153 459 c 0
 206 459 240 409 240 356 c 2
 240 106 l 2
 240 79 234 50 253 41 c 0
 262 36 273 39 278 48 c 0
 280 51 284 53 287 53 c 0
 293 53 297 49 297 43 c 2
 297 42 l 1
 293 19 270 2 247 6 c 0
 214 11 203 44 201 80 c 1
 176 49 147 -3 94 6 c 0
 51 14 30 58 28 105 c 0
 26 157 40 210 75 245 c 0
 93 266 127 283 163 283 c 0
 176 283 189 281 201 277 c 1
 201 356 l 2
 201 393 188 439 153 439 c 0
 113 439 99 384 86 352 c 0
 83 344 74 339 67 339 c 0
70 41 m 1
 73 38 76 35 80 33 c 1
 77 36 73 38 70 41 c 1
70 41 m 1
 69 42 70 42 69 43 c 1
 69 42 69 42 70 41 c 1
EndSplineSet
Validated: 33
EndChar

StartChar: b
Encoding: 98 98 63
Width: 327
GlyphClass: 2
Flags: MW
HStem: 2 21G<74 79> 6 20<156 185.5> 423 36<174.5 181.5> 648 20<36 37> 659 20G<96 98.5>
VStem: 67 19<9 641> 67 39<111.5 137 137 355 415 641 641 641> 263 34
LayerCount: 2
Fore
SplineSet
106 137 m 2x63
 106 86 123 26 172 26 c 0
 215 26 235 54 247 88 c 0
 261 127 264 180 263 231 c 0
 262 300 254 375 216 408 c 0
 204 418 191 423 172 423 c 0
 135 423 107 395 106 355 c 2
 106 137 l 2x63
205 438 m 1
 235 427 252 402 263 372 c 1
 253 404 238 432 205 438 c 1
172 6 m 0
 140 6 114 22 98 46 c 1
 86 9 l 2
 85 5 81 2 77 2 c 0
 71 2 67 6 67 12 c 2xa5
 67 641 l 1
 36 648 l 2
 32 649 28 654 28 658 c 0
 28 663 32 667 37 668 c 2xb3
 92 678 l 1
 96 678 l 1
 96 679 l 1x2b
 101 679 106 673 106 668 c 2x33
 106 667 l 1
 106 415 l 1
 125 442 157 459 192 459 c 0
 238 459 263 428 277 393 c 0
 292 355 296 307 297 262 c 0
 298 172 290 74 240 30 c 0
 223 15 199 6 172 6 c 0
EndSplineSet
Validated: 33
EndChar

StartChar: c
Encoding: 99 99 64
Width: 288
GlyphClass: 2
Flags: MW
HStem: 439 20<158.5 178.5>
VStem: 82 177 189 64 240 19
LayerCount: 2
Fore
SplineSet
128 37 m 1x80
 131 35 133 33 136 32 c 1
 133 34 131 35 128 37 c 1x80
108 55 m 1
 114 48 120 42 128 37 c 1
 121 42 114 48 108 55 c 1
235 400 m 1
 232 396 226 392 221 392 c 2
 220 392 l 2
 219 392 217 393 216 393 c 1
 223 381 243 392 235 400 c 1
208 421 m 1
 209 421 l 1
 208 421 l 1
172 459 m 0
 205 459 225 431 245 417 c 0
 257 409 259 393 253 382 c 0
 247 371 233 364 218 368 c 0
 198 373 193 394 189 414 c 0xa0
 186 427 185 439 172 439 c 0
 128 439 108 410 96 376 c 0
 82 337 79 283 82 231 c 0xc0
 86 149 97 50 173 42 c 0
 201 39 228 54 240 79 c 0x90
 242 82 245 85 249 85 c 0
 255 85 259 81 259 75 c 0xc0
 259 73 259 71 258 70 c 0
 244 24 198 -3 151 6 c 0
 72 22 54 113 47 199 c 0
 40 292 52 390 104 434 c 0
 122 449 145 459 172 459 c 0
EndSplineSet
Validated: 33
EndChar

StartChar: d
Encoding: 100 100 65
Width: 334
GlyphClass: 2
Flags: MW
HStem: 6 32 18 20<217 227> 439 20<157.5 160 160 173.5 152 176>
VStem: 227 39<12 667 13 667 18 667 41 49 49 49 106 323 323 324 324 326 326 386 386 386 432 647 647 647>
LayerCount: 2
Fore
SplineSet
227 49 m 2x70
 224 45 221 42 217 38 c 1
 227 38 l 1
 227 49 l 2x70
86 57 m 1
 94 46 102 36 115 31 c 1
 103 37 94 46 86 57 c 1
46 105 m 1
 21 23 l 1
 84 28 l 1
 64 47 53 74 46 105 c 1
122 428 m 1
 79 400 71 326 70 256 c 1
 122 428 l 1
160 439 m 0
 155 439 150 439 146 438 c 2
 71 190 l 1
 74 137 84 83 113 57 c 0
 124 47 137 42 155 42 c 0
 192 42 223 69 227 106 c 1
 227 323 l 1
 227 324 l 1
 227 326 l 1
 227 386 l 1
 220 417 192 439 160 439 c 0
152 459 m 1
 160 459 l 2
 187 459 210 449 227 432 c 1
 227 647 l 1
 207 639 l 1
 152 459 l 1
246 654 m 1
 245 653 l 1
 245 653 246 653 246 652 c 2
 246 654 l 1
237 2 m 0
 231 2 227 7 227 12 c 2
 227 13 l 1
 227 18 l 1x70
 184 15 l 1
 171 9 156 6 141 6 c 0xb0
 132 6 123 7 115 10 c 2
 10 2 l 1
 7 2 l 2
 1 2 -3 6 -3 12 c 2
 -3 15 l 1
 38 150 l 1
 26 269 34 427 130 455 c 1
 189 650 l 2
 190 653 192 656 195 657 c 2
 251 677 l 2
 252 678 255 678 256 678 c 2
 256 679 l 1
 262 679 266 673 266 668 c 2
 266 667 l 1
 266 41 l 1
 294 43 l 2
 300 43 304 39 304 33 c 0
 304 29 302 25 298 24 c 2
 242 3 l 2
 241 2 238 2 237 2 c 0
EndSplineSet
Validated: 33
EndChar

StartChar: e
Encoding: 101 101 66
Width: 288
GlyphClass: 2
Flags: MW
HStem: 252 20<63 220 63 228 63 220 63 230 63 231 63 249> 439 20<150.5 153 150.5 153>
VStem: 28 35 220 39<272 306.5 259 307.5> 221 19
LayerCount: 2
Fore
SplineSet
220 272 m 1xf0
 220 343 221 438 153 439 c 0
 114 439 96 414 84 385 c 0
 71 354 65 313 63 272 c 1
 220 272 l 1xf0
240 75 m 0xe8
 240 74 239 72 239 71 c 2
 239 70 l 1
 225 25 179 -2 132 6 c 0
 43 22 27 128 28 231 c 0
 29 331 50 444 137 458 c 0
 142 459 148 459 153 459 c 0
 241 458 259 351 259 262 c 0xf0
 259 256 255 252 249 252 c 2
 231 252 l 1
 230 252 l 1
 228 252 l 1
 63 252 l 1
 60 157 66 44 154 38 c 0
 183 36 210 53 221 79 c 0
 222 82 226 85 230 85 c 0
 236 85 240 81 240 75 c 0xe8
EndSplineSet
Validated: 33
EndChar

StartChar: f
Encoding: 102 102 67
Width: 211
GlyphClass: 2
Flags: MW
HStem: 12 20<36 36 36 38 36 75 106 134> 46 21<106 106> 439 21<35 67 38 67 106 153> 620 58
VStem: 67 39<70 439 460 510 510 510> 85 21<517 517>
LayerCount: 2
Fore
SplineSet
106 46 m 1xf4
 106 33 l 1
 106 32 l 1
 134 32 l 2
 142 32 148 33 153 33 c 1
 140 38 122 43 106 46 c 1xf4
181 650 m 1
 181 649 182 647 182 645 c 0
 182 644 181 641 181 640 c 1
 183 643 184 646 181 650 c 1
86 575 m 2
 86 612 103 653 144 646 c 1
 144 649 146 654 148 657 c 1
 85 644 52 574 85 517 c 1
 86 575 l 2
152 678 m 0
 180 682 215 661 200 632 c 0
 193 619 181 616 164 620 c 0
 140 626 126 634 114 612 c 0
 109 602 106 589 106 575 c 2
 106 460 l 1
 153 460 l 2
 159 460 163 456 163 450 c 0
 163 444 159 439 153 439 c 2
 106 439 l 1
 106 67 l 1
 132 62 176 56 186 36 c 0
 191 26 181 18 175 16 c 0
 166 13 154 12 134 12 c 2
 97 12 l 1
 96 12 l 1
 94 12 l 1
 78 12 l 1
 77 12 l 1
 75 12 l 1
 38 12 l 2
 32 12 28 16 28 22 c 0
 28 26 32 31 36 32 c 2
 64 38 l 1
 58 43 49 47 51 58 c 0
 52 66 59 69 67 70 c 1
 67 439 l 1
 38 439 l 2
 32 439 28 444 28 450 c 0
 28 456 32 460 38 460 c 2
 67 460 l 1
 67 510 l 1xf8
 29 580 72 667 152 678 c 0
EndSplineSet
Validated: 33
EndChar

StartChar: g
Encoding: 103 103 68
Width: 288
GlyphClass: 2
Flags: MW
HStem: -217 20<120.5 158 120.5 167.5> 127 20<114.5 124 124 125> 439 20<109.5 139.5 86.5 153.5>
VStem: 28 40<262.5 311 262.5 331> 181 40<263 310 255 323> 220 29
LayerCount: 2
Fore
SplineSet
97 -1 m 1xf4
 60 -41 31 -107 70 -162 c 0
 85 -183 107 -197 134 -197 c 0
 182 -197 219 -159 220 -113 c 0
 221 -64 182 -23 132 -14 c 0
 119 -12 108 -7 97 -1 c 1xf4
72 48 m 1
 78 37 87 29 97 22 c 0
 100 21 103 20 105 17 c 0
 114 12 125 8 136 6 c 0
 168 0 195 -16 214 -39 c 1
 197 -10 168 12 132 18 c 0
 108 22 87 32 72 48 c 1
124 147 m 0
 182 147 181 233 181 293 c 0xf8
 181 353 183 439 124 439 c 0
 95 439 84 420 77 396 c 0
 69 368 68 329 68 293 c 0
 68 232 65 147 124 147 c 0
244 428 m 1
 249 435 239 441 232 440 c 0
 225 439 224 435 221 429 c 1
 225 429 l 1
 226 433 231 436 235 436 c 0
 239 436 243 432 244 428 c 1
194 417 m 1
 200 437 209 464 239 460 c 0
 259 457 277 428 255 410 c 0
 247 403 238 404 228 407 c 0
 219 409 216 410 213 407 c 0
 211 401 209 395 206 390 c 1
 216 361 221 327 221 293 c 0xf8
 221 217 200 127 125 127 c 2
 124 127 l 2
 105 127 82 119 76 102 c 0
 63 67 106 43 136 38 c 0
 202 26 250 -31 249 -98 c 0xf4
 248 -161 201 -217 134 -217 c 0
 74 -217 23 -173 19 -114 c 0
 16 -64 46 -24 79 10 c 1
 56 28 39 59 48 93 c 0
 53 113 67 129 84 138 c 1
 42 164 28 229 28 293 c 0
 28 369 49 459 124 459 c 0
 155 459 179 442 194 417 c 1
EndSplineSet
Validated: 33
EndChar

StartChar: h
Encoding: 104 104 69
Width: 387
GlyphClass: 2
Flags: MW
HStem: 2 21G<4 9.5> 12 20<43 43 43 45 113 141 304 333> 46 21<113 113> 423 36<196.5 219.5> 659 20G<103 106>
VStem: -3 20<8.5 13 8.5 13> 74 39<70 355 404 637 637 637.5> 93 20<642 651 651 651> 265 39<70 340>
LayerCount: 2
Fore
SplineSet
304 46 m 1x7c80
 304 32 l 1
 333 32 l 2
 341 32 347 33 352 33 c 1
 339 38 320 43 304 46 c 1x7c80
113 46 m 1x7d80
 113 33 l 1
 113 32 l 1
 141 32 l 2
 149 32 155 33 160 33 c 1
 147 38 129 43 113 46 c 1x7d80
226 438 m 1
 252 428 271 404 280 376 c 1
 273 405 255 434 226 438 c 1
93 651 m 1
 85 647 l 2
 88 647 92 645 93 642 c 2
 93 651 l 1
265 340 m 2
 265 382 240 423 199 423 c 0
 158 423 122 395 113 355 c 1
 113 67 l 1
 139 62 183 56 193 36 c 0
 198 26 188 18 182 16 c 0
 173 13 161 12 141 12 c 2
 45 12 l 2
 39 12 35 16 35 22 c 0
 35 26 39 31 43 32 c 2x7e80
 71 38 l 1
 65 43 56 47 58 58 c 0
 59 66 66 69 74 70 c 1
 74 637 l 2
 74 638 74 640 75 641 c 2
 55 631 l 1
 17 11 l 2
 17 6 12 2 7 2 c 0xbe80
 1 2 -3 6 -3 12 c 2
 -3 13 l 1
 35 638 l 2
 35 641 38 645 41 646 c 2
 97 676 l 2
 98 677 101 678 103 678 c 2
 103 679 l 1
 109 679 113 673 113 668 c 2
 113 667 l 1x7d80
 113 404 l 1x7e80
 136 438 175 459 218 459 c 0
 275 459 304 398 304 340 c 2
 304 67 l 1
 330 62 374 56 384 36 c 0
 389 25 380 18 374 16 c 0
 365 13 353 12 333 12 c 2
 237 12 l 2
 231 12 227 16 227 22 c 0
 227 26 231 31 235 32 c 2
 262 38 l 1
 256 43 247 47 249 58 c 0
 250 66 257 69 265 70 c 1
 265 340 l 2
EndSplineSet
Validated: 1
EndChar

StartChar: i
Encoding: 105 105 70
Width: 197
GlyphClass: 2
Flags: MW
HStem: 2 21G<4 9.5> 12 20<43 43 43 45 113 141> 46 21<113 113> 440 20G<102 106> 612 50<86 94 93 94>
VStem: -3 20<8.5 13 8.5 13> 74 39<70 418 418 418.5> 93 20<423 433 433 433>
LayerCount: 2
Fore
SplineSet
113 46 m 1x7d
 113 33 l 1
 113 32 l 1
 141 32 l 2
 149 32 155 33 160 33 c 1
 147 38 129 43 113 46 c 1x7d
93 433 m 1
 85 428 l 2
 88 428 92 426 93 423 c 2
 93 433 l 1
103 460 m 0
 109 460 113 455 113 450 c 2
 113 448 l 1x7d
 113 67 l 1
 139 62 183 56 193 36 c 0
 198 26 188 18 182 16 c 0
 173 13 161 12 141 12 c 2
 45 12 l 2
 39 12 35 16 35 22 c 0
 35 26 39 31 43 32 c 2x7e
 71 38 l 1
 65 43 56 47 58 58 c 0
 59 66 66 69 74 70 c 1
 74 418 l 2
 74 419 74 422 75 423 c 2
 55 412 l 1
 17 11 l 2
 17 6 12 2 7 2 c 0xbe
 1 2 -3 6 -3 12 c 2
 -3 13 l 1
 35 419 l 2
 35 422 38 426 41 427 c 2
 97 458 l 2
 98 459 101 460 103 460 c 0
93 662 m 2
 94 662 l 2
 108 662 119 651 119 637 c 0
 119 623 108 612 94 612 c 2
 93 612 l 2
 79 612 68 623 68 637 c 0
 68 651 79 662 93 662 c 2
EndSplineSet
Validated: 1
EndChar

StartChar: j
Encoding: 106 106 71
Width: 183
GlyphClass: 2
Flags: MW
HStem: -217 20<4.5 28.5 4.5 58> 2 21G<4 9.5> 440 20G<121 125> 612 50<105 113 112 113>
VStem: -3 20<11 13 11 13> 93 39<12 418 418 418.5> 112 20<423 433 433 433>
LayerCount: 2
Fore
SplineSet
112 433 m 1xfa
 104 428 l 2
 107 428 111 426 112 423 c 2
 112 433 l 1xfa
132 12 m 2xfc
 132 -92 109 -217 7 -217 c 0
 2 -217 -3 -212 -3 -207 c 0
 -3 -202 2 -197 7 -197 c 0
 50 -197 67 -168 78 -133 c 0
 90 -93 93 -39 93 12 c 2
 93 418 l 2xfc
 93 419 93 422 94 423 c 2
 74 412 l 1
 17 11 l 2
 16 6 12 2 7 2 c 0
 1 2 -3 6 -3 12 c 2
 -3 13 l 1
 55 420 l 2
 55 423 58 426 60 427 c 2
 116 458 l 2
 117 459 120 460 122 460 c 0
 128 460 132 455 132 450 c 2
 132 448 l 1xfa
 132 12 l 2xfc
112 662 m 2xfa
 113 662 l 2
 127 662 138 651 138 637 c 0
 138 623 127 612 113 612 c 2
 112 612 l 2
 98 612 87 623 87 637 c 0
 87 651 98 662 112 662 c 2xfa
EndSplineSet
Validated: 1
EndChar

StartChar: k
Encoding: 107 107 72
Width: 394
GlyphClass: 2
Flags: MW
HStem: 2 21G<4 9.5> 12 20<43 43 43 45 113 141 304 333> 46 21<113 113> 429 21<304 304 304 333 333 347.5 256 354> 659 20G<103 106>
VStem: -3 20<8.5 13 8.5 13> 74 39<70 165 199 637 637 637.5> 93 20<642 651 651 651>
LayerCount: 2
Fore
SplineSet
113 46 m 1x7d
 113 33 l 1
 113 32 l 1
 141 32 l 2
 149 32 155 33 160 33 c 1
 147 38 129 43 113 46 c 1x7d
299 47 m 1
 304 36 l 1
 304 32 l 1
 333 32 l 2
 342 32 347 33 353 33 c 1
 338 38 318 44 299 47 c 1
304 429 m 2
 304 427 303 424 302 423 c 2
 296 415 l 1
 316 418 338 424 354 429 c 1
 333 429 l 1
 304 429 l 2
93 651 m 1
 85 647 l 2
 88 647 92 645 93 642 c 2
 93 651 l 1
259 428 m 1
 253 430 246 432 246 439 c 0
 246 445 250 450 256 450 c 2
 333 450 l 2
 362 450 387 452 392 435 c 0
 397 418 371 412 357 408 c 0
 335 401 305 395 280 392 c 1
 188 267 l 2
 188 266 189 266 189 265 c 1
 190 269 195 272 199 272 c 0
 203 272 207 269 208 266 c 2
 290 68 l 1
 312 65 338 59 357 53 c 0
 370 49 394 43 389 26 c 0
 385 10 360 12 333 12 c 2
 237 12 l 2
 231 12 227 16 227 22 c 0
 227 26 230 31 234 32 c 2
 257 38 l 1
 250 42 239 47 241 58 c 0
 242 63 245 66 249 68 c 1
 174 248 l 1
 113 165 l 1
 113 67 l 1
 139 62 183 56 193 36 c 0
 198 26 188 18 182 16 c 0
 173 13 161 12 141 12 c 2
 45 12 l 2
 39 12 35 16 35 22 c 0
 35 26 39 31 43 32 c 2x7e
 71 38 l 1
 65 43 56 47 58 58 c 0
 59 66 66 69 74 70 c 1
 74 637 l 2
 74 638 74 640 75 641 c 2
 55 631 l 1
 17 11 l 2
 17 6 12 2 7 2 c 0xbe
 1 2 -3 6 -3 12 c 2
 -3 13 l 1
 35 638 l 2
 35 641 38 645 41 646 c 2
 97 676 l 2
 98 677 101 678 103 678 c 2
 103 679 l 1
 109 679 113 673 113 668 c 2
 113 667 l 1x7d
 113 199 l 1x7e
 254 391 l 1
 237 392 229 406 243 418 c 0
 247 421 252 424 259 428 c 1
EndSplineSet
Validated: 33
EndChar

StartChar: l
Encoding: 108 108 73
Width: 197
GlyphClass: 2
Flags: MW
HStem: 2 21G<4 9.5> 12 20<43 43 43 45 113 141> 46 21<113 113> 659 20G<103 106>
VStem: -3 20<8.5 13 8.5 13> 74 39<70 637 637 637.5> 93 20<642 651 651 651>
LayerCount: 2
Fore
SplineSet
113 46 m 1x7a
 113 33 l 1
 113 32 l 1
 141 32 l 2
 149 32 155 33 160 33 c 1
 147 38 129 43 113 46 c 1x7a
93 651 m 1
 85 647 l 2
 88 647 92 645 93 642 c 2
 93 651 l 1
103 679 m 1
 109 679 113 673 113 668 c 2
 113 667 l 1x7a
 113 67 l 1
 139 62 183 56 193 36 c 0
 198 26 188 18 182 16 c 0
 173 13 161 12 141 12 c 2
 45 12 l 2
 39 12 35 16 35 22 c 0
 35 26 39 31 43 32 c 2x7c
 71 38 l 1
 65 43 56 47 58 58 c 0
 59 66 66 69 74 70 c 1
 74 637 l 2
 74 638 74 640 75 641 c 2
 55 631 l 1
 17 11 l 2
 17 6 12 2 7 2 c 0xbc
 1 2 -3 6 -3 12 c 2
 -3 13 l 1
 35 638 l 2
 35 641 38 645 41 646 c 2
 97 676 l 2
 98 677 101 678 103 678 c 2
 103 679 l 1
EndSplineSet
Validated: 1
EndChar

StartChar: m
Encoding: 109 109 74
Width: 581
GlyphClass: 2
Flags: MW
HStem: 2 21G<4 9.5> 12 20<43 43 43 45 43 82 113 141 304 333 496 524> 46 21<113 113> 439 20<188 227 377.5 419>
VStem: -3 20<8.5 13 8.5 13> 74 39<70 324 324 325 325 359 409 418 418 418.5> 93 20<423 433 433 433> 265 39<70 356 356 359> 457 39<70 356>
LayerCount: 2
Fore
SplineSet
496 46 m 1x7980
 496 33 l 1
 496 32 l 1
 524 32 l 2
 532 32 538 33 543 33 c 1
 530 38 512 43 496 46 c 1x7980
304 46 m 1
 304 32 l 1
 333 32 l 2
 341 32 347 33 352 33 c 1
 339 38 320 43 304 46 c 1
113 46 m 1x7b80
 113 33 l 1
 113 32 l 1
 141 32 l 2
 149 32 155 33 160 33 c 1
 147 38 129 43 113 46 c 1x7b80
93 433 m 1
 85 428 l 2
 88 428 92 426 93 423 c 2
 93 433 l 1
265 356 m 2
 265 396 246 439 208 439 c 0
 160 439 121 404 113 359 c 1
 113 325 l 1
 113 324 l 1
 113 67 l 1
 139 62 183 56 193 36 c 0
 198 26 188 18 182 16 c 0
 173 13 161 12 141 12 c 2
 104 12 l 1
 103 12 l 1
 101 12 l 1
 85 12 l 1
 84 12 l 1
 82 12 l 1
 45 12 l 2
 39 12 35 16 35 22 c 0
 35 26 39 31 43 32 c 2x7d80
 71 38 l 1
 65 43 56 47 58 58 c 0
 59 66 66 69 74 70 c 1
 74 418 l 2
 74 419 74 422 75 423 c 2
 55 412 l 1
 17 11 l 2
 17 6 12 2 7 2 c 0xbd80
 1 2 -3 6 -3 12 c 2
 -3 13 l 1
 35 419 l 2
 35 422 38 426 41 427 c 2
 97 458 l 2
 98 459 101 460 103 460 c 0
 109 460 113 455 113 450 c 2
 113 448 l 1x7b80
 113 409 l 1x7d80
 134 439 168 459 208 459 c 0
 249 459 281 433 296 397 c 1
 316 434 355 459 400 459 c 0
 455 459 496 411 496 356 c 2
 496 67 l 1
 522 62 566 56 576 36 c 0
 581 26 571 18 565 16 c 0
 556 13 544 12 524 12 c 2
 487 12 l 1
 486 12 l 1
 484 12 l 1
 468 12 l 1
 467 12 l 1
 465 12 l 1
 428 12 l 2
 422 12 418 16 418 22 c 0
 418 26 422 31 426 32 c 2
 454 38 l 1
 448 43 439 47 441 58 c 0
 442 66 449 69 457 70 c 1
 457 356 l 2
 457 396 438 439 400 439 c 0
 351 439 312 404 304 359 c 1
 304 356 l 1
 304 67 l 1
 330 62 374 56 384 36 c 0
 389 26 380 18 374 16 c 0
 365 13 353 12 333 12 c 2
 296 12 l 1
 294 12 l 1
 293 12 l 1
 277 12 l 1
 275 12 l 1
 274 12 l 1
 237 12 l 2
 231 12 227 16 227 22 c 0
 227 26 231 31 235 32 c 2
 262 38 l 1
 256 43 247 47 249 58 c 0
 250 66 257 69 265 70 c 1
 265 356 l 2
EndSplineSet
Validated: 1
EndChar

StartChar: n
Encoding: 110 110 75
Width: 380
GlyphClass: 2
Flags: MW
HStem: 12 20<36 36 36 38 106 134 297 326> 46 21<106 106> 430 19<36 37> 439 20<181 220>
VStem: 67 39<70 324 324 325 325 359 409 422 422 422> 258 39<70 356>
LayerCount: 2
Fore
SplineSet
297 46 m 1xcc
 297 32 l 1
 326 32 l 2
 334 32 340 33 345 33 c 1
 332 38 313 43 297 46 c 1xcc
106 46 m 1
 106 33 l 1
 106 32 l 1
 134 32 l 2
 142 32 148 33 153 33 c 1
 140 38 122 43 106 46 c 1
258 356 m 2
 258 396 239 439 201 439 c 0xdc
 153 439 114 404 106 359 c 1
 106 325 l 1
 106 324 l 1
 106 67 l 1
 132 62 176 56 186 36 c 0
 191 26 181 18 175 16 c 0
 166 13 154 12 134 12 c 2
 38 12 l 2
 32 12 28 16 28 22 c 0
 28 26 32 31 36 32 c 2
 64 38 l 1
 58 43 49 47 51 58 c 0
 52 66 59 69 67 70 c 1
 67 422 l 1
 36 430 l 2xec
 32 431 28 435 28 439 c 0xdc
 28 444 32 448 37 449 c 2xec
 92 459 l 2
 93 459 95 460 96 460 c 0
 101 460 106 455 106 450 c 2
 106 448 l 1
 106 409 l 1
 127 439 161 459 201 459 c 0xdc
 256 459 297 411 297 356 c 2
 297 67 l 1
 323 62 367 56 377 36 c 0
 382 26 373 18 367 16 c 0
 358 13 346 12 326 12 c 2
 230 12 l 2
 224 12 220 16 220 22 c 0
 220 26 224 31 228 32 c 2
 255 38 l 1
 249 43 240 47 242 58 c 0
 243 66 250 69 258 70 c 1
 258 356 l 2
EndSplineSet
Validated: 1
EndChar

StartChar: o
Encoding: 111 111 76
Width: 306
GlyphClass: 2
Flags: MW
HStem: 6 20<143 174 143 203> 439 20<149.5 163>
VStem: 28 40<195 256.5 195 281> 239 39<206 267.5>
LayerCount: 2
Fore
SplineSet
153 439 m 0
 110 439 93 410 82 375 c 0
 70 335 68 282 68 231 c 0
 68 159 71 78 108 43 c 0
 119 32 133 26 153 26 c 0
 195 26 213 54 224 88 c 0
 236 127 239 181 239 231 c 0
 239 304 237 386 199 422 c 0
 188 433 173 439 153 439 c 0
153 459 m 0
 256 459 278 334 278 231 c 0
 278 129 253 6 153 6 c 0
 53 6 28 129 28 231 c 0
 28 331 50 442 135 457 c 0
 141 458 146 459 153 459 c 0
EndSplineSet
Validated: 1
EndChar

StartChar: p
Encoding: 112 112 77
Width: 334
GlyphClass: 2
Flags: MW
HStem: -207 20<43 43 43 45 113 141> -173 21<113 113> 2 20<165.5 193> 424 36<181.5 188.5>
VStem: -3 20<8.5 13 8.5 13> 74 39<-149 29 76 136 136 137 137 139 139 356 416 418 418 418.5> 93 20<423 433 433 433> 270 34
LayerCount: 2
Fore
SplineSet
113 -173 m 1xfb
 113 -186 l 1
 113 -187 l 1
 141 -187 l 2
 149 -187 155 -186 160 -186 c 1
 147 -181 129 -176 113 -173 c 1xfb
179 424 m 0
 142 424 114 397 113 356 c 2
 113 139 l 1
 113 137 l 1
 113 136 l 1
 113 76 l 1xfd
 120 45 147 22 179 22 c 0
 222 22 242 51 254 86 c 0
 268 126 271 179 270 231 c 0
 269 300 261 375 223 408 c 0
 211 418 198 424 179 424 c 0
93 433 m 1xfb
 85 428 l 2
 88 428 92 426 93 423 c 2
 93 433 l 1xfb
212 438 m 1
 242 427 259 402 270 372 c 1
 260 404 245 432 212 438 c 1
103 460 m 0
 109 460 113 455 113 450 c 2
 113 448 l 1xfb
 113 416 l 1
 132 443 164 460 199 460 c 0
 246 460 270 428 284 393 c 0
 299 355 303 307 304 262 c 0
 306 171 297 72 247 27 c 0
 230 11 207 2 179 2 c 0
 152 2 130 12 113 29 c 1
 113 -152 l 1
 139 -157 183 -163 193 -183 c 0
 198 -194 188 -201 182 -203 c 0
 173 -206 161 -207 141 -207 c 2
 45 -207 l 2
 39 -207 35 -203 35 -197 c 0
 35 -193 39 -188 43 -187 c 2
 71 -180 l 1
 65 -175 56 -171 58 -160 c 0
 59 -152 66 -150 74 -149 c 1
 74 418 l 2xfd
 74 419 74 422 75 423 c 2
 55 412 l 1
 17 11 l 2
 17 6 12 2 7 2 c 0
 1 2 -3 6 -3 12 c 2
 -3 13 l 1
 35 419 l 2
 35 422 38 426 41 427 c 2
 97 458 l 2
 98 459 101 460 103 460 c 0
EndSplineSet
Validated: 33
EndChar

StartChar: q
Encoding: 113 113 78
Width: 341
GlyphClass: 2
Flags: MW
HStem: -207 20<189 192 259 287> -173 21<259 259> 6 36<139 151.5> 439 20<139 169 139 169>
VStem: 28 35 220 39<-149 49 49 49 106 323 323 324 324 326 326 386 386 386> 239 20
LayerCount: 2
Fore
SplineSet
259 -173 m 1xfa
 259 -186 l 1
 259 -187 l 1
 287 -187 l 2
 295 -187 301 -186 306 -186 c 1
 293 -181 275 -176 259 -173 c 1xfa
79 57 m 1
 87 46 95 36 108 31 c 1
 96 37 87 46 79 57 c 1
153 439 m 0
 110 439 91 410 79 375 c 0
 66 336 63 282 63 231 c 0
 63 163 70 89 106 57 c 0
 117 47 130 42 148 42 c 0
 185 42 216 69 220 106 c 1
 220 323 l 1
 220 324 l 1
 220 326 l 1
 220 386 l 1xfc
 213 417 185 439 153 439 c 0
249 460 m 0
 255 460 259 456 259 450 c 2xfa
 259 -152 l 1
 285 -157 329 -163 339 -183 c 0
 344 -193 334 -201 328 -203 c 0
 319 -206 307 -207 287 -207 c 2
 192 -207 l 2
 186 -207 181 -203 181 -197 c 0
 181 -193 185 -188 189 -187 c 2
 217 -180 l 1
 211 -175 202 -171 204 -160 c 0
 205 -152 212 -150 220 -149 c 1
 220 49 l 1xfc
 201 22 169 6 134 6 c 0
 88 6 63 37 49 71 c 0
 34 108 29 154 28 199 c 0
 26 290 35 389 85 434 c 0
 102 450 125 459 153 459 c 0
 185 459 213 444 230 421 c 1
 239 452 l 2xfa
 240 456 245 460 249 460 c 0
EndSplineSet
Validated: 33
EndChar

StartChar: r
Encoding: 114 114 79
Width: 278
GlyphClass: 2
Flags: MW
HStem: 2 21G<4 9.5> 12 20<43 43 43 45 113 141> 46 21<113 113> 409 51
VStem: -3 20<8.5 13 8.5 13> 74 39<70 322 375 418 418 418.5> 93 20<423 433 433 433>
LayerCount: 2
Fore
SplineSet
113 46 m 1x7a
 113 33 l 1
 113 32 l 1
 141 32 l 2
 149 32 155 33 160 33 c 1
 147 38 129 43 113 46 c 1x7a
93 433 m 1
 85 428 l 2
 88 428 92 426 93 423 c 2
 93 433 l 1
204 439 m 1
 192 438 182 435 173 428 c 1
 181 430 190 431 199 429 c 1
 199 432 202 437 204 439 c 1
113 375 m 1x7c
 131 414 157 460 208 460 c 0
 230 460 263 439 245 413 c 0
 234 397 213 405 196 409 c 0
 176 414 162 405 148 388 c 0
 134 371 123 346 113 322 c 1
 113 67 l 1
 139 62 183 56 193 36 c 0
 198 26 188 18 182 16 c 0
 173 13 161 12 141 12 c 2
 45 12 l 2
 39 12 35 16 35 22 c 0
 35 26 39 31 43 32 c 2x7c
 71 38 l 1
 65 43 56 47 58 58 c 0
 59 66 66 69 74 70 c 1
 74 418 l 2
 74 419 74 422 75 423 c 2
 55 412 l 1
 17 11 l 2
 17 6 12 2 7 2 c 0xbc
 1 2 -3 6 -3 12 c 2
 -3 13 l 1
 35 419 l 2
 35 422 38 426 41 427 c 2
 97 458 l 2
 98 459 101 460 103 460 c 0
 109 460 113 455 113 450 c 2
 113 448 l 1x7a
 113 375 l 1x7c
EndSplineSet
Validated: 33
EndChar

StartChar: s
Encoding: 115 115 80
Width: 267
GlyphClass: 2
Flags: MW
HStem: 439 20<124 125 125 142.5>
VStem: 28 20 201 20<386 389 389 418>
LayerCount: 2
Fore
SplineSet
92 279 m 1
 121 248 162 227 193 197 c 1
 176 218 152 238 128 254 c 0
 116 262 104 270 92 279 c 1
124 439 m 0
 86 439 68 396 68 356 c 0
 68 314 112 289 140 270 c 0
 187 239 234 198 240 138 c 0
 245 94 225 52 191 28 c 0
 176 14 156 6 134 6 c 0
 92 2 52 21 30 57 c 0
 29 58 28 61 28 63 c 2
 28 91 l 2
 28 97 32 102 38 102 c 0
 42 102 47 98 48 94 c 0
 57 54 93 26 134 26 c 1
 182 31 210 69 210 121 c 0
 210 143 200 161 185 177 c 0
 170 193 148 209 128 223 c 0
 88 251 48 286 38 338 c 0
 27 399 64 459 124 459 c 2
 125 459 l 2
 162 459 192 446 217 425 c 0
 219 423 221 421 221 418 c 2
 221 389 l 2
 221 383 217 379 211 379 c 0
 207 379 202 381 201 385 c 0
 190 416 161 439 124 439 c 0
EndSplineSet
Validated: 33
EndChar

StartChar: t
Encoding: 116 116 81
Width: 228
GlyphClass: 2
Flags: MW
HStem: 439 21<35.5 38 38 45 35.5 67 106 172 172 173>
VStem: 67 39<106 439 471 481 481 484>
LayerCount: 2
Fore
SplineSet
86 606 m 0
 86 611 89 616 95 616 c 2
 96 616 l 2
 102 616 106 612 106 606 c 2
 106 460 l 1
 172 460 l 1
 173 460 l 2
 179 460 183 456 183 450 c 0
 183 444 179 439 173 439 c 2
 172 439 l 1
 106 439 l 1
 106 106 l 2
 106 75 111 48 130 36 c 0
 148 25 172 31 183 49 c 0
 185 52 189 53 192 53 c 0
 198 53 202 49 202 43 c 0
 202 41 201 39 200 38 c 2
 199 37 l 1
 189 15 167 1 143 2 c 0
 93 3 67 55 67 106 c 2
 67 439 l 1
 38 439 l 2
 33 439 28 445 28 450 c 0
 28 455 33 460 38 460 c 0
 52 460 60 464 67 471 c 1
 67 481 l 2
 67 487 71 491 77 491 c 1
 87 521 86 564 86 606 c 0
EndSplineSet
Validated: 33
EndChar

StartChar: u
Encoding: 117 117 82
Width: 373
GlyphClass: 2
Flags: MW
HStem: 2 20<4 6 3.5 7 3.5 8> 430 19<43 44> 440 20G<102.5 105.5 293.5 296.5>
VStem: 74 39<121 422 422 422> 93 20<435 438 438 438> 265 39<12 448 14 448 27 448 51 57 57 57 107 422 422 422> 284 20<435 438 438 438>
LayerCount: 2
Fore
SplineSet
265 57 m 2x84
 262 53 260 49 257 46 c 2
 265 47 l 1
 265 57 l 2x84
98 85 m 1
 103 64 113 46 127 34 c 1
 132 34 l 1
 116 46 104 64 98 85 c 1
284 438 m 1x82
 283 437 l 2
 284 436 284 436 284 435 c 2
 284 438 l 1x82
93 438 m 1x88
 91 437 l 2
 92 436 93 436 93 435 c 2
 93 438 l 1x88
102 31 m 1
 84 53 74 87 74 121 c 2
 74 422 l 1
 43 430 l 2
 39 431 35 435 35 439 c 0
 35 444 39 448 44 449 c 2xd4
 100 459 l 2
 101 459 102 460 103 460 c 0
 108 460 113 455 113 450 c 2
 113 448 l 1xa8
 113 121 l 2
 113 80 136 42 173 38 c 1
 203 41 l 1
 234 50 258 75 265 107 c 1
 265 422 l 1
 235 430 l 2
 231 431 227 435 227 439 c 0
 227 444 230 448 235 449 c 2xd4
 291 459 l 2
 292 459 293 460 294 460 c 0
 299 460 305 455 305 450 c 2
 304 448 l 1xa2
 304 51 l 1
 332 53 l 1
 333 53 l 2
 339 53 343 48 343 43 c 0
 343 40 340 36 337 34 c 2
 281 4 l 2
 280 3 277 2 275 2 c 0
 269 2 265 7 265 12 c 2
 265 14 l 1
 265 27 l 1xa4
 231 23 l 1
 211 9 186 2 160 2 c 0
 146 2 133 6 122 13 c 1
 8 2 l 1
 7 2 l 2
 1 2 -3 6 -3 12 c 0
 -3 17 1 22 6 22 c 2
 102 31 l 1
EndSplineSet
Validated: 1
EndChar

StartChar: v
Encoding: 118 118 83
Width: 380
GlyphClass: 2
Flags: MW
HStem: 2 21G<189.5 194.5> 391 59<73.5 75 75 77 77 78 78 79 266 266> 397 19<112 117> 429 21<109 109 109 134 134 146 295 295 295 326 326 336.5>
LayerCount: 2
Fore
SplineSet
295 429 m 1x90
 295 427 l 1
 292 415 l 1
 310 418 330 423 345 429 c 1
 326 429 l 1
 295 429 l 1x90
109 429 m 1
 112 416 l 1xb0
 126 419 141 424 152 429 c 1
 134 429 l 1
 109 429 l 1
96 450 m 1
 97 450 l 1
 134 450 l 2
 158 450 179 451 184 436 c 0
 189 420 168 413 157 409 c 0
 145 405 131 400 117 397 c 1xb0
 198 88 l 1
 266 391 l 1xc0
 253 390 240 391 238 403 c 0
 236 416 248 422 257 427 c 1
 247 430 l 2
 243 431 239 435 239 439 c 0
 239 445 243 450 249 450 c 2
 286 450 l 1x90
 287 450 l 1
 289 450 l 1xc0
 326 450 l 2x90
 347 450 359 449 368 446 c 0
 378 443 386 430 374 420 c 0
 355 405 316 398 287 394 c 1
 202 10 l 2
 201 5 197 2 192 2 c 0
 187 2 183 5 182 10 c 2
 79 391 l 1xc0
 68 391 58 393 56 403 c 0
 54 413 61 418 67 423 c 1
 36 430 l 2
 32 431 28 435 28 439 c 0
 28 445 32 450 38 450 c 2x90
 75 450 l 1
 77 450 l 1
 78 450 l 1xc0
 94 450 l 1
 96 450 l 1
EndSplineSet
Validated: 33
EndChar

StartChar: w
Encoding: 119 119 84
Width: 535
GlyphClass: 2
Flags: MW
HStem: 2 21G<189.5 194.5 342.5 347.5> 391 59<73.5 75 75 77 77 78 78 79 226.5 228 228 230 230 231 231 232 419 419> 397 19<112 117> 429 21<109 109 109 134 134 145.5 262 262 262 287 287 299 449 449 449 479 479 489.5>
LayerCount: 2
Fore
SplineSet
449 429 m 2x90
 449 428 448 428 448 427 c 2
 445 415 l 1
 463 418 484 423 499 429 c 1
 479 429 l 1
 449 429 l 2x90
262 429 m 1
 265 416 l 1xb0
 279 419 294 424 305 429 c 1
 287 429 l 1
 262 429 l 1
109 429 m 1
 112 416 l 1
 126 419 141 424 152 429 c 1
 134 429 l 1
 109 429 l 1
185 432 m 1
 185 418 168 413 157 409 c 0
 145 405 131 400 117 397 c 1xa0
 198 89 l 1
 251 323 l 1
 232 391 l 1xc0
 221 391 211 393 209 403 c 0
 207 413 215 418 221 423 c 1
 189 430 l 2
 188 430 186 431 185 432 c 1
249 450 m 1x90
 251 450 l 1
 287 450 l 2
 311 450 332 451 337 436 c 0
 342 420 321 413 310 409 c 0
 298 405 285 400 271 397 c 1xb0
 352 88 l 1
 419 391 l 1xc0
 406 390 393 391 391 403 c 0
 389 416 401 422 410 427 c 1
 400 430 l 2
 396 431 392 435 392 439 c 0
 392 445 396 450 402 450 c 2
 439 450 l 1x90
 441 450 l 1
 442 450 l 1xc0
 479 450 l 2x90
 500 450 513 449 522 446 c 0
 532 443 540 430 528 420 c 0
 509 405 470 398 441 394 c 1
 355 10 l 2
 354 5 350 2 345 2 c 0
 340 2 336 5 335 10 c 2
 262 281 l 1
 201 10 l 2
 200 5 197 2 192 2 c 0
 187 2 183 5 182 10 c 2
 79 391 l 1xc0
 68 391 58 393 56 403 c 0
 54 413 61 418 67 423 c 1
 36 430 l 2
 32 431 28 435 28 439 c 0
 28 445 32 450 38 450 c 2x90
 75 450 l 1
 77 450 l 1
 78 450 l 1xc0
 94 450 l 1
 96 450 l 1
 97 450 l 1
 134 450 l 2
 157 450 174 451 182 441 c 1
 183 446 187 450 192 450 c 2x90
 228 450 l 1
 230 450 l 1
 231 450 l 1xc0
 247 450 l 1
 249 450 l 1x90
EndSplineSet
Validated: 33
EndChar

StartChar: x
Encoding: 120 120 85
Width: 362
GlyphClass: 2
Flags: MW
HStem: 12 20<17 17 17 19 17 55 74 96 275 306> 44 19<80 89> 392 58<68 68 256 256> 399 18<98 106> 429 21<92 92 92 115 115 127 274 274 274 306 306 320>
LayerCount: 2
Fore
SplineSet
113 33 m 1xc0
 104 37 92 41 80 44 c 1
 74 32 l 1
 96 32 l 2
 103 32 108 33 113 33 c 1xc0
268 47 m 1
 273 36 l 2
 274 35 274 33 275 32 c 2
 306 32 l 2
 315 32 321 33 327 33 c 1
 310 39 288 44 268 47 c 1
53 49 m 1
 55 48 56 47 58 46 c 2
 59 48 l 2
 57 48 55 49 53 49 c 1
274 429 m 2xc8
 273 427 273 425 272 424 c 2
 267 414 l 1
 288 417 310 423 327 429 c 1
 306 429 l 1
 274 429 l 2xc8
92 429 m 1
 98 417 l 1xd8
 110 420 123 425 132 429 c 1
 115 429 l 1
 92 429 l 1
230 38 m 1
 222 43 206 54 218 66 c 1
 157 198 l 1
 89 63 l 1
 107 58 129 51 140 40 c 0
 148 31 143 20 133 16 c 0
 125 13 114 12 96 12 c 2
 59 12 l 1
 57 12 l 1
 55 12 l 1
 19 12 l 2
 13 12 9 16 9 22 c 0
 9 27 13 31 17 32 c 2
 36 36 l 1
 29 41 19 48 22 59 c 0
 26 76 53 70 69 67 c 1
 147 221 l 1
 68 392 l 1xe0
 55 391 44 392 41 403 c 0
 39 413 46 417 51 422 c 1
 17 430 l 2
 13 431 9 434 9 439 c 0
 9 445 13 450 19 450 c 2xc8
 56 450 l 1
 57 450 l 1
 59 450 l 1xe0
 75 450 l 1
 77 450 l 1
 78 450 l 1
 115 450 l 2
 139 450 158 451 163 436 c 0
 168 420 149 413 138 409 c 0
 129 405 117 402 106 399 c 1
 168 264 l 1
 232 391 l 1
 215 392 206 406 220 418 c 0
 224 421 229 425 235 428 c 1
 228 430 220 431 220 439 c 0
 220 445 224 450 230 450 c 2
 267 450 l 1
 268 450 l 1
 270 450 l 1
 306 450 l 2xd8
 334 450 359 452 364 435 c 0
 369 418 344 412 331 408 c 0
 310 401 280 395 256 392 c 1xe0
 179 241 l 1
 258 69 l 1
 282 66 310 60 331 53 c 0
 344 49 368 43 363 26 c 0
 359 10 334 12 306 12 c 2
 269 12 l 1
 268 12 l 1
 267 12 l 1
 251 12 l 1
 249 12 l 1
 247 12 l 1
 211 12 l 2
 205 12 201 16 201 22 c 0
 201 26 204 31 208 32 c 2
 230 38 l 1
EndSplineSet
Validated: 33
EndChar

StartChar: y
Encoding: 121 121 86
Width: 380
GlyphClass: 2
Flags: MW
HStem: -217 20<88 118.5 88 151> 391 59<73.5 75 75 77 77 78 78 79 266 266> 397 19<112 117> 429 21<109 109 109 134 134 146 295 295 295 326 326 336.5>
LayerCount: 2
Fore
SplineSet
64 -183 m 2x80
 63 -184 l 1
 65 -185 l 2
 65 -184 64 -184 64 -183 c 2x80
62 -166 m 1
 61 -159 58 -153 51 -153 c 0
 45 -153 39 -162 45 -168 c 2
 48 -171 l 2
 50 -168 54 -165 57 -165 c 2
 58 -165 l 2
 59 -165 61 -166 62 -166 c 1
188 65 m 2
 191 54 l 1
 193 64 l 1
 192 64 l 2
 191 64 189 65 188 65 c 2
295 429 m 1x90
 295 427 l 1
 292 415 l 1
 310 418 330 423 345 429 c 1
 326 429 l 1
 295 429 l 1x90
109 429 m 1
 112 416 l 1xb0
 126 419 141 424 152 429 c 1
 134 429 l 1
 109 429 l 1
96 450 m 1
 97 450 l 1
 134 450 l 2
 158 450 179 451 184 436 c 0
 189 420 168 413 157 409 c 0
 145 405 131 400 117 397 c 1xb0
 198 88 l 1
 266 391 l 1xc0
 253 390 240 391 238 403 c 0
 236 416 248 422 257 427 c 1
 247 430 l 2
 243 431 239 435 239 439 c 0
 239 445 243 450 249 450 c 2
 286 450 l 1x90
 287 450 l 1
 289 450 l 1xc0
 326 450 l 2x90
 347 450 359 449 368 446 c 0
 378 443 386 430 374 420 c 0
 355 405 316 398 287 394 c 1
 202 11 l 2
 202 10 201 10 201 9 c 0
 173 -67 206 -217 96 -217 c 0
 69 -217 47 -199 31 -183 c 0
 -2 -150 63 -110 79 -154 c 0
 84 -167 80 -197 96 -197 c 0
 141 -197 152 -166 159 -127 c 0
 166 -85 166 -32 181 12 c 1
 79 391 l 1xc0
 68 391 58 393 56 403 c 0
 54 413 61 418 67 423 c 1
 36 430 l 2
 32 431 28 435 28 439 c 0
 28 445 32 450 38 450 c 2x90
 75 450 l 1
 77 450 l 1
 78 450 l 1xc0
 94 450 l 1
 96 450 l 1
EndSplineSet
Validated: 33
EndChar

StartChar: z
Encoding: 122 122 87
Width: 288
GlyphClass: 2
Flags: MW
HStem: 12 20<35 56 54 56 54 60 54 62 54 64 78 172 172 185> 429 21<102 115 115 209 232 232 232 233>
VStem: 28 231<19 54>
LayerCount: 2
Fore
SplineSet
232 429 m 1
 54 32 l 1
 56 32 l 1
 233 429 l 1
 232 429 l 1
225 450 m 1
 227 450 l 1
 249 450 l 2
 255 450 259 445 259 439 c 0
 259 438 258 436 258 435 c 2
 78 32 l 1
 172 32 l 2
 198 32 223 41 242 58 c 0
 244 59 247 61 249 61 c 0
 255 61 259 57 259 51 c 0
 259 49 258 46 257 45 c 2
 238 17 l 2
 236 15 233 12 230 12 c 2
 64 12 l 1
 62 12 l 1
 60 12 l 1
 38 12 l 2
 32 12 28 16 28 22 c 0
 28 23 29 25 29 26 c 2
 209 429 l 1
 115 429 l 2
 89 429 64 420 45 403 c 0
 43 402 40 401 38 401 c 0
 32 401 28 405 28 411 c 0
 28 413 29 415 30 416 c 2
 49 445 l 2
 51 447 54 450 57 450 c 2
 224 450 l 1
 225 450 l 1
EndSplineSet
Validated: 1
EndChar

StartChar: braceleft
Encoding: 123 123 88
Width: 250
GlyphClass: 2
Flags: MW
HStem: -218 18<140.5 163.5 140.5 163.5> 248 19<68.5 96 68.5 96.5> 714 19<142.5 163.5>
VStem: 80 28<-121.5 -70.5 -128 -50 584.5 636.5>
LayerCount: 2
Fore
SplineSet
80 607 m 0
 80 666 103 733 161 733 c 0
 166 733 170 728 170 723 c 0
 170 718 166 714 161 714 c 0
 124 714 108 673 108 636 c 0
 108 533 216 410 152 298 c 0
 142 280 128 266 111 257 c 1
 155 235 180 174 170 110 c 0
 158 31 108 -34 108 -107 c 0
 108 -149 120 -200 161 -200 c 0
 166 -200 170 -204 170 -209 c 0
 170 -214 166 -218 161 -218 c 0
 103 -218 80 -151 80 -92 c 0
 80 -8 137 62 142 141 c 0
 146 192 122 248 71 248 c 0
 66 248 62 252 62 257 c 0
 62 262 66 267 71 267 c 0
 121 267 142 324 142 374 c 0
 142 455 80 524 80 607 c 0
EndSplineSet
Validated: 33
EndChar

StartChar: bar
Encoding: 124 124 89
Width: 144
GlyphClass: 2
Flags: MW
VStem: 62 19<-209 723 723 724>
LayerCount: 2
Fore
SplineSet
71 733 m 0
 76 733 81 729 81 724 c 2
 81 723 l 1
 81 -209 l 2
 81 -214 76 -218 71 -218 c 0
 66 -218 62 -214 62 -209 c 2
 62 724 l 2
 62 729 66 733 71 733 c 0
EndSplineSet
Validated: 1
EndChar

StartChar: braceright
Encoding: 125 125 90
Width: 250
GlyphClass: 2
Flags: MW
HStem: -218 18<86.5 109.5 86.5 118> 248 19<154 181.5 154 181.5> 714 19<86.5 107.5>
VStem: 142 28<-121.5 -57.5 597 636.5>
LayerCount: 2
Fore
SplineSet
142 636 m 0
 142 673 126 714 89 714 c 0
 84 714 80 718 80 723 c 0
 80 728 84 733 89 733 c 0
 147 733 170 666 170 607 c 0
 170 524 108 455 108 374 c 0
 108 324 129 267 179 267 c 0
 184 267 188 262 188 257 c 0
 188 252 184 248 179 248 c 0
 128 248 104 192 108 141 c 0
 113 62 170 -8 170 -92 c 0
 170 -151 147 -218 89 -218 c 0
 84 -218 80 -214 80 -209 c 0
 80 -204 84 -200 89 -200 c 0
 130 -200 142 -149 142 -107 c 0
 142 -8 34 106 97 216 c 0
 107 234 121 248 139 257 c 1
 95 279 71 340 80 404 c 0
 92 487 142 558 142 636 c 0
EndSplineSet
Validated: 33
EndChar

StartChar: asciitilde
Encoding: 126 126 91
Width: 461
GlyphClass: 2
Flags: MW
HStem: 189 21<305 341 310 341 310 345> 221 20<305 341 310 341 310 345> 346 20<119 150 119 119> 377 20<119 119 119 150>
VStem: 47 21<199 200 200 261> 392 20<326 387>
LayerCount: 2
Fore
SplineSet
262 254 m 1
 275 238 l 1
 310 210 l 1
 341 210 l 1
 374 236 l 1
 375 243 l 1
 351 223 l 2
 349 222 347 221 345 221 c 2
 306 221 l 2
 304 221 302 222 300 223 c 2
 262 254 l 1
119 377 m 1
 86 350 l 1
 84 344 l 1
 109 364 l 2
 111 365 113 366 115 366 c 2
 153 366 l 2
 155 366 158 365 160 364 c 2
 197 333 l 1
 184 349 l 1
 150 377 l 1
 119 377 l 1
402 397 m 0
 408 397 412 393 412 387 c 2
 412 326 l 1
 412 325 l 1
 412 322 l 1
 393 229 l 2
 393 227 391 224 389 223 c 2
 351 192 l 2
 349 191 347 189 345 189 c 2
 306 189 l 2
 304 189 302 191 300 192 c 2
 262 223 l 1
 260 224 l 1
 184 317 l 1
 150 346 l 1
 119 346 l 1
 85 319 l 1
 68 261 l 1
 68 200 l 1
 68 199 l 2
 68 193 63 189 57 189 c 0
 51 189 47 193 47 199 c 2
 47 200 l 1
 47 261 l 1
 47 262 l 2
 47 263 48 263 48 264 c 2
 67 358 l 2
 67 360 68 363 70 364 c 2
 109 395 l 2
 111 396 113 397 115 397 c 2
 153 397 l 2
 155 397 158 396 160 395 c 2
 198 364 l 1
 199 362 l 1
 275 269 l 1
 310 241 l 1
 341 241 l 1
 374 268 l 1
 392 326 l 1
 392 387 l 2
 392 392 397 397 402 397 c 0
EndSplineSet
Validated: 1
EndChar

StartChar: uni0091
Encoding: 145 145 92
Width: 461
GlyphClass: 2
Flags: MW
HStem: -92 20<191.5 266 194 266 194 268> 64 21<191 226 195 226 195 229 195 230 195 231 195 249> 502 20<216 245 216 216> 627 20<194 194 194 266>
VStem: 9 20<232 324> 143 20<428 447 428 450 428 451> 316 39<232 355 355 355> 430 21<232 324 324 324>
LayerCount: 2
Fore
SplineSet
178 470 m 1
 163 447 l 1
 163 428 l 1
 165 428 l 1
 178 470 l 1
249 522 m 2
 252 522 254 521 256 519 c 2
 294 489 l 2
 295 488 296 487 296 486 c 0
 309 465 321 445 334 424 c 0
 334 423 335 422 335 421 c 2
 354 359 l 2
 354 358 355 357 355 356 c 2
 355 231 l 2
 355 230 354 229 354 228 c 2
 335 165 l 2
 335 164 334 164 334 163 c 2
 296 101 l 2
 296 100 295 99 294 98 c 2
 255 67 l 2
 253 66 251 64 249 64 c 2
 231 64 l 1
 230 64 l 1
 229 64 l 1
 192 64 l 2
 190 64 187 66 185 67 c 2
 147 98 l 2
 146 99 145 100 145 101 c 2
 125 132 l 2
 124 133 124 135 124 137 c 0
 124 143 128 147 134 147 c 0
 137 147 141 145 143 142 c 2
 161 113 l 1
 195 85 l 1
 226 85 l 1
 260 113 l 1
 297 172 l 1
 316 232 l 1
 316 355 l 1
 297 446 l 1
 280 474 l 1
 245 502 l 1
 216 502 l 1
 201 477 l 1
 182 415 l 2
 181 411 176 408 172 408 c 2
 153 408 l 2
 147 408 143 412 143 418 c 2
 143 450 l 2
 143 452 144 454 145 455 c 2
 164 486 l 2
 164 487 165 488 166 489 c 0
 179 499 192 515 207 521 c 0
 208 521 210 522 211 522 c 2
 248 522 l 1
 249 522 l 2
194 627 m 1
 140 597 l 1
 103 568 l 1
 67 508 l 1
 48 447 l 1
 29 324 l 1
 29 232 l 1
 48 108 l 1
 67 47 l 1
 122 -42 l 1
 194 -72 l 1
 266 -72 l 1
 338 -42 l 1
 393 47 l 1
 412 108 l 1
 430 232 l 1
 430 324 l 1
 412 447 l 1
 393 508 l 1
 356 568 l 1
 320 597 l 1
 266 627 l 1
 194 627 l 1
192 647 m 2
 268 647 l 2
 269 647 272 647 273 646 c 2
 330 615 l 1
 332 614 l 1
 370 582 l 2
 371 581 373 581 373 580 c 2
 411 517 l 2
 411 516 412 516 412 515 c 2
 431 452 l 1
 431 451 l 1
 450 326 l 1
 451 325 l 1
 451 231 l 1
 450 229 l 1
 431 104 l 1
 431 103 l 1
 412 40 l 2
 412 39 411 39 411 38 c 2
 353 -56 l 2
 352 -58 351 -59 349 -60 c 2
 272 -91 l 2
 271 -91 269 -92 268 -92 c 2
 192 -92 l 2
 191 -92 189 -91 188 -91 c 2
 111 -60 l 2
 109 -59 107 -58 106 -56 c 2
 49 38 l 2
 49 39 48 39 48 40 c 2
 29 103 l 1
 28 104 l 1
 9 229 l 1
 9 231 l 1
 9 325 l 1
 9 326 l 1
 28 451 l 1
 29 452 l 1
 48 515 l 2
 48 516 49 516 49 517 c 2
 87 580 l 2
 87 581 88 581 89 582 c 2
 127 613 l 2
 128 614 129 615 130 615 c 2
 187 646 l 2
 188 647 191 647 192 647 c 2
EndSplineSet
Validated: 1
EndChar

StartChar: dieresis
Encoding: 168 168 93
Width: 288
GlyphClass: 2
Flags: MW
HStem: 533 83<94 98 190 193.5>
VStem: 66 59<574 575.5 573.5 576.5> 162 59<574 576>
LayerCount: 2
Fore
SplineSet
191 616 m 0
 196 616 200 613 201 610 c 2
 218 581 l 2
 219 579 221 578 221 575 c 0
 221 573 220 570 219 568 c 2
 201 539 l 2
 199 536 196 533 192 533 c 0
 188 533 184 536 182 539 c 2
 165 568 l 2
 163 570 162 572 162 575 c 0
 162 577 164 579 165 581 c 2
 182 610 l 2
 183 613 187 616 191 616 c 0
96 616 m 0
 101 616 104 613 105 610 c 2
 123 581 l 2
 124 580 124 580 124 579 c 0
 125 578 125 576 125 575 c 0
 125 572 124 570 122 568 c 2
 105 539 l 2
 103 536 100 533 96 533 c 0
 92 533 89 536 87 539 c 2
 69 568 l 2
 68 570 66 573 66 575 c 0
 66 578 68 580 69 581 c 2
 86 610 l 2
 87 613 92 616 96 616 c 0
EndSplineSet
Validated: 1
EndChar

StartChar: copyright
Encoding: 169 169 94
Width: 461
GlyphClass: 2
Flags: MW
HStem: -92 20<191.5 266 194 266 194 268> 64 21<211 265 229 265 230 265 233 265 233 268> 502 20<214 243 214 214> 627 20<194 194 194 266>
VStem: 9 20<232 324> 105 39<228 355 232 355 232 356 232 359 232 359> 296 21<428 447 447 447> 430 21<232 324 324 324>
LayerCount: 2
Fore
SplineSet
282 470 m 1
 295 428 l 1
 296 428 l 1
 296 447 l 1
 282 470 l 1
211 522 m 2
 212 522 l 1
 249 522 l 2
 252 522 253 521 255 520 c 2
 294 489 l 2
 295 488 296 487 296 486 c 2
 315 455 l 2
 316 454 317 452 317 450 c 2
 317 418 l 2
 317 412 312 408 306 408 c 2
 287 408 l 2
 283 408 279 411 278 415 c 2
 259 477 l 1
 243 502 l 1
 214 502 l 1
 180 474 l 1
 163 446 l 1
 144 355 l 1
 144 232 l 1
 162 172 l 1
 199 113 l 1
 233 85 l 1
 265 85 l 1
 299 113 l 1
 317 142 l 2
 319 145 323 147 326 147 c 0
 332 147 336 143 336 137 c 0
 336 135 335 133 334 132 c 2
 315 101 l 2
 315 100 314 99 313 98 c 2
 275 67 l 2
 273 66 270 64 268 64 c 2
 231 64 l 1
 230 64 l 1
 229 64 l 1
 211 64 l 2
 209 64 206 66 204 67 c 2
 166 98 l 2
 165 99 164 100 164 101 c 2
 125 163 l 2
 125 164 124 164 124 165 c 2
 105 228 l 1
 105 231 l 1
 105 356 l 1
 105 359 l 1
 124 421 l 2
 124 422 125 423 125 424 c 0
 138 445 151 465 164 486 c 0
 164 487 165 488 166 489 c 2
 203 519 l 2
 205 521 208 522 211 522 c 2
194 627 m 1
 140 597 l 1
 103 568 l 1
 67 508 l 1
 48 447 l 1
 29 324 l 1
 29 232 l 1
 48 108 l 1
 67 47 l 1
 122 -42 l 1
 194 -72 l 1
 266 -72 l 1
 338 -42 l 1
 393 47 l 1
 412 108 l 1
 430 232 l 1
 430 324 l 1
 412 447 l 1
 393 508 l 1
 356 568 l 1
 320 597 l 1
 266 627 l 1
 194 627 l 1
192 647 m 2
 268 647 l 2
 269 647 272 647 273 646 c 2
 330 615 l 2
 331 614 332 614 333 613 c 2
 370 582 l 2
 371 581 373 581 373 580 c 2
 411 517 l 2
 411 516 412 516 412 515 c 2
 431 452 l 1
 431 451 l 1
 450 326 l 1
 451 325 l 1
 451 231 l 1
 450 229 l 1
 431 104 l 1
 431 103 l 1
 412 40 l 2
 412 39 411 39 411 38 c 2
 353 -56 l 2
 352 -58 351 -59 349 -60 c 2
 272 -91 l 2
 271 -91 269 -92 268 -92 c 2
 192 -92 l 2
 191 -92 189 -91 188 -91 c 2
 111 -60 l 2
 109 -59 107 -58 106 -56 c 2
 49 38 l 2
 49 39 48 39 48 40 c 2
 29 103 l 1
 28 104 l 1
 9 229 l 1
 9 231 l 1
 9 325 l 1
 9 326 l 1
 28 451 l 1
 29 452 l 1
 48 515 l 2
 48 516 49 516 49 517 c 2
 87 580 l 2
 87 581 88 581 89 582 c 2
 128 614 l 1
 129 615 l 1
 187 646 l 2
 188 647 191 647 192 647 c 2
EndSplineSet
Validated: 1
EndChar

StartChar: guillemotleft
Encoding: 171 171 95
Width: 306
GlyphClass: 2
Flags: MW
HStem: 2 21G<153 154 153 153 267 268 267 267 268 269>
VStem: 144 19<8 12> 259 19<8 12>
LayerCount: 2
Fore
SplineSet
267 460 m 0
 273 461 278 456 278 450 c 2
 278 448 l 1
 278 446 l 1
 202 231 l 1
 278 16 l 1
 278 12 l 2
 278 6 275 2 269 2 c 2
 268 2 l 1
 267 2 l 2
 263 3 260 5 259 8 c 2
 211 117 l 1
 145 224 l 2
 144 225 143 228 143 231 c 0
 143 233 144 235 145 237 c 2
 211 345 l 1
 259 453 l 2
 260 456 263 459 267 460 c 0
152 460 m 0
 158 461 163 456 163 450 c 2
 163 446 l 1
 87 231 l 1
 163 16 l 1
 163 12 l 2
 163 6 160 2 154 2 c 2
 153 2 l 2
 149 3 145 5 144 8 c 2
 96 117 l 1
 31 224 l 2
 30 226 28 228 28 231 c 0
 28 233 29 235 30 237 c 2
 96 345 l 1
 144 453 l 2
 145 456 148 459 152 460 c 0
EndSplineSet
Validated: 1
EndChar

StartChar: acute
Encoding: 180 180 96
Width: 228
GlyphClass: 2
Flags: MW
HStem: 471 208<54 175>
VStem: 163 19
LayerCount: 2
Fore
SplineSet
57 471 m 0
 51 471 47 475 47 481 c 0
 47 483 49 485 50 487 c 2
 125 590 l 1
 163 672 l 2
 164 676 167 679 172 679 c 0
 178 679 182 674 182 668 c 2
 182 606 l 2
 182 603 181 600 179 598 c 2
 123 537 l 1
 122 536 l 2
 103 515 84 495 65 474 c 0
 63 472 60 471 57 471 c 0
EndSplineSet
Validated: 1
EndChar

StartChar: cedilla
Encoding: 184 184 97
Width: 345
GlyphClass: 2
Flags: MW
HStem: -123 52<169 193.5>
VStem: 162 59<-83 -81 -83 -79>
LayerCount: 2
Fore
SplineSet
211 22 m 0
 217 22 221 18 221 12 c 0
 221 9 219 6 217 4 c 2
 186 -21 l 1
 197 -39 208 -58 219 -76 c 0
 220 -77 221 -80 221 -82 c 0
 221 -84 220 -86 219 -87 c 2
 200 -118 l 2
 198 -121 195 -123 192 -123 c 0
 189 -123 185 -121 183 -118 c 2
 164 -87 l 2
 163 -86 162 -84 162 -82 c 0
 162 -76 166 -71 172 -71 c 0
 175 -71 179 -73 181 -76 c 2
 192 -94 l 1
 199 -82 l 1
 187 -63 176 -43 164 -24 c 0
 163 -23 162 -21 162 -19 c 0
 162 -16 164 -13 166 -11 c 2
 204 20 l 2
 205 21 209 22 211 22 c 0
EndSplineSet
Validated: 1
EndChar

StartChar: guillemotright
Encoding: 187 187 98
Width: 306
GlyphClass: 2
Flags: MW
HStem: 2 21G<35 38 38 39 150 153 153 154> 440 20G<38 39 39 41 153 154 154 154.5>
VStem: 28 20<8 12.5> 143 20<8 12.5>
LayerCount: 2
Fore
SplineSet
143 450 m 0
 143 455 147 460 153 460 c 2
 154 460 l 2
 155 460 156 459 157 459 c 0
 160 458 161 457 162 454 c 0
 178 418 194 381 210 345 c 1
 276 237 l 2
 277 235 278 233 278 231 c 0
 278 228 277 225 276 224 c 2
 210 117 l 1
 163 8 l 2
 162 4 158 3 154 2 c 2
 153 2 l 2
 147 2 143 6 143 12 c 0
 143 13 144 14 144 15 c 2
 219 231 l 1
 144 446 l 2
 144 447 143 449 143 450 c 0
28 450 m 0
 28 455 32 460 38 460 c 2
 39 460 l 2
 43 460 47 457 48 454 c 0
 64 418 79 381 95 345 c 1
 161 237 l 2
 162 235 163 233 163 231 c 0
 163 228 162 225 161 224 c 2
 95 117 l 1
 48 8 l 2
 47 5 43 3 39 2 c 2
 38 2 l 2
 32 2 28 6 28 12 c 0
 28 13 29 14 29 15 c 2
 104 231 l 1
 29 446 l 2
 29 447 28 449 28 450 c 0
EndSplineSet
Validated: 1
EndChar

StartChar: Agrave
Encoding: 192 192 99
Width: 419
GlyphClass: 2
Flags: MW
HStem: 12 20<17 17 17 19 17 56 70 96 334 364> 12 57<16 57 28 56 56 57 28 59 28 96> 45 20<73 77> 189 21<107 257 107 261 102 257> 659 20G<192 194.5> 771 208<75 193>
VStem: 65 136<778 968>
LayerCount: 2
Fore
SplineSet
65 968 m 2x06
 65 974 69 978 75 978 c 1
 75 979 l 1
 80 979 84 976 85 972 c 2
 122 890 l 1
 198 787 l 2
 199 785 201 783 201 781 c 0
 201 775 196 771 190 771 c 0
 187 771 185 772 183 774 c 2
 126 836 l 1
 125 837 l 1
 69 898 l 2
 67 900 65 902 65 906 c 2
 65 968 l 2x06
73 45 m 1xb8
 70 32 l 1
 96 32 l 2
 104 32 109 33 114 33 c 1
 103 38 88 42 73 45 c 1xb8
331 47 m 1
 333 35 l 2
 333 34 334 33 334 32 c 2
 364 32 l 2
 372 32 378 33 384 33 c 1
 369 39 349 44 331 47 c 1
48 49 m 2
 49 48 51 48 52 47 c 2
 53 49 l 1
 48 49 l 2
182 572 m 1
 107 210 l 1
 257 210 l 1
 182 572 l 1
191 678 m 2
 192 679 l 2
 197 679 201 675 202 670 c 2
 326 68 l 1
 347 65 370 59 388 53 c 0
 400 49 423 43 418 26 c 0
 416 19 410 17 406 16 c 0
 397 13 385 12 364 12 c 2
 327 12 l 1
 326 12 l 1
 324 12 l 1
 309 12 l 1
 307 12 l 1
 304 12 l 1
 268 12 l 2
 262 12 258 16 258 22 c 0
 258 26 262 31 266 32 c 2x98
 291 38 l 1
 284 43 274 47 276 58 c 0
 277 64 281 68 286 69 c 1x58
 261 189 l 1
 102 189 l 1
 77 65 l 1
 100 60 137 53 146 35 c 0
 151 25 141 18 135 16 c 0
 126 13 115 12 96 12 c 2
 59 12 l 1xb8
 57 12 l 1
 56 12 l 1x58
 19 12 l 2
 13 12 9 16 9 22 c 0
 9 26 13 31 17 32 c 2x98
 32 35 l 1
 23 41 4 62 28 69 c 0
 37 72 47 70 57 69 c 1x58
 182 670 l 2
 183 675 186 678 191 678 c 2
EndSplineSet
Validated: 33
EndChar

StartChar: Aacute
Encoding: 193 193 100
Width: 419
GlyphClass: 2
Flags: MW
HStem: 12 20<17 17 17 19 17 56 70 96 334 364> 12 57<16 57 28 56 56 57 28 59 28 96> 45 20<73 77> 189 21<107 257 107 261 102 257> 659 20G<192 194.5> 771 208<189 310>
VStem: 298 19
LayerCount: 2
Fore
SplineSet
192 771 m 0x06
 186 771 182 775 182 781 c 0
 182 783 184 785 185 787 c 2
 260 890 l 1
 298 972 l 2
 299 976 302 979 307 979 c 0
 313 979 317 974 317 968 c 2
 317 906 l 2
 317 903 316 900 314 898 c 2
 258 837 l 1
 257 836 l 2
 238 815 219 795 200 774 c 0
 198 772 195 771 192 771 c 0x06
73 45 m 1xb8
 70 32 l 1
 96 32 l 2
 104 32 109 33 114 33 c 1
 103 38 88 42 73 45 c 1xb8
331 47 m 1
 333 35 l 2
 333 34 334 33 334 32 c 2
 364 32 l 2
 372 32 378 33 384 33 c 1
 369 39 349 44 331 47 c 1
48 49 m 2
 49 48 51 48 52 47 c 2
 53 49 l 1
 48 49 l 2
182 572 m 1
 107 210 l 1
 257 210 l 1
 182 572 l 1
191 678 m 2
 192 679 l 2
 197 679 201 675 202 670 c 2
 326 68 l 1
 347 65 370 59 388 53 c 0
 400 49 423 43 418 26 c 0
 416 19 410 17 406 16 c 0
 397 13 385 12 364 12 c 2
 327 12 l 1
 326 12 l 1
 324 12 l 1
 309 12 l 1
 307 12 l 1
 304 12 l 1
 268 12 l 2
 262 12 258 16 258 22 c 0
 258 26 262 31 266 32 c 2x98
 291 38 l 1
 284 43 274 47 276 58 c 0
 277 64 281 68 286 69 c 1x58
 261 189 l 1
 102 189 l 1
 77 65 l 1
 100 60 137 53 146 35 c 0
 151 25 141 18 135 16 c 0
 126 13 115 12 96 12 c 2
 59 12 l 1xb8
 57 12 l 1
 56 12 l 1x58
 19 12 l 2
 13 12 9 16 9 22 c 0
 9 26 13 31 17 32 c 2x98
 32 35 l 1
 23 41 4 62 28 69 c 0
 37 72 47 70 57 69 c 1x58
 182 670 l 2
 183 675 186 678 191 678 c 2
EndSplineSet
Validated: 33
EndChar

StartChar: Acircumflex
Encoding: 194 194 101
Width: 419
GlyphClass: 2
Flags: MW
HStem: 12 20<17 17 17 19 17 56 70 96 334 364> 12 57<16 57 28 56 56 57 28 59 28 96> 45 20<73 77> 189 21<107 257 107 261 102 257> 659 20G<192 194.5> 771 207<54 192 190 329>
VStem: 47 289<778 782>
LayerCount: 2
Fore
SplineSet
57 771 m 0x06
 51 771 47 775 47 781 c 0
 47 783 49 786 50 788 c 2
 116 865 l 1
 182 972 l 2
 183 975 188 978 192 978 c 1
 192 979 l 1
 196 979 200 976 201 973 c 2
 267 865 l 1
 333 788 l 2
 335 786 336 784 336 781 c 0
 336 775 332 771 326 771 c 0
 323 771 321 772 319 774 c 2
 192 892 l 1
 65 774 l 2
 63 772 59 771 57 771 c 0x06
73 45 m 1xb8
 70 32 l 1
 96 32 l 2
 104 32 109 33 114 33 c 1
 103 38 88 42 73 45 c 1xb8
331 47 m 1
 333 35 l 2
 333 34 334 33 334 32 c 2
 364 32 l 2
 372 32 378 33 384 33 c 1
 369 39 349 44 331 47 c 1
48 49 m 2
 49 48 51 48 52 47 c 2
 53 49 l 1
 48 49 l 2
182 572 m 1
 107 210 l 1
 257 210 l 1
 182 572 l 1
191 678 m 2
 192 679 l 2
 197 679 201 675 202 670 c 2
 326 68 l 1
 347 65 370 59 388 53 c 0
 400 49 423 43 418 26 c 0
 416 19 410 17 406 16 c 0
 397 13 385 12 364 12 c 2
 327 12 l 1
 326 12 l 1
 324 12 l 1
 309 12 l 1
 307 12 l 1
 304 12 l 1
 268 12 l 2
 262 12 258 16 258 22 c 0
 258 26 262 31 266 32 c 2x98
 291 38 l 1
 284 43 274 47 276 58 c 0
 277 64 281 68 286 69 c 1x58
 261 189 l 1
 102 189 l 1
 77 65 l 1
 100 60 137 53 146 35 c 0
 151 25 141 18 135 16 c 0
 126 13 115 12 96 12 c 2
 59 12 l 1xb8
 57 12 l 1
 56 12 l 1x58
 19 12 l 2
 13 12 9 16 9 22 c 0
 9 26 13 31 17 32 c 2x98
 32 35 l 1
 23 41 4 62 28 69 c 0
 37 72 47 70 57 69 c 1x58
 182 670 l 2
 183 675 186 678 191 678 c 2
EndSplineSet
Validated: 33
EndChar

StartChar: Atilde
Encoding: 195 195 102
Width: 419
GlyphClass: 2
Flags: MW
HStem: 12 20<17 17 17 19 17 56 70 96 334 364> 12 57<16 57 28 56 56 57 28 59 28 96> 45 20<73 77> 189 21<107 257 107 261 102 257> 659 20G<192 194.5> 771 21<267 303 272 303 272 307> 803 20<267 303 272 303 272 307> 928 20<81 112 81 81> 959 20<81 81 81 112>
VStem: 9 21<781 782 782 843> 354 20<908 969>
LayerCount: 2
Fore
SplineSet
224 836 m 1x07e0
 237 820 l 1
 272 792 l 1
 303 792 l 1
 336 818 l 1
 337 825 l 1
 313 805 l 2
 311 804 309 803 307 803 c 2
 268 803 l 2
 266 803 264 804 262 805 c 2
 224 836 l 1x07e0
81 959 m 1
 48 932 l 1
 46 926 l 1
 71 946 l 2
 73 947 75 948 77 948 c 2
 115 948 l 2
 117 948 120 947 122 946 c 2
 159 915 l 1
 146 931 l 1
 112 959 l 1
 81 959 l 1
364 979 m 0
 370 979 374 975 374 969 c 2
 374 908 l 1
 374 907 l 1
 374 904 l 1
 355 811 l 2
 355 809 353 806 351 805 c 2
 313 774 l 2
 311 773 309 771 307 771 c 2
 268 771 l 2
 266 771 264 773 262 774 c 2
 224 805 l 1
 222 806 l 1
 146 899 l 1
 112 928 l 1
 81 928 l 1
 47 901 l 1
 30 843 l 1
 30 782 l 1
 30 781 l 2
 30 775 25 771 19 771 c 0
 13 771 9 775 9 781 c 2
 9 782 l 1
 9 843 l 1
 9 844 l 2
 9 845 10 845 10 846 c 2
 29 940 l 2
 29 942 30 945 32 946 c 2
 71 977 l 2
 73 978 75 979 77 979 c 2
 115 979 l 2
 117 979 120 978 122 977 c 2
 160 946 l 1
 161 944 l 1
 237 851 l 1
 272 823 l 1
 303 823 l 1
 336 850 l 1
 354 908 l 1
 354 969 l 2
 354 974 359 979 364 979 c 0
73 45 m 1xb8
 70 32 l 1
 96 32 l 2
 104 32 109 33 114 33 c 1
 103 38 88 42 73 45 c 1xb8
331 47 m 1
 333 35 l 2
 333 34 334 33 334 32 c 2
 364 32 l 2
 372 32 378 33 384 33 c 1
 369 39 349 44 331 47 c 1
48 49 m 2
 49 48 51 48 52 47 c 2
 53 49 l 1
 48 49 l 2
182 572 m 1
 107 210 l 1
 257 210 l 1
 182 572 l 1
191 678 m 2
 192 679 l 2
 197 679 201 675 202 670 c 2
 326 68 l 1
 347 65 370 59 388 53 c 0
 400 49 423 43 418 26 c 0
 416 19 410 17 406 16 c 0
 397 13 385 12 364 12 c 2
 327 12 l 1
 326 12 l 1
 324 12 l 1
 309 12 l 1
 307 12 l 1
 304 12 l 1
 268 12 l 2
 262 12 258 16 258 22 c 0
 258 26 262 31 266 32 c 2x98
 291 38 l 1
 284 43 274 47 276 58 c 0
 277 64 281 68 286 69 c 1x58
 261 189 l 1
 102 189 l 1
 77 65 l 1
 100 60 137 53 146 35 c 0
 151 25 141 18 135 16 c 0
 126 13 115 12 96 12 c 2
 59 12 l 1xb8
 57 12 l 1
 56 12 l 1x58
 19 12 l 2
 13 12 9 16 9 22 c 0
 9 26 13 31 17 32 c 2x98
 32 35 l 1
 23 41 4 62 28 69 c 0
 37 72 47 70 57 69 c 1x58
 182 670 l 2
 183 675 186 678 191 678 c 2
EndSplineSet
Validated: 33
EndChar

StartChar: Adieresis
Encoding: 196 196 103
Width: 419
GlyphClass: 2
Flags: MW
HStem: 12 20<17 17 17 19 17 56 70 96 334 364> 12 57<16 57 28 56 56 57 28 59 28 96> 45 20<73 77> 189 21<107 257 107 261 102 257> 659 20G<192 194.5> 771 83<142 146 238 241.5>
VStem: 114 59<812 813.5 811.5 814.5> 210 59<812 814>
LayerCount: 2
Fore
SplineSet
239 854 m 0x07
 244 854 248 851 249 848 c 2
 266 819 l 2
 267 817 269 816 269 813 c 0
 269 811 268 808 267 806 c 2
 249 777 l 2
 247 774 244 771 240 771 c 0
 236 771 232 774 230 777 c 2
 213 806 l 2
 211 808 210 810 210 813 c 0
 210 815 212 817 213 819 c 2
 230 848 l 2
 231 851 235 854 239 854 c 0x07
144 854 m 0
 149 854 152 851 153 848 c 2
 171 819 l 2
 172 818 172 818 172 817 c 0
 173 816 173 814 173 813 c 0
 173 810 172 808 170 806 c 2
 153 777 l 2
 151 774 148 771 144 771 c 0
 140 771 137 774 135 777 c 2
 117 806 l 2
 116 808 114 811 114 813 c 0
 114 816 116 818 117 819 c 2
 134 848 l 2
 135 851 140 854 144 854 c 0
73 45 m 1xb8
 70 32 l 1
 96 32 l 2
 104 32 109 33 114 33 c 1
 103 38 88 42 73 45 c 1xb8
331 47 m 1
 333 35 l 2
 333 34 334 33 334 32 c 2
 364 32 l 2
 372 32 378 33 384 33 c 1
 369 39 349 44 331 47 c 1
48 49 m 2
 49 48 51 48 52 47 c 2
 53 49 l 1
 48 49 l 2
182 572 m 1
 107 210 l 1
 257 210 l 1
 182 572 l 1
191 678 m 2
 192 679 l 2
 197 679 201 675 202 670 c 2
 326 68 l 1
 347 65 370 59 388 53 c 0
 400 49 423 43 418 26 c 0
 416 19 410 17 406 16 c 0
 397 13 385 12 364 12 c 2
 327 12 l 1
 326 12 l 1
 324 12 l 1
 309 12 l 1
 307 12 l 1
 304 12 l 1
 268 12 l 2
 262 12 258 16 258 22 c 0
 258 26 262 31 266 32 c 2x98
 291 38 l 1
 284 43 274 47 276 58 c 0
 277 64 281 68 286 69 c 1x58
 261 189 l 1
 102 189 l 1
 77 65 l 1
 100 60 137 53 146 35 c 0
 151 25 141 18 135 16 c 0
 126 13 115 12 96 12 c 2
 59 12 l 1xb8
 57 12 l 1
 56 12 l 1x58
 19 12 l 2
 13 12 9 16 9 22 c 0
 9 26 13 31 17 32 c 2x98
 32 35 l 1
 23 41 4 62 28 69 c 0
 37 72 47 70 57 69 c 1x58
 182 670 l 2
 183 675 186 678 191 678 c 2
EndSplineSet
Validated: 33
EndChar

StartChar: Ccedilla
Encoding: 199 199 104
Width: 422
GlyphClass: 2
Flags: MW
HStem: -139 52<190 214.5> 95 59<382 382>
VStem: 28 40<321.5 412 321.5 419.5> 183 59<-99 -97 -99 -95> 373 20<533.5 536>
LayerCount: 2
Fore
SplineSet
232 6 m 0
 238 6 242 2 242 -4 c 0
 242 -7 240 -10 238 -12 c 2
 207 -37 l 1
 218 -55 229 -74 240 -92 c 0
 241 -93 242 -96 242 -98 c 0
 242 -100 241 -102 240 -103 c 2
 221 -134 l 2
 219 -137 216 -139 213 -139 c 0
 210 -139 206 -137 204 -134 c 2
 185 -103 l 2
 184 -102 183 -100 183 -98 c 0
 183 -92 187 -87 193 -87 c 0
 196 -87 200 -89 202 -92 c 2
 213 -110 l 1
 220 -98 l 1
 208 -79 197 -59 185 -40 c 0
 184 -39 183 -37 183 -35 c 0
 183 -32 185 -29 187 -27 c 2
 225 4 l 2
 226 5 230 6 232 6 c 0
86 177 m 1
 107 97 150 30 231 22 c 0
 284 17 330 43 355 86 c 1
 252 59 148 100 86 177 c 1
229 678 m 0
 241 679 254 679 265 677 c 0
 322 670 370 633 392 578 c 0
 392 577 393 576 393 575 c 2
 393 536 l 2
 393 530 389 526 383 526 c 0
 378 526 373 531 373 536 c 0
 370 606 311 666 231 658 c 0
 102 645 68 484 68 340 c 0
 68 303 70 265 75 229 c 1
 127 127 249 72 366 111 c 1
 369 122 372 133 373 145 c 0
 373 150 378 154 383 154 c 0
 389 154 393 150 393 144 c 2
 393 106 l 2
 393 99 388 97 382 95 c 1
 358 35 297 -5 229 2 c 0
 121 13 73 115 56 224 c 1
 39 259 28 298 28 340 c 0
 28 499 84 664 229 678 c 0
EndSplineSet
Validated: 37
EndChar

StartChar: Egrave
Encoding: 200 200 105
Width: 362
GlyphClass: 2
Flags: MW
HStem: 12 20<36 36 36 38 36 75 106 134 134 138 187 303> 12 49<97 348 305 348 306 348 308 348> 46 21<106 106> 346 20<106 261 106 261> 648 20<36 75 106 298 106 106> 771 208<-30 88>
VStem: -40 136 67 39<70 346 366 641 641 641> 278 19<290 293> 316 20<562 562>
LayerCount: 2
Fore
SplineSet
-40 968 m 2x06
 -40 974 -36 978 -30 978 c 1
 -30 979 l 1
 -25 979 -21 976 -20 972 c 2
 17 890 l 1
 93 787 l 2
 94 785 96 783 96 781 c 0
 96 775 91 771 85 771 c 0
 82 771 80 772 78 774 c 2
 21 836 l 1
 20 837 l 1
 -36 898 l 2
 -38 900 -40 902 -40 906 c 2
 -40 968 l 2x06
106 46 m 1xb9c0
 106 33 l 1
 106 32 l 1
 134 32 l 2
 142 32 148 33 153 33 c 1
 140 38 122 43 106 46 c 1xb9c0
305 668 m 1
 306 668 l 1
 308 668 l 1
 326 668 l 2
 332 668 336 664 336 658 c 2
 336 564 l 2
 336 558 332 554 326 554 c 0
 321 554 317 558 316 562 c 2
 298 648 l 1
 106 648 l 1
 106 366 l 1
 261 366 l 1
 278 421 l 2
 279 425 283 428 287 428 c 0
 293 428 297 424 297 418 c 2
 297 357 l 1
 298 356 l 1
 297 354 l 1
 297 293 l 2
 297 287 293 283 287 283 c 0
 283 283 279 286 278 290 c 2
 261 346 l 1
 106 346 l 1
 106 67 l 1
 131 62 182 55 187 32 c 1
 303 32 l 1xb9c0
 339 59 l 2
 341 60 343 61 345 61 c 0x59c0
 351 61 355 57 355 51 c 0
 355 49 354 47 353 46 c 2x39c0
 334 17 l 2
 332 14 329 12 326 12 c 2x59c0
 308 12 l 1
 306 12 l 1
 305 12 l 1
 97 12 l 1
 96 12 l 1
 94 12 l 1
 78 12 l 1
 77 12 l 1
 75 12 l 1
 38 12 l 2
 32 12 28 16 28 22 c 0
 28 26 32 31 36 32 c 2
 64 38 l 1
 58 43 49 47 51 58 c 0
 52 66 59 69 67 70 c 1
 67 641 l 1
 36 648 l 2
 32 649 28 654 28 658 c 0
 28 664 32 668 38 668 c 2
 75 668 l 1
 76 668 l 1
 77 668 l 1
 78 668 l 1
 94 668 l 1
 96 668 l 1
 97 668 l 1
 305 668 l 1
EndSplineSet
Validated: 1
EndChar

StartChar: Eacute
Encoding: 201 201 106
Width: 362
GlyphClass: 2
Flags: MW
HStem: 12 20<36 36 36 38 36 75 106 134 134 138 187 303> 12 49<97 348 305 348 306 348 308 348> 46 21<106 106> 346 20<106 261 106 261> 648 20<36 75 106 298 106 106> 771 208<84 205>
VStem: 67 39<70 346 366 641 641 641> 193 19 278 19<290 293> 316 20<562 562>
LayerCount: 2
Fore
SplineSet
87 771 m 0x05
 81 771 77 775 77 781 c 0
 77 783 79 785 80 787 c 2
 155 890 l 1
 193 972 l 2
 194 976 197 979 202 979 c 0
 208 979 212 974 212 968 c 2
 212 906 l 2
 212 903 211 900 209 898 c 2
 153 837 l 1
 152 836 l 2
 133 815 114 795 95 774 c 0
 93 772 90 771 87 771 c 0x05
106 46 m 1xbac0
 106 33 l 1
 106 32 l 1
 134 32 l 2
 142 32 148 33 153 33 c 1
 140 38 122 43 106 46 c 1xbac0
305 668 m 1
 306 668 l 1
 308 668 l 1
 326 668 l 2
 332 668 336 664 336 658 c 2
 336 564 l 2
 336 558 332 554 326 554 c 0
 321 554 317 558 316 562 c 2
 298 648 l 1
 106 648 l 1
 106 366 l 1
 261 366 l 1
 278 421 l 2
 279 425 283 428 287 428 c 0
 293 428 297 424 297 418 c 2
 297 357 l 1
 298 356 l 1
 297 354 l 1
 297 293 l 2
 297 287 293 283 287 283 c 0
 283 283 279 286 278 290 c 2
 261 346 l 1
 106 346 l 1
 106 67 l 1
 131 62 182 55 187 32 c 1
 303 32 l 1xbac0
 339 59 l 2
 341 60 343 61 345 61 c 0x5ac0
 351 61 355 57 355 51 c 0
 355 49 354 47 353 46 c 2x3ac0
 334 17 l 2
 332 14 329 12 326 12 c 2x5ac0
 308 12 l 1
 306 12 l 1
 305 12 l 1
 97 12 l 1
 96 12 l 1
 94 12 l 1
 78 12 l 1
 77 12 l 1
 75 12 l 1
 38 12 l 2
 32 12 28 16 28 22 c 0
 28 26 32 31 36 32 c 2
 64 38 l 1
 58 43 49 47 51 58 c 0
 52 66 59 69 67 70 c 1
 67 641 l 1
 36 648 l 2
 32 649 28 654 28 658 c 0
 28 664 32 668 38 668 c 2
 75 668 l 1
 76 668 l 1
 77 668 l 1
 78 668 l 1
 94 668 l 1
 96 668 l 1
 97 668 l 1
 305 668 l 1
EndSplineSet
Validated: 1
EndChar

StartChar: Ecircumflex
Encoding: 202 202 107
Width: 362
GlyphClass: 2
Flags: MW
HStem: 12 20<36 36 36 38 36 75 106 134 134 138 187 303> 12 49<97 348 305 348 306 348 308 348> 46 21<106 106> 346 20<106 261 106 261> 648 20<36 75 106 298 106 106> 771 207<-52 86 84 223>
VStem: -59 289<778 782> 67 39<70 346 366 641 641 641> 278 19<290 293> 316 20<562 562>
LayerCount: 2
Fore
SplineSet
-49 771 m 0x06
 -55 771 -59 775 -59 781 c 0
 -59 783 -57 786 -56 788 c 2
 10 865 l 1
 76 972 l 2
 77 975 82 978 86 978 c 1
 86 979 l 1
 90 979 94 976 95 973 c 2
 161 865 l 1
 227 788 l 2
 229 786 230 784 230 781 c 0
 230 775 226 771 220 771 c 0
 217 771 215 772 213 774 c 2
 86 892 l 1
 -41 774 l 2
 -43 772 -47 771 -49 771 c 0x06
106 46 m 1xb9c0
 106 33 l 1
 106 32 l 1
 134 32 l 2
 142 32 148 33 153 33 c 1
 140 38 122 43 106 46 c 1xb9c0
305 668 m 1
 306 668 l 1
 308 668 l 1
 326 668 l 2
 332 668 336 664 336 658 c 2
 336 564 l 2
 336 558 332 554 326 554 c 0
 321 554 317 558 316 562 c 2
 298 648 l 1
 106 648 l 1
 106 366 l 1
 261 366 l 1
 278 421 l 2
 279 425 283 428 287 428 c 0
 293 428 297 424 297 418 c 2
 297 357 l 1
 298 356 l 1
 297 354 l 1
 297 293 l 2
 297 287 293 283 287 283 c 0
 283 283 279 286 278 290 c 2
 261 346 l 1
 106 346 l 1
 106 67 l 1
 131 62 182 55 187 32 c 1
 303 32 l 1xb9c0
 339 59 l 2
 341 60 343 61 345 61 c 0x59c0
 351 61 355 57 355 51 c 0
 355 49 354 47 353 46 c 2x39c0
 334 17 l 2
 332 14 329 12 326 12 c 2x59c0
 308 12 l 1
 306 12 l 1
 305 12 l 1
 97 12 l 1
 96 12 l 1
 94 12 l 1
 78 12 l 1
 77 12 l 1
 75 12 l 1
 38 12 l 2
 32 12 28 16 28 22 c 0
 28 26 32 31 36 32 c 2
 64 38 l 1
 58 43 49 47 51 58 c 0
 52 66 59 69 67 70 c 1
 67 641 l 1
 36 648 l 2
 32 649 28 654 28 658 c 0
 28 664 32 668 38 668 c 2
 75 668 l 1
 76 668 l 1
 77 668 l 1
 78 668 l 1
 94 668 l 1
 96 668 l 1
 97 668 l 1
 305 668 l 1
EndSplineSet
Validated: 1
EndChar

StartChar: Edieresis
Encoding: 203 203 108
Width: 362
GlyphClass: 2
Flags: MW
HStem: 12 20<36 36 36 38 36 75 106 134 134 138 187 303> 12 49<97 348 305 348 306 348 308 348> 46 21<106 106> 346 20<106 261 106 261> 648 20<36 75 106 298 106 106> 771 83<36 40 132 135.5>
VStem: 8 59<812 813.5> 67 39<70 346 366 641 641 641> 104 59<812 814> 278 19<290 293> 316 20<562 562>
LayerCount: 2
Fore
SplineSet
133 854 m 0x0680
 138 854 142 851 143 848 c 2
 160 819 l 2
 161 817 163 816 163 813 c 0
 163 811 162 808 161 806 c 2
 143 777 l 2
 141 774 138 771 134 771 c 0
 130 771 126 774 124 777 c 2
 107 806 l 2
 105 808 104 810 104 813 c 0
 104 815 106 817 107 819 c 2
 124 848 l 2
 125 851 129 854 133 854 c 0x0680
38 854 m 0
 43 854 46 851 47 848 c 2
 65 819 l 2
 66 818 66 818 66 817 c 0
 67 816 67 814 67 813 c 0
 67 810 66 808 64 806 c 2
 47 777 l 2
 45 774 42 771 38 771 c 0
 34 771 31 774 29 777 c 2
 11 806 l 2
 10 808 8 811 8 813 c 0
 8 816 10 818 11 819 c 2
 28 848 l 2
 29 851 34 854 38 854 c 0
106 46 m 1xb960
 106 33 l 1
 106 32 l 1
 134 32 l 2
 142 32 148 33 153 33 c 1
 140 38 122 43 106 46 c 1xb960
305 668 m 1
 306 668 l 1
 308 668 l 1
 326 668 l 2
 332 668 336 664 336 658 c 2
 336 564 l 2
 336 558 332 554 326 554 c 0
 321 554 317 558 316 562 c 2
 298 648 l 1
 106 648 l 1
 106 366 l 1
 261 366 l 1
 278 421 l 2
 279 425 283 428 287 428 c 0
 293 428 297 424 297 418 c 2
 297 357 l 1
 298 356 l 1
 297 354 l 1
 297 293 l 2
 297 287 293 283 287 283 c 0
 283 283 279 286 278 290 c 2
 261 346 l 1
 106 346 l 1
 106 67 l 1
 131 62 182 55 187 32 c 1
 303 32 l 1xb960
 339 59 l 2
 341 60 343 61 345 61 c 0x5960
 351 61 355 57 355 51 c 0
 355 49 354 47 353 46 c 2x3960
 334 17 l 2
 332 14 329 12 326 12 c 2x5960
 308 12 l 1
 306 12 l 1
 305 12 l 1
 97 12 l 1
 96 12 l 1
 94 12 l 1
 78 12 l 1
 77 12 l 1
 75 12 l 1
 38 12 l 2
 32 12 28 16 28 22 c 0
 28 26 32 31 36 32 c 2
 64 38 l 1
 58 43 49 47 51 58 c 0
 52 66 59 69 67 70 c 1
 67 641 l 1
 36 648 l 2
 32 649 28 654 28 658 c 0
 28 664 32 668 38 668 c 2
 75 668 l 1
 76 668 l 1
 77 668 l 1
 78 668 l 1
 94 668 l 1
 96 668 l 1
 97 668 l 1
 305 668 l 1
EndSplineSet
Validated: 1
EndChar

StartChar: Igrave
Encoding: 204 204 109
Width: 186
GlyphClass: 2
Flags: MW
HStem: 12 20<36 36 36 38 36 75 106 134> 46 21<106 106> 614 20<106 106> 648 20<36 75 106 106 106 134> 771 208<-30 88>
VStem: -40 136 67 39<70 610 610 610>
LayerCount: 2
Fore
SplineSet
-40 968 m 2x0c
 -40 974 -36 978 -30 978 c 1
 -30 979 l 1
 -25 979 -21 976 -20 972 c 2
 17 890 l 1
 93 787 l 2
 94 785 96 783 96 781 c 0
 96 775 91 771 85 771 c 0
 82 771 80 772 78 774 c 2
 21 836 l 1
 20 837 l 1
 -36 898 l 2
 -38 900 -40 902 -40 906 c 2
 -40 968 l 2x0c
106 46 m 1xf2
 106 33 l 1
 106 32 l 1
 134 32 l 2
 142 32 148 33 153 33 c 1
 140 38 122 43 106 46 c 1xf2
106 648 m 1
 106 634 l 1
 122 637 140 642 153 647 c 1
 148 647 142 648 134 648 c 2
 106 648 l 1
76 668 m 1
 77 668 l 1
 78 668 l 1
 94 668 l 1
 96 668 l 1
 97 668 l 1
 134 668 l 2
 154 668 166 667 175 664 c 0
 184 661 192 649 181 639 c 0
 165 625 132 619 106 614 c 1
 106 67 l 1
 132 62 176 56 186 36 c 0
 191 26 181 18 175 16 c 0
 166 13 154 12 134 12 c 2
 97 12 l 1
 96 12 l 1
 94 12 l 1
 78 12 l 1
 77 12 l 1
 75 12 l 1
 38 12 l 2
 32 12 28 16 28 22 c 0
 28 26 32 31 36 32 c 2
 64 38 l 1
 58 43 49 47 51 58 c 0
 52 66 59 69 67 70 c 1
 67 610 l 1
 51 612 46 626 56 636 c 0
 58 638 62 640 64 642 c 2
 36 648 l 2
 32 649 28 654 28 658 c 0
 28 664 32 668 38 668 c 2
 75 668 l 1
 76 668 l 1
EndSplineSet
Validated: 1
EndChar

StartChar: Iacute
Encoding: 205 205 110
Width: 186
GlyphClass: 2
Flags: MW
HStem: 12 20<36 36 36 38 36 75 106 134> 46 21<106 106> 614 20<106 106> 648 20<36 75 106 106 106 134> 771 208<84 205>
VStem: 67 39<70 610 610 610> 193 19
LayerCount: 2
Fore
SplineSet
87 771 m 0
 81 771 77 775 77 781 c 0
 77 783 79 785 80 787 c 2
 155 890 l 1
 193 972 l 2
 194 976 197 979 202 979 c 0
 208 979 212 974 212 968 c 2
 212 906 l 2
 212 903 211 900 209 898 c 2
 153 837 l 1
 152 836 l 2
 133 815 114 795 95 774 c 0
 93 772 90 771 87 771 c 0
106 46 m 1
 106 33 l 1
 106 32 l 1
 134 32 l 2
 142 32 148 33 153 33 c 1
 140 38 122 43 106 46 c 1
106 648 m 1
 106 634 l 1
 122 637 140 642 153 647 c 1
 148 647 142 648 134 648 c 2
 106 648 l 1
76 668 m 1
 77 668 l 1
 78 668 l 1
 94 668 l 1
 96 668 l 1
 97 668 l 1
 134 668 l 2
 154 668 166 667 175 664 c 0
 184 661 192 649 181 639 c 0
 165 625 132 619 106 614 c 1
 106 67 l 1
 132 62 176 56 186 36 c 0
 191 26 181 18 175 16 c 0
 166 13 154 12 134 12 c 2
 97 12 l 1
 96 12 l 1
 94 12 l 1
 78 12 l 1
 77 12 l 1
 75 12 l 1
 38 12 l 2
 32 12 28 16 28 22 c 0
 28 26 32 31 36 32 c 2
 64 38 l 1
 58 43 49 47 51 58 c 0
 52 66 59 69 67 70 c 1
 67 610 l 1
 51 612 46 626 56 636 c 0
 58 638 62 640 64 642 c 2
 36 648 l 2
 32 649 28 654 28 658 c 0
 28 664 32 668 38 668 c 2
 75 668 l 1
 76 668 l 1
EndSplineSet
Validated: 1
EndChar

StartChar: Icircumflex
Encoding: 206 206 111
Width: 186
GlyphClass: 2
Flags: MW
HStem: 12 20<36 36 36 38 36 75 106 134> 46 21<106 106> 614 20<106 106> 648 20<36 75 106 106 106 134> 771 207<-52 86 84 223>
VStem: -59 289<778 782> 67 39<70 610 610 610>
LayerCount: 2
Fore
SplineSet
-49 771 m 0x0c
 -55 771 -59 775 -59 781 c 0
 -59 783 -57 786 -56 788 c 2
 10 865 l 1
 76 972 l 2
 77 975 82 978 86 978 c 1
 86 979 l 1
 90 979 94 976 95 973 c 2
 161 865 l 1
 227 788 l 2
 229 786 230 784 230 781 c 0
 230 775 226 771 220 771 c 0
 217 771 215 772 213 774 c 2
 86 892 l 1
 -41 774 l 2
 -43 772 -47 771 -49 771 c 0x0c
106 46 m 1xf2
 106 33 l 1
 106 32 l 1
 134 32 l 2
 142 32 148 33 153 33 c 1
 140 38 122 43 106 46 c 1xf2
106 648 m 1
 106 634 l 1
 122 637 140 642 153 647 c 1
 148 647 142 648 134 648 c 2
 106 648 l 1
76 668 m 1
 77 668 l 1
 78 668 l 1
 94 668 l 1
 96 668 l 1
 97 668 l 1
 134 668 l 2
 154 668 166 667 175 664 c 0
 184 661 192 649 181 639 c 0
 165 625 132 619 106 614 c 1
 106 67 l 1
 132 62 176 56 186 36 c 0
 191 26 181 18 175 16 c 0
 166 13 154 12 134 12 c 2
 97 12 l 1
 96 12 l 1
 94 12 l 1
 78 12 l 1
 77 12 l 1
 75 12 l 1
 38 12 l 2
 32 12 28 16 28 22 c 0
 28 26 32 31 36 32 c 2
 64 38 l 1
 58 43 49 47 51 58 c 0
 52 66 59 69 67 70 c 1
 67 610 l 1
 51 612 46 626 56 636 c 0
 58 638 62 640 64 642 c 2
 36 648 l 2
 32 649 28 654 28 658 c 0
 28 664 32 668 38 668 c 2
 75 668 l 1
 76 668 l 1
EndSplineSet
Validated: 1
EndChar

StartChar: Idieresis
Encoding: 207 207 112
Width: 186
GlyphClass: 2
Flags: MW
HStem: 12 20<36 36 36 38 36 75 106 134> 46 21<106 106> 614 20<106 106> 648 20<36 75 106 106 106 134> 771 83<36 40 132 135.5>
VStem: 8 59<812 813.5> 67 39<70 610 610 610> 104 59<812 814>
LayerCount: 2
Fore
SplineSet
133 854 m 0x0d
 138 854 142 851 143 848 c 2
 160 819 l 2
 161 817 163 816 163 813 c 0
 163 811 162 808 161 806 c 2
 143 777 l 2
 141 774 138 771 134 771 c 0
 130 771 126 774 124 777 c 2
 107 806 l 2
 105 808 104 810 104 813 c 0
 104 815 106 817 107 819 c 2
 124 848 l 2
 125 851 129 854 133 854 c 0x0d
38 854 m 0
 43 854 46 851 47 848 c 2
 65 819 l 2
 66 818 66 818 66 817 c 0
 67 816 67 814 67 813 c 0
 67 810 66 808 64 806 c 2
 47 777 l 2
 45 774 42 771 38 771 c 0
 34 771 31 774 29 777 c 2
 11 806 l 2
 10 808 8 811 8 813 c 0
 8 816 10 818 11 819 c 2
 28 848 l 2
 29 851 34 854 38 854 c 0
106 46 m 1xf2
 106 33 l 1
 106 32 l 1
 134 32 l 2
 142 32 148 33 153 33 c 1
 140 38 122 43 106 46 c 1xf2
106 648 m 1
 106 634 l 1
 122 637 140 642 153 647 c 1
 148 647 142 648 134 648 c 2
 106 648 l 1
76 668 m 1
 77 668 l 1
 78 668 l 1
 94 668 l 1
 96 668 l 1
 97 668 l 1
 134 668 l 2
 154 668 166 667 175 664 c 0
 184 661 192 649 181 639 c 0
 165 625 132 619 106 614 c 1
 106 67 l 1
 132 62 176 56 186 36 c 0
 191 26 181 18 175 16 c 0
 166 13 154 12 134 12 c 2
 97 12 l 1
 96 12 l 1
 94 12 l 1
 78 12 l 1
 77 12 l 1
 75 12 l 1
 38 12 l 2
 32 12 28 16 28 22 c 0
 28 26 32 31 36 32 c 2
 64 38 l 1
 58 43 49 47 51 58 c 0
 52 66 59 69 67 70 c 1
 67 610 l 1
 51 612 46 626 56 636 c 0
 58 638 62 640 64 642 c 2
 36 648 l 2
 32 649 28 654 28 658 c 0
 28 664 32 668 38 668 c 2
 75 668 l 1
 76 668 l 1
EndSplineSet
Validated: 1
EndChar

StartChar: Ograve
Encoding: 210 210 113
Width: 556
GlyphClass: 2
Flags: MW
HStem: 330 21<144 145.5 144 145.5 144 152> 772 208<81 199>
VStem: 71 136<779 969> 123 21 506 20<323.5 417.5>
LayerCount: 2
Fore
SplineSet
71 969 m 2x60
 71 975 75 979 81 979 c 1
 81 980 l 1
 86 980 90 977 91 973 c 2
 128 891 l 1
 204 788 l 2
 205 786 207 784 207 782 c 0
 207 776 202 772 196 772 c 0
 193 772 191 773 189 775 c 2
 132 837 l 1
 131 838 l 1
 75 899 l 2
 73 901 71 903 71 907 c 2
 71 969 l 2x60
469 89 m 1x98
 447 53 418 25 380 11 c 1
 389 12 397 14 405 18 c 0
 430 29 453 56 469 89 c 1x98
144 330 m 1
 146 198 183 51 291 26 c 1
 259 65 258 132 252 196 c 0
 245 270 233 330 152 330 c 2
 144 330 l 1
371 651 m 1
 454 585 479 464 506 346 c 1
 505 476 470 618 371 651 c 1
327 22 m 1
 436 24 483 135 499 242 c 1
 498 273 495 305 487 338 c 0
 457 469 432 604 323 658 c 1
 189 656 146 491 144 351 c 1
 147 351 149 350 152 350 c 0
 244 350 265 280 272 198 c 0
 278 127 277 48 327 22 c 1
123 353 m 1
 125 495 169 646 286 674 c 1
 229 695 176 698 126 676 c 0
 78 654 45 611 30 562 c 0
 -1 462 41 368 123 353 c 1
117 695 m 0
 185 726 254 713 327 678 c 1
 477 676 526 495 526 340 c 0
 526 307 525 274 520 241 c 1
 522 134 486 33 414 0 c 0
 386 -13 355 -13 323 2 c 1
 175 4 125 179 123 332 c 1
 28 348 -26 453 10 568 c 0
 27 621 63 670 117 695 c 0
EndSplineSet
Validated: 33
EndChar

StartChar: Oacute
Encoding: 211 211 114
Width: 556
GlyphClass: 2
Flags: MW
HStem: 330 21<144 145.5 144 145.5 144 152> 772 208<195 316>
VStem: 123 21 304 19 506 20<323.5 417.5>
LayerCount: 2
Fore
SplineSet
198 772 m 0
 192 772 188 776 188 782 c 0
 188 784 190 786 191 788 c 2
 266 891 l 1
 304 973 l 2
 305 977 308 980 313 980 c 0
 319 980 323 975 323 969 c 2
 323 907 l 2
 323 904 322 901 320 899 c 2
 264 838 l 1
 263 837 l 2
 244 816 225 796 206 775 c 0
 204 773 201 772 198 772 c 0
469 89 m 1
 447 53 418 25 380 11 c 1
 389 12 397 14 405 18 c 0
 430 29 453 56 469 89 c 1
144 330 m 1
 146 198 183 51 291 26 c 1
 259 65 258 132 252 196 c 0
 245 270 233 330 152 330 c 2
 144 330 l 1
371 651 m 1
 454 585 479 464 506 346 c 1
 505 476 470 618 371 651 c 1
327 22 m 1
 436 24 483 135 499 242 c 1
 498 273 495 305 487 338 c 0
 457 469 432 604 323 658 c 1
 189 656 146 491 144 351 c 1
 147 351 149 350 152 350 c 0
 244 350 265 280 272 198 c 0
 278 127 277 48 327 22 c 1
123 353 m 1
 125 495 169 646 286 674 c 1
 229 695 176 698 126 676 c 0
 78 654 45 611 30 562 c 0
 -1 462 41 368 123 353 c 1
117 695 m 0
 185 726 254 713 327 678 c 1
 477 676 526 495 526 340 c 0
 526 307 525 274 520 241 c 1
 522 134 486 33 414 0 c 0
 386 -13 355 -13 323 2 c 1
 175 4 125 179 123 332 c 1
 28 348 -26 453 10 568 c 0
 27 621 63 670 117 695 c 0
EndSplineSet
Validated: 33
EndChar

StartChar: Ocircumflex
Encoding: 212 212 115
Width: 556
GlyphClass: 2
Flags: MW
HStem: 330 21<144 145.5 144 145.5 144 152> 772 207<60 198 196 335>
VStem: 53 289<779 783> 123 21 506 20<323.5 417.5>
LayerCount: 2
Fore
SplineSet
63 772 m 0x60
 57 772 53 776 53 782 c 0
 53 784 55 787 56 789 c 2
 122 866 l 1
 188 973 l 2
 189 976 194 979 198 979 c 1
 198 980 l 1
 202 980 206 977 207 974 c 2
 273 866 l 1
 339 789 l 2
 341 787 342 785 342 782 c 0
 342 776 338 772 332 772 c 0
 329 772 327 773 325 775 c 2
 198 893 l 1
 71 775 l 2
 69 773 65 772 63 772 c 0x60
469 89 m 1x98
 447 53 418 25 380 11 c 1
 389 12 397 14 405 18 c 0
 430 29 453 56 469 89 c 1x98
144 330 m 1
 146 198 183 51 291 26 c 1
 259 65 258 132 252 196 c 0
 245 270 233 330 152 330 c 2
 144 330 l 1
371 651 m 1
 454 585 479 464 506 346 c 1
 505 476 470 618 371 651 c 1
327 22 m 1
 436 24 483 135 499 242 c 1
 498 273 495 305 487 338 c 0
 457 469 432 604 323 658 c 1
 189 656 146 491 144 351 c 1
 147 351 149 350 152 350 c 0
 244 350 265 280 272 198 c 0
 278 127 277 48 327 22 c 1
123 353 m 1
 125 495 169 646 286 674 c 1
 229 695 176 698 126 676 c 0
 78 654 45 611 30 562 c 0
 -1 462 41 368 123 353 c 1
117 695 m 0
 185 726 254 713 327 678 c 1
 477 676 526 495 526 340 c 0
 526 307 525 274 520 241 c 1
 522 134 486 33 414 0 c 0
 386 -13 355 -13 323 2 c 1
 175 4 125 179 123 332 c 1
 28 348 -26 453 10 568 c 0
 27 621 63 670 117 695 c 0
EndSplineSet
Validated: 33
EndChar

StartChar: Otilde
Encoding: 213 213 116
Width: 556
GlyphClass: 2
Flags: MW
HStem: 330 21<144 145.5 144 145.5 144 152> 771 21<272 308 277 308 277 312> 803 20<272 308 277 308 277 312> 928 20<86 117 86 86> 959 20<86 86 86 117>
VStem: 14 21<781 782 782 843> 123 21 359 20<908 969> 506 20<323.5 417.5>
LayerCount: 2
Fore
SplineSet
229 836 m 1
 242 820 l 1
 277 792 l 1
 308 792 l 1
 341 818 l 1
 342 825 l 1
 318 805 l 2
 316 804 314 803 312 803 c 2
 273 803 l 2
 271 803 269 804 267 805 c 2
 229 836 l 1
86 959 m 1
 53 932 l 1
 51 926 l 1
 76 946 l 2
 78 947 80 948 82 948 c 2
 120 948 l 2
 122 948 125 947 127 946 c 2
 164 915 l 1
 151 931 l 1
 117 959 l 1
 86 959 l 1
369 979 m 0
 375 979 379 975 379 969 c 2
 379 908 l 1
 379 907 l 1
 379 904 l 1
 360 811 l 2
 360 809 358 806 356 805 c 2
 318 774 l 2
 316 773 314 771 312 771 c 2
 273 771 l 2
 271 771 269 773 267 774 c 2
 229 805 l 1
 227 806 l 1
 151 899 l 1
 117 928 l 1
 86 928 l 1
 52 901 l 1
 35 843 l 1
 35 782 l 1
 35 781 l 2
 35 775 30 771 24 771 c 0
 18 771 14 775 14 781 c 2
 14 782 l 1
 14 843 l 1
 14 844 l 2
 14 845 15 845 15 846 c 2
 34 940 l 2
 34 942 35 945 37 946 c 2
 76 977 l 2
 78 978 80 979 82 979 c 2
 120 979 l 2
 122 979 125 978 127 977 c 2
 165 946 l 1
 166 944 l 1
 242 851 l 1
 277 823 l 1
 308 823 l 1
 341 850 l 1
 359 908 l 1
 359 969 l 2
 359 974 364 979 369 979 c 0
469 89 m 1
 447 53 418 25 380 11 c 1
 389 12 397 14 405 18 c 0
 430 29 453 56 469 89 c 1
144 330 m 1
 146 198 183 51 291 26 c 1
 259 65 258 132 252 196 c 0
 245 270 233 330 152 330 c 2
 144 330 l 1
371 651 m 1
 454 585 479 464 506 346 c 1
 505 476 470 618 371 651 c 1
327 22 m 1
 436 24 483 135 499 242 c 1
 498 273 495 305 487 338 c 0
 457 469 432 604 323 658 c 1
 189 656 146 491 144 351 c 1
 147 351 149 350 152 350 c 0
 244 350 265 280 272 198 c 0
 278 127 277 48 327 22 c 1
123 353 m 1
 125 495 169 646 286 674 c 1
 229 695 176 698 126 676 c 0
 78 654 45 611 30 562 c 0
 -1 462 41 368 123 353 c 1
117 695 m 0
 185 726 254 713 327 678 c 1
 477 676 526 495 526 340 c 0
 526 307 525 274 520 241 c 1
 522 134 486 33 414 0 c 0
 386 -13 355 -13 323 2 c 1
 175 4 125 179 123 332 c 1
 28 348 -26 453 10 568 c 0
 27 621 63 670 117 695 c 0
EndSplineSet
Validated: 33
EndChar

StartChar: Odieresis
Encoding: 214 214 117
Width: 556
GlyphClass: 2
Flags: MW
HStem: 330 21<144 145.5 144 145.5 144 152> 771 83<148 152 244 247.5>
VStem: 120 59<812 813.5 811.5 814.5> 123 21 216 59<812 814> 506 20<323.5 417.5>
LayerCount: 2
Fore
SplineSet
245 854 m 0x68
 250 854 254 851 255 848 c 2
 272 819 l 2
 273 817 275 816 275 813 c 0
 275 811 274 808 273 806 c 2
 255 777 l 2
 253 774 250 771 246 771 c 0
 242 771 238 774 236 777 c 2
 219 806 l 2
 217 808 216 810 216 813 c 0
 216 815 218 817 219 819 c 2
 236 848 l 2
 237 851 241 854 245 854 c 0x68
150 854 m 0
 155 854 158 851 159 848 c 2
 177 819 l 2
 178 818 178 818 178 817 c 0
 179 816 179 814 179 813 c 0
 179 810 178 808 176 806 c 2
 159 777 l 2
 157 774 154 771 150 771 c 0
 146 771 143 774 141 777 c 2
 123 806 l 2
 122 808 120 811 120 813 c 0
 120 816 122 818 123 819 c 2
 140 848 l 2
 141 851 146 854 150 854 c 0
469 89 m 1x94
 447 53 418 25 380 11 c 1
 389 12 397 14 405 18 c 0
 430 29 453 56 469 89 c 1x94
144 330 m 1
 146 198 183 51 291 26 c 1
 259 65 258 132 252 196 c 0
 245 270 233 330 152 330 c 2
 144 330 l 1
371 651 m 1
 454 585 479 464 506 346 c 1
 505 476 470 618 371 651 c 1
327 22 m 1
 436 24 483 135 499 242 c 1
 498 273 495 305 487 338 c 0
 457 469 432 604 323 658 c 1
 189 656 146 491 144 351 c 1
 147 351 149 350 152 350 c 0
 244 350 265 280 272 198 c 0
 278 127 277 48 327 22 c 1
123 353 m 1
 125 495 169 646 286 674 c 1
 229 695 176 698 126 676 c 0
 78 654 45 611 30 562 c 0
 -1 462 41 368 123 353 c 1
117 695 m 0
 185 726 254 713 327 678 c 1
 477 676 526 495 526 340 c 0
 526 307 525 274 520 241 c 1
 522 134 486 33 414 0 c 0
 386 -13 355 -13 323 2 c 1
 175 4 125 179 123 332 c 1
 28 348 -26 453 10 568 c 0
 27 621 63 670 117 695 c 0
EndSplineSet
Validated: 33
EndChar

StartChar: Ugrave
Encoding: 217 217 118
Width: 447
GlyphClass: 2
Flags: MW
HStem: 2 20<183.5 254 183.5 260.5> 611 20<340 342> 648 20<43 82 113 113 113 141 362 362 362 390> 771 208<-23 95>
VStem: -33 136 74 39<168 610 610 610> 342 20<168 611 611 611>
LayerCount: 2
Fore
SplineSet
-33 968 m 2x18
 -33 974 -29 978 -23 978 c 1
 -23 979 l 1
 -18 979 -14 976 -13 972 c 2
 24 890 l 1
 100 787 l 2
 101 785 103 783 103 781 c 0
 103 775 98 771 92 771 c 0
 89 771 87 772 85 774 c 2
 28 836 l 1
 27 837 l 1
 -29 898 l 2
 -31 900 -33 902 -33 906 c 2
 -33 968 l 2x18
342 632 m 2xe6
 341 632 341 631 340 631 c 2
 342 631 l 1
 342 632 l 2xe6
362 648 m 1
 362 634 l 1
 378 637 396 642 409 647 c 1
 404 647 398 648 390 648 c 2
 362 648 l 1
113 648 m 1
 113 634 l 1
 129 637 147 642 160 647 c 1
 155 647 149 648 141 648 c 2
 113 648 l 1
362 168 m 2
 362 81 303 2 218 2 c 0
 133 2 74 81 74 168 c 2
 74 610 l 1
 58 612 53 626 63 636 c 0
 65 638 69 640 71 642 c 2
 43 648 l 2
 39 649 35 654 35 658 c 0
 35 664 39 668 45 668 c 2
 82 668 l 1
 83 668 l 1
 84 668 l 1
 85 668 l 1
 101 668 l 1
 103 668 l 1
 104 668 l 1
 141 668 l 2
 161 668 173 667 182 664 c 0
 191 661 199 649 188 639 c 0
 172 625 139 619 113 614 c 1
 113 168 l 2
 113 97 149 22 218 22 c 0
 290 22 342 90 342 168 c 2
 342 611 l 1
 327 609 309 608 307 622 c 0
 305 634 316 640 324 645 c 1
 311 648 l 2
 307 649 303 654 303 658 c 0
 303 664 307 668 313 668 c 2
 350 668 l 1
 352 668 l 1
 353 668 l 1
 390 668 l 2
 410 668 422 667 431 664 c 0
 440 661 448 649 437 639 c 0
 421 625 388 619 362 614 c 1
 362 168 l 2
EndSplineSet
Validated: 33
EndChar

StartChar: Uacute
Encoding: 218 218 119
Width: 447
GlyphClass: 2
Flags: MW
HStem: 2 20<183.5 254 183.5 260.5> 611 20<340 342> 648 20<43 82 113 113 113 141 362 362 362 390> 771 208<91 212>
VStem: 74 39<168 610 610 610> 200 19 342 20<168 611 611 611>
LayerCount: 2
Fore
SplineSet
94 771 m 0
 88 771 84 775 84 781 c 0
 84 783 86 785 87 787 c 2
 162 890 l 1
 200 972 l 2
 201 976 204 979 209 979 c 0
 215 979 219 974 219 968 c 2
 219 906 l 2
 219 903 218 900 216 898 c 2
 160 837 l 1
 159 836 l 2
 140 815 121 795 102 774 c 0
 100 772 97 771 94 771 c 0
342 632 m 2
 341 632 341 631 340 631 c 2
 342 631 l 1
 342 632 l 2
362 648 m 1
 362 634 l 1
 378 637 396 642 409 647 c 1
 404 647 398 648 390 648 c 2
 362 648 l 1
113 648 m 1
 113 634 l 1
 129 637 147 642 160 647 c 1
 155 647 149 648 141 648 c 2
 113 648 l 1
362 168 m 2
 362 81 303 2 218 2 c 0
 133 2 74 81 74 168 c 2
 74 610 l 1
 58 612 53 626 63 636 c 0
 65 638 69 640 71 642 c 2
 43 648 l 2
 39 649 35 654 35 658 c 0
 35 664 39 668 45 668 c 2
 82 668 l 1
 83 668 l 1
 84 668 l 1
 85 668 l 1
 101 668 l 1
 103 668 l 1
 104 668 l 1
 141 668 l 2
 161 668 173 667 182 664 c 0
 191 661 199 649 188 639 c 0
 172 625 139 619 113 614 c 1
 113 168 l 2
 113 97 149 22 218 22 c 0
 290 22 342 90 342 168 c 2
 342 611 l 1
 327 609 309 608 307 622 c 0
 305 634 316 640 324 645 c 1
 311 648 l 2
 307 649 303 654 303 658 c 0
 303 664 307 668 313 668 c 2
 350 668 l 1
 352 668 l 1
 353 668 l 1
 390 668 l 2
 410 668 422 667 431 664 c 0
 440 661 448 649 437 639 c 0
 421 625 388 619 362 614 c 1
 362 168 l 2
EndSplineSet
Validated: 33
EndChar

StartChar: Ucircumflex
Encoding: 219 219 120
Width: 447
GlyphClass: 2
Flags: MW
HStem: 2 20<183.5 254 183.5 260.5> 611 20<340 342> 648 20<43 82 113 113 113 141 362 362 362 390> 771 207<-45 93 91 230>
VStem: -52 289<778 782> 74 39<168 610 610 610> 342 20<168 611 611 611>
LayerCount: 2
Fore
SplineSet
-42 771 m 0x18
 -48 771 -52 775 -52 781 c 0
 -52 783 -50 786 -49 788 c 2
 17 865 l 1
 83 972 l 2
 84 975 89 978 93 978 c 1
 93 979 l 1
 97 979 101 976 102 973 c 2
 168 865 l 1
 234 788 l 2
 236 786 237 784 237 781 c 0
 237 775 233 771 227 771 c 0
 224 771 222 772 220 774 c 2
 93 892 l 1
 -34 774 l 2
 -36 772 -40 771 -42 771 c 0x18
342 632 m 2xe6
 341 632 341 631 340 631 c 2
 342 631 l 1
 342 632 l 2xe6
362 648 m 1
 362 634 l 1
 378 637 396 642 409 647 c 1
 404 647 398 648 390 648 c 2
 362 648 l 1
113 648 m 1
 113 634 l 1
 129 637 147 642 160 647 c 1
 155 647 149 648 141 648 c 2
 113 648 l 1
362 168 m 2
 362 81 303 2 218 2 c 0
 133 2 74 81 74 168 c 2
 74 610 l 1
 58 612 53 626 63 636 c 0
 65 638 69 640 71 642 c 2
 43 648 l 2
 39 649 35 654 35 658 c 0
 35 664 39 668 45 668 c 2
 82 668 l 1
 83 668 l 1
 84 668 l 1
 85 668 l 1
 101 668 l 1
 103 668 l 1
 104 668 l 1
 141 668 l 2
 161 668 173 667 182 664 c 0
 191 661 199 649 188 639 c 0
 172 625 139 619 113 614 c 1
 113 168 l 2
 113 97 149 22 218 22 c 0
 290 22 342 90 342 168 c 2
 342 611 l 1
 327 609 309 608 307 622 c 0
 305 634 316 640 324 645 c 1
 311 648 l 2
 307 649 303 654 303 658 c 0
 303 664 307 668 313 668 c 2
 350 668 l 1
 352 668 l 1
 353 668 l 1
 390 668 l 2
 410 668 422 667 431 664 c 0
 440 661 448 649 437 639 c 0
 421 625 388 619 362 614 c 1
 362 168 l 2
EndSplineSet
Validated: 33
EndChar

StartChar: Udieresis
Encoding: 220 220 121
Width: 447
GlyphClass: 2
Flags: MW
HStem: 2 20<183.5 254 183.5 260.5> 611 20<340 342> 648 20<43 82 113 113 113 141 362 362 362 390> 771 83<43 47 139 142.5>
VStem: 15 59<812 813.5> 74 39<168 610 610 610> 111 59<812 814> 342 20<168 611 611 611>
LayerCount: 2
Fore
SplineSet
140 854 m 0x1a
 145 854 149 851 150 848 c 2
 167 819 l 2
 168 817 170 816 170 813 c 0
 170 811 169 808 168 806 c 2
 150 777 l 2
 148 774 145 771 141 771 c 0
 137 771 133 774 131 777 c 2
 114 806 l 2
 112 808 111 810 111 813 c 0
 111 815 113 817 114 819 c 2
 131 848 l 2
 132 851 136 854 140 854 c 0x1a
45 854 m 0
 50 854 53 851 54 848 c 2
 72 819 l 2
 73 818 73 818 73 817 c 0
 74 816 74 814 74 813 c 0
 74 810 73 808 71 806 c 2
 54 777 l 2
 52 774 49 771 45 771 c 0
 41 771 38 774 36 777 c 2
 18 806 l 2
 17 808 15 811 15 813 c 0
 15 816 17 818 18 819 c 2
 35 848 l 2
 36 851 41 854 45 854 c 0
342 632 m 2xe5
 341 632 341 631 340 631 c 2
 342 631 l 1
 342 632 l 2xe5
362 648 m 1
 362 634 l 1
 378 637 396 642 409 647 c 1
 404 647 398 648 390 648 c 2
 362 648 l 1
113 648 m 1
 113 634 l 1
 129 637 147 642 160 647 c 1
 155 647 149 648 141 648 c 2
 113 648 l 1
362 168 m 2
 362 81 303 2 218 2 c 0
 133 2 74 81 74 168 c 2
 74 610 l 1
 58 612 53 626 63 636 c 0
 65 638 69 640 71 642 c 2
 43 648 l 2
 39 649 35 654 35 658 c 0
 35 664 39 668 45 668 c 2
 82 668 l 1
 83 668 l 1
 84 668 l 1
 85 668 l 1
 101 668 l 1
 103 668 l 1
 104 668 l 1
 141 668 l 2
 161 668 173 667 182 664 c 0
 191 661 199 649 188 639 c 0
 172 625 139 619 113 614 c 1
 113 168 l 2
 113 97 149 22 218 22 c 0
 290 22 342 90 342 168 c 2
 342 611 l 1
 327 609 309 608 307 622 c 0
 305 634 316 640 324 645 c 1
 311 648 l 2
 307 649 303 654 303 658 c 0
 303 664 307 668 313 668 c 2
 350 668 l 1
 352 668 l 1
 353 668 l 1
 390 668 l 2
 410 668 422 667 431 664 c 0
 440 661 448 649 437 639 c 0
 421 625 388 619 362 614 c 1
 362 168 l 2
EndSplineSet
Validated: 33
EndChar

StartChar: agrave
Encoding: 224 224 122
Width: 306
GlyphClass: 2
Flags: MW
HStem: 263 20<147.5 169.5> 339 20<65.5 67 65.5 70.5> 439 20<133 170.5> 519 208<37 155>
VStem: 27 136<526 716> 38 48 201 39<110 255 255 255 277 356>
LayerCount: 2
Fore
SplineSet
27 716 m 2x18
 27 722 31 726 37 726 c 1
 37 727 l 1
 42 727 46 724 47 720 c 2
 84 638 l 1
 160 535 l 2
 161 533 163 531 163 529 c 0
 163 523 158 519 152 519 c 0
 149 519 147 520 145 522 c 2
 88 584 l 1
 87 585 l 1
 31 646 l 2
 29 648 27 650 27 654 c 2
 27 716 l 2x18
163 263 m 0xe6
 132 263 105 248 88 231 c 0
 61 197 52 114 75 69 c 0
 84 51 96 42 115 42 c 0
 133 42 147 50 161 64 c 0
 174 77 186 95 201 110 c 1
 201 255 l 1
 189 260 176 263 163 263 c 0xe6
59 365 m 1
 60 362 64 359 67 359 c 1
 67 360 68 360 68 361 c 2
 67 361 l 2
 64 361 61 363 59 365 c 1
85 400 m 2
 66 381 l 1
 67 381 l 2
 70 381 73 380 75 378 c 1
 78 385 82 393 85 400 c 2
67 339 m 0
 52 339 38 352 38 368 c 0
 38 377 42 386 50 394 c 0
 75 419 106 459 153 459 c 0
 206 459 240 409 240 356 c 2
 240 106 l 2
 240 79 234 50 253 41 c 0
 262 36 273 39 278 48 c 0
 280 51 284 53 287 53 c 0
 293 53 297 49 297 43 c 2
 297 42 l 1
 293 19 270 2 247 6 c 0
 214 11 203 44 201 80 c 1
 176 49 147 -3 94 6 c 0
 51 14 30 58 28 105 c 0
 26 157 40 210 75 245 c 0
 93 266 127 283 163 283 c 0
 176 283 189 281 201 277 c 1
 201 356 l 2
 201 393 188 439 153 439 c 0
 113 439 99 384 86 352 c 0
 83 344 74 339 67 339 c 0
70 41 m 1
 73 38 76 35 80 33 c 1
 77 36 73 38 70 41 c 1
70 41 m 1
 69 42 70 42 69 43 c 1
 69 42 69 42 70 41 c 1
EndSplineSet
Validated: 33
EndChar

StartChar: aacute
Encoding: 225 225 123
Width: 306
GlyphClass: 2
Flags: MW
HStem: 263 20<147.5 169.5> 339 20<65.5 67 65.5 70.5> 439 20<133 170.5> 519 208<151 272>
VStem: 38 48 201 39<110 255 255 255 277 356> 260 19
LayerCount: 2
Fore
SplineSet
154 519 m 0
 148 519 144 523 144 529 c 0
 144 531 146 533 147 535 c 2
 222 638 l 1
 260 720 l 2
 261 724 264 727 269 727 c 0
 275 727 279 722 279 716 c 2
 279 654 l 2
 279 651 278 648 276 646 c 2
 220 585 l 1
 219 584 l 2
 200 563 181 543 162 522 c 0
 160 520 157 519 154 519 c 0
163 263 m 0
 132 263 105 248 88 231 c 0
 61 197 52 114 75 69 c 0
 84 51 96 42 115 42 c 0
 133 42 147 50 161 64 c 0
 174 77 186 95 201 110 c 1
 201 255 l 1
 189 260 176 263 163 263 c 0
59 365 m 1
 60 362 64 359 67 359 c 1
 67 360 68 360 68 361 c 2
 67 361 l 2
 64 361 61 363 59 365 c 1
85 400 m 2
 66 381 l 1
 67 381 l 2
 70 381 73 380 75 378 c 1
 78 385 82 393 85 400 c 2
67 339 m 0
 52 339 38 352 38 368 c 0
 38 377 42 386 50 394 c 0
 75 419 106 459 153 459 c 0
 206 459 240 409 240 356 c 2
 240 106 l 2
 240 79 234 50 253 41 c 0
 262 36 273 39 278 48 c 0
 280 51 284 53 287 53 c 0
 293 53 297 49 297 43 c 2
 297 42 l 1
 293 19 270 2 247 6 c 0
 214 11 203 44 201 80 c 1
 176 49 147 -3 94 6 c 0
 51 14 30 58 28 105 c 0
 26 157 40 210 75 245 c 0
 93 266 127 283 163 283 c 0
 176 283 189 281 201 277 c 1
 201 356 l 2
 201 393 188 439 153 439 c 0
 113 439 99 384 86 352 c 0
 83 344 74 339 67 339 c 0
70 41 m 1
 73 38 76 35 80 33 c 1
 77 36 73 38 70 41 c 1
70 41 m 1
 69 42 70 42 69 43 c 1
 69 42 69 42 70 41 c 1
EndSplineSet
Validated: 33
EndChar

StartChar: acircumflex
Encoding: 226 226 124
Width: 306
GlyphClass: 2
Flags: MW
HStem: 263 20<147.5 169.5> 339 20<65.5 67 65.5 70.5> 439 20<133 170.5> 519 207<16 154 152 291>
VStem: 9 289<526 530> 38 48 201 39<110 255 255 255 277 356>
LayerCount: 2
Fore
SplineSet
19 519 m 0x18
 13 519 9 523 9 529 c 0
 9 531 11 534 12 536 c 2
 78 613 l 1
 144 720 l 2
 145 723 150 726 154 726 c 1
 154 727 l 1
 158 727 162 724 163 721 c 2
 229 613 l 1
 295 536 l 2
 297 534 298 532 298 529 c 0
 298 523 294 519 288 519 c 0
 285 519 283 520 281 522 c 2
 154 640 l 1
 27 522 l 2
 25 520 21 519 19 519 c 0x18
163 263 m 0xe6
 132 263 105 248 88 231 c 0
 61 197 52 114 75 69 c 0
 84 51 96 42 115 42 c 0
 133 42 147 50 161 64 c 0
 174 77 186 95 201 110 c 1
 201 255 l 1
 189 260 176 263 163 263 c 0xe6
59 365 m 1
 60 362 64 359 67 359 c 1
 67 360 68 360 68 361 c 2
 67 361 l 2
 64 361 61 363 59 365 c 1
85 400 m 2
 66 381 l 1
 67 381 l 2
 70 381 73 380 75 378 c 1
 78 385 82 393 85 400 c 2
67 339 m 0
 52 339 38 352 38 368 c 0
 38 377 42 386 50 394 c 0
 75 419 106 459 153 459 c 0
 206 459 240 409 240 356 c 2
 240 106 l 2
 240 79 234 50 253 41 c 0
 262 36 273 39 278 48 c 0
 280 51 284 53 287 53 c 0
 293 53 297 49 297 43 c 2
 297 42 l 1
 293 19 270 2 247 6 c 0
 214 11 203 44 201 80 c 1
 176 49 147 -3 94 6 c 0
 51 14 30 58 28 105 c 0
 26 157 40 210 75 245 c 0
 93 266 127 283 163 283 c 0
 176 283 189 281 201 277 c 1
 201 356 l 2
 201 393 188 439 153 439 c 0
 113 439 99 384 86 352 c 0
 83 344 74 339 67 339 c 0
70 41 m 1
 73 38 76 35 80 33 c 1
 77 36 73 38 70 41 c 1
70 41 m 1
 69 42 70 42 69 43 c 1
 69 42 69 42 70 41 c 1
EndSplineSet
Validated: 33
EndChar

StartChar: atilde
Encoding: 227 227 125
Width: 306
GlyphClass: 2
Flags: MW
HStem: 263 20<147.5 169.5> 339 20<65.5 67 65.5 70.5> 439 20<133 170.5> 519 21<228 264 233 264 233 268> 551 20<228 264 233 264 233 268> 676 20<42 73 42 42> 707 20<42 42 42 73>
VStem: -30 21<529 530 530 591> 38 48 201 39<110 255 255 255 277 356> 315 20<656 717>
LayerCount: 2
Fore
SplineSet
185 584 m 1
 198 568 l 1
 233 540 l 1
 264 540 l 1
 297 566 l 1
 298 573 l 1
 274 553 l 2
 272 552 270 551 268 551 c 2
 229 551 l 2
 227 551 225 552 223 553 c 2
 185 584 l 1
42 707 m 1
 9 680 l 1
 7 674 l 1
 32 694 l 2
 34 695 36 696 38 696 c 2
 76 696 l 2
 78 696 81 695 83 694 c 2
 120 663 l 1
 107 679 l 1
 73 707 l 1
 42 707 l 1
325 727 m 0
 331 727 335 723 335 717 c 2
 335 656 l 1
 335 655 l 1
 335 652 l 1
 316 559 l 2
 316 557 314 554 312 553 c 2
 274 522 l 2
 272 521 270 519 268 519 c 2
 229 519 l 2
 227 519 225 521 223 522 c 2
 185 553 l 1
 183 554 l 1
 107 647 l 1
 73 676 l 1
 42 676 l 1
 8 649 l 1
 -9 591 l 1
 -9 530 l 1
 -9 529 l 2
 -9 523 -14 519 -20 519 c 0
 -26 519 -30 523 -30 529 c 2
 -30 530 l 1
 -30 591 l 1
 -30 592 l 2
 -30 593 -29 593 -29 594 c 2
 -10 688 l 2
 -10 690 -9 693 -7 694 c 2
 32 725 l 2
 34 726 36 727 38 727 c 2
 76 727 l 2
 78 727 81 726 83 725 c 2
 121 694 l 1
 122 692 l 1
 198 599 l 1
 233 571 l 1
 264 571 l 1
 297 598 l 1
 315 656 l 1
 315 717 l 2
 315 722 320 727 325 727 c 0
163 263 m 0
 132 263 105 248 88 231 c 0
 61 197 52 114 75 69 c 0
 84 51 96 42 115 42 c 0
 133 42 147 50 161 64 c 0
 174 77 186 95 201 110 c 1
 201 255 l 1
 189 260 176 263 163 263 c 0
59 365 m 1
 60 362 64 359 67 359 c 1
 67 360 68 360 68 361 c 2
 67 361 l 2
 64 361 61 363 59 365 c 1
85 400 m 2
 66 381 l 1
 67 381 l 2
 70 381 73 380 75 378 c 1
 78 385 82 393 85 400 c 2
67 339 m 0
 52 339 38 352 38 368 c 0
 38 377 42 386 50 394 c 0
 75 419 106 459 153 459 c 0
 206 459 240 409 240 356 c 2
 240 106 l 2
 240 79 234 50 253 41 c 0
 262 36 273 39 278 48 c 0
 280 51 284 53 287 53 c 0
 293 53 297 49 297 43 c 2
 297 42 l 1
 293 19 270 2 247 6 c 0
 214 11 203 44 201 80 c 1
 176 49 147 -3 94 6 c 0
 51 14 30 58 28 105 c 0
 26 157 40 210 75 245 c 0
 93 266 127 283 163 283 c 0
 176 283 189 281 201 277 c 1
 201 356 l 2
 201 393 188 439 153 439 c 0
 113 439 99 384 86 352 c 0
 83 344 74 339 67 339 c 0
70 41 m 1
 73 38 76 35 80 33 c 1
 77 36 73 38 70 41 c 1
70 41 m 1
 69 42 70 42 69 43 c 1
 69 42 69 42 70 41 c 1
EndSplineSet
Validated: 33
EndChar

StartChar: ccedilla
Encoding: 231 231 126
Width: 288
GlyphClass: 2
Flags: MW
HStem: -136 52<113 137.5> 439 20<158.5 178.5>
VStem: 82 177 106 59<-96 -94 -96 -92> 189 64 240 19
LayerCount: 2
Fore
SplineSet
155 9 m 0x90
 161 9 165 5 165 -1 c 0
 165 -4 163 -7 161 -9 c 2
 130 -34 l 1
 141 -52 152 -71 163 -89 c 0
 164 -90 165 -93 165 -95 c 0
 165 -97 164 -99 163 -100 c 2
 144 -131 l 2
 142 -134 139 -136 136 -136 c 0
 133 -136 129 -134 127 -131 c 2
 108 -100 l 2
 107 -99 106 -97 106 -95 c 0
 106 -89 110 -84 116 -84 c 0
 119 -84 123 -86 125 -89 c 2
 136 -107 l 1
 143 -95 l 1
 131 -76 120 -56 108 -37 c 0
 107 -36 106 -34 106 -32 c 0
 106 -29 108 -26 110 -24 c 2
 148 7 l 2
 149 8 153 9 155 9 c 0x90
128 37 m 1x40
 131 35 133 33 136 32 c 1
 133 34 131 35 128 37 c 1x40
108 55 m 1
 114 48 120 42 128 37 c 1
 121 42 114 48 108 55 c 1
235 400 m 1
 232 396 226 392 221 392 c 2
 220 392 l 2
 219 392 217 393 216 393 c 1
 223 381 243 392 235 400 c 1
208 421 m 1
 209 421 l 1
 208 421 l 1
172 459 m 0
 205 459 225 431 245 417 c 0
 257 409 259 393 253 382 c 0
 247 371 233 364 218 368 c 0
 198 373 193 394 189 414 c 0x48
 186 427 185 439 172 439 c 0
 128 439 108 410 96 376 c 0
 82 337 79 283 82 231 c 0x60
 86 149 97 50 173 42 c 0
 201 39 228 54 240 79 c 0x44
 242 82 245 85 249 85 c 0
 255 85 259 81 259 75 c 0x60
 259 73 259 71 258 70 c 0
 244 24 198 -3 151 6 c 0
 72 22 54 113 47 199 c 0
 40 292 52 390 104 434 c 0
 122 449 145 459 172 459 c 0
EndSplineSet
Validated: 37
EndChar

StartChar: egrave
Encoding: 232 232 127
Width: 288
GlyphClass: 2
Flags: MW
HStem: 252 20<63 220 63 228 63 220 63 230 63 231 63 249> 439 20<150.5 153 150.5 153> 519 208<37 155>
VStem: 27 136<526 716> 28 35 220 39<272 306.5 259 307.5> 221 19
LayerCount: 2
Fore
SplineSet
27 716 m 2x30
 27 722 31 726 37 726 c 1
 37 727 l 1
 42 727 46 724 47 720 c 2
 84 638 l 1
 160 535 l 2
 161 533 163 531 163 529 c 0
 163 523 158 519 152 519 c 0
 149 519 147 520 145 522 c 2
 88 584 l 1
 87 585 l 1
 31 646 l 2
 29 648 27 650 27 654 c 2
 27 716 l 2x30
220 272 m 1xcc
 220 343 221 438 153 439 c 0
 114 439 96 414 84 385 c 0
 71 354 65 313 63 272 c 1
 220 272 l 1xcc
240 75 m 0xca
 240 74 239 72 239 71 c 2
 239 70 l 1
 225 25 179 -2 132 6 c 0
 43 22 27 128 28 231 c 0
 29 331 50 444 137 458 c 0
 142 459 148 459 153 459 c 0
 241 458 259 351 259 262 c 0xcc
 259 256 255 252 249 252 c 2
 231 252 l 1
 230 252 l 1
 228 252 l 1
 63 252 l 1
 60 157 66 44 154 38 c 0
 183 36 210 53 221 79 c 0
 222 82 226 85 230 85 c 0
 236 85 240 81 240 75 c 0xca
EndSplineSet
Validated: 33
EndChar

StartChar: eacute
Encoding: 233 233 128
Width: 288
GlyphClass: 2
Flags: MW
HStem: 252 20<63 220 63 228 63 220 63 230 63 231 63 249> 439 20<150.5 153 150.5 153> 519 208<151 272>
VStem: 28 35 220 39<272 306.5 259 307.5> 221 19 260 19
LayerCount: 2
Fore
SplineSet
154 519 m 0x22
 148 519 144 523 144 529 c 0
 144 531 146 533 147 535 c 2
 222 638 l 1
 260 720 l 2
 261 724 264 727 269 727 c 0
 275 727 279 722 279 716 c 2
 279 654 l 2
 279 651 278 648 276 646 c 2
 220 585 l 1
 219 584 l 2
 200 563 181 543 162 522 c 0
 160 520 157 519 154 519 c 0x22
220 272 m 1xd8
 220 343 221 438 153 439 c 0
 114 439 96 414 84 385 c 0
 71 354 65 313 63 272 c 1
 220 272 l 1xd8
240 75 m 0xd4
 240 74 239 72 239 71 c 2
 239 70 l 1
 225 25 179 -2 132 6 c 0
 43 22 27 128 28 231 c 0
 29 331 50 444 137 458 c 0
 142 459 148 459 153 459 c 0
 241 458 259 351 259 262 c 0xd8
 259 256 255 252 249 252 c 2
 231 252 l 1
 230 252 l 1
 228 252 l 1
 63 252 l 1
 60 157 66 44 154 38 c 0
 183 36 210 53 221 79 c 0
 222 82 226 85 230 85 c 0
 236 85 240 81 240 75 c 0xd4
EndSplineSet
Validated: 33
EndChar

StartChar: ecircumflex
Encoding: 234 234 129
Width: 288
GlyphClass: 2
Flags: MW
HStem: 252 20<63 220 63 228 63 220 63 230 63 231 63 249> 439 20<150.5 153 150.5 153> 519 207<15 153 151 290>
VStem: 8 289<526 530> 28 35 220 39<272 306.5 259 307.5> 221 19
LayerCount: 2
Fore
SplineSet
18 519 m 0x30
 12 519 8 523 8 529 c 0
 8 531 10 534 11 536 c 2
 77 613 l 1
 143 720 l 2
 144 723 149 726 153 726 c 1
 153 727 l 1
 157 727 161 724 162 721 c 2
 228 613 l 1
 294 536 l 2
 296 534 297 532 297 529 c 0
 297 523 293 519 287 519 c 0
 284 519 282 520 280 522 c 2
 153 640 l 1
 26 522 l 2
 24 520 20 519 18 519 c 0x30
220 272 m 1xcc
 220 343 221 438 153 439 c 0
 114 439 96 414 84 385 c 0
 71 354 65 313 63 272 c 1
 220 272 l 1xcc
240 75 m 0xca
 240 74 239 72 239 71 c 2
 239 70 l 1
 225 25 179 -2 132 6 c 0
 43 22 27 128 28 231 c 0
 29 331 50 444 137 458 c 0
 142 459 148 459 153 459 c 0
 241 458 259 351 259 262 c 0xcc
 259 256 255 252 249 252 c 2
 231 252 l 1
 230 252 l 1
 228 252 l 1
 63 252 l 1
 60 157 66 44 154 38 c 0
 183 36 210 53 221 79 c 0
 222 82 226 85 230 85 c 0
 236 85 240 81 240 75 c 0xca
EndSplineSet
Validated: 33
EndChar

StartChar: edieresis
Encoding: 235 235 130
Width: 288
GlyphClass: 2
Flags: MW
HStem: 252 20<63 220 63 228 63 220 63 230 63 231 63 249> 439 20<150.5 153 150.5 153> 519 83<103 107 199 202.5>
VStem: 28 35 75 59<560 561.5 559.5 562.5> 171 59<560 562> 220 39<272 306.5 259 307.5> 221 19
LayerCount: 2
Fore
SplineSet
200 602 m 0x2c
 205 602 209 599 210 596 c 2
 227 567 l 2
 228 565 230 564 230 561 c 0
 230 559 229 556 228 554 c 2
 210 525 l 2
 208 522 205 519 201 519 c 0
 197 519 193 522 191 525 c 2
 174 554 l 2
 172 556 171 558 171 561 c 0
 171 563 173 565 174 567 c 2
 191 596 l 2
 192 599 196 602 200 602 c 0x2c
105 602 m 0
 110 602 113 599 114 596 c 2
 132 567 l 2
 133 566 133 566 133 565 c 0
 134 564 134 562 134 561 c 0
 134 558 133 556 131 554 c 2
 114 525 l 2
 112 522 109 519 105 519 c 0
 101 519 98 522 96 525 c 2
 78 554 l 2
 77 556 75 559 75 561 c 0
 75 564 77 566 78 567 c 2
 95 596 l 2
 96 599 101 602 105 602 c 0
220 272 m 1xd2
 220 343 221 438 153 439 c 0
 114 439 96 414 84 385 c 0
 71 354 65 313 63 272 c 1
 220 272 l 1xd2
240 75 m 0xd1
 240 74 239 72 239 71 c 2
 239 70 l 1
 225 25 179 -2 132 6 c 0
 43 22 27 128 28 231 c 0
 29 331 50 444 137 458 c 0
 142 459 148 459 153 459 c 0
 241 458 259 351 259 262 c 0xd2
 259 256 255 252 249 252 c 2
 231 252 l 1
 230 252 l 1
 228 252 l 1
 63 252 l 1
 60 157 66 44 154 38 c 0
 183 36 210 53 221 79 c 0
 222 82 226 85 230 85 c 0
 236 85 240 81 240 75 c 0xd1
EndSplineSet
Validated: 33
EndChar

StartChar: igrave
Encoding: 236 236 131
Width: 197
GlyphClass: 2
Flags: MW
HStem: 2 21G<4 9.5> 12 20<43 43 43 45 113 141> 46 21<113 113> 440 20G<102 106> 612 50<86 94 93 94> 723 208<-23 95>
VStem: -33 136<730 920> -3 20<8.5 13 8.5 13> 74 39<70 418 418 418.5> 93 20<423 433 433 433>
LayerCount: 2
Fore
SplineSet
-33 920 m 2x06
 -33 926 -29 930 -23 930 c 1
 -23 931 l 1
 -18 931 -14 928 -13 924 c 2
 24 842 l 1
 100 739 l 2
 101 737 103 735 103 733 c 0
 103 727 98 723 92 723 c 0
 89 723 87 724 85 726 c 2
 28 788 l 1
 27 789 l 1
 -29 850 l 2
 -31 852 -33 854 -33 858 c 2
 -33 920 l 2x06
113 46 m 1x7940
 113 33 l 1
 113 32 l 1
 141 32 l 2
 149 32 155 33 160 33 c 1
 147 38 129 43 113 46 c 1x7940
93 433 m 1
 85 428 l 2
 88 428 92 426 93 423 c 2
 93 433 l 1
103 460 m 0
 109 460 113 455 113 450 c 2
 113 448 l 1x7940
 113 67 l 1
 139 62 183 56 193 36 c 0
 198 26 188 18 182 16 c 0
 173 13 161 12 141 12 c 2
 45 12 l 2
 39 12 35 16 35 22 c 0
 35 26 39 31 43 32 c 2x7980
 71 38 l 1
 65 43 56 47 58 58 c 0
 59 66 66 69 74 70 c 1
 74 418 l 2
 74 419 74 422 75 423 c 2
 55 412 l 1
 17 11 l 2
 17 6 12 2 7 2 c 0xb980
 1 2 -3 6 -3 12 c 2
 -3 13 l 1
 35 419 l 2
 35 422 38 426 41 427 c 2
 97 458 l 2
 98 459 101 460 103 460 c 0
93 662 m 2
 94 662 l 2
 108 662 119 651 119 637 c 0
 119 623 108 612 94 612 c 2
 93 612 l 2
 79 612 68 623 68 637 c 0
 68 651 79 662 93 662 c 2
EndSplineSet
Validated: 1
EndChar

StartChar: iacute
Encoding: 237 237 132
Width: 197
GlyphClass: 2
Flags: MW
HStem: 2 21G<4 9.5> 12 20<43 43 43 45 113 141> 46 21<113 113> 440 20G<102 106> 612 50<86 94 93 94> 723 208<91 212>
VStem: -3 20<8.5 13 8.5 13> 74 39<70 418 418 418.5> 93 20<423 433 433 433> 200 19
LayerCount: 2
Fore
SplineSet
94 723 m 0x0440
 88 723 84 727 84 733 c 0
 84 735 86 737 87 739 c 2
 162 842 l 1
 200 924 l 2
 201 928 204 931 209 931 c 0
 215 931 219 926 219 920 c 2
 219 858 l 2
 219 855 218 852 216 850 c 2
 160 789 l 1
 159 788 l 2
 140 767 121 747 102 726 c 0
 100 724 97 723 94 723 c 0x0440
113 46 m 1x7a80
 113 33 l 1
 113 32 l 1
 141 32 l 2
 149 32 155 33 160 33 c 1
 147 38 129 43 113 46 c 1x7a80
93 433 m 1
 85 428 l 2
 88 428 92 426 93 423 c 2
 93 433 l 1
103 460 m 0
 109 460 113 455 113 450 c 2
 113 448 l 1x7a80
 113 67 l 1
 139 62 183 56 193 36 c 0
 198 26 188 18 182 16 c 0
 173 13 161 12 141 12 c 2
 45 12 l 2
 39 12 35 16 35 22 c 0
 35 26 39 31 43 32 c 2x7b
 71 38 l 1
 65 43 56 47 58 58 c 0
 59 66 66 69 74 70 c 1
 74 418 l 2
 74 419 74 422 75 423 c 2
 55 412 l 1
 17 11 l 2
 17 6 12 2 7 2 c 0xbb
 1 2 -3 6 -3 12 c 2
 -3 13 l 1
 35 419 l 2
 35 422 38 426 41 427 c 2
 97 458 l 2
 98 459 101 460 103 460 c 0
93 662 m 2
 94 662 l 2
 108 662 119 651 119 637 c 0
 119 623 108 612 94 612 c 2
 93 612 l 2
 79 612 68 623 68 637 c 0
 68 651 79 662 93 662 c 2
EndSplineSet
Validated: 1
EndChar

StartChar: icircumflex
Encoding: 238 238 133
Width: 197
GlyphClass: 2
Flags: MW
HStem: 2 21G<4 9.5> 12 20<43 43 43 45 113 141> 46 21<113 113> 440 20G<102 106> 612 50<86 94 93 94> 723 207<-44 94 92 231>
VStem: -51 289<730 734> -3 20<8.5 13 8.5 13> 74 39<70 418 418 418.5> 93 20<423 433 433 433>
LayerCount: 2
Fore
SplineSet
-41 723 m 0x06
 -47 723 -51 727 -51 733 c 0
 -51 735 -49 738 -48 740 c 2
 18 817 l 1
 84 924 l 2
 85 927 90 930 94 930 c 1
 94 931 l 1
 98 931 102 928 103 925 c 2
 169 817 l 1
 235 740 l 2
 237 738 238 736 238 733 c 0
 238 727 234 723 228 723 c 0
 225 723 223 724 221 726 c 2
 94 844 l 1
 -33 726 l 2
 -35 724 -39 723 -41 723 c 0x06
113 46 m 1x7940
 113 33 l 1
 113 32 l 1
 141 32 l 2
 149 32 155 33 160 33 c 1
 147 38 129 43 113 46 c 1x7940
93 433 m 1
 85 428 l 2
 88 428 92 426 93 423 c 2
 93 433 l 1
103 460 m 0
 109 460 113 455 113 450 c 2
 113 448 l 1x7940
 113 67 l 1
 139 62 183 56 193 36 c 0
 198 26 188 18 182 16 c 0
 173 13 161 12 141 12 c 2
 45 12 l 2
 39 12 35 16 35 22 c 0
 35 26 39 31 43 32 c 2x7980
 71 38 l 1
 65 43 56 47 58 58 c 0
 59 66 66 69 74 70 c 1
 74 418 l 2
 74 419 74 422 75 423 c 2
 55 412 l 1
 17 11 l 2
 17 6 12 2 7 2 c 0xb980
 1 2 -3 6 -3 12 c 2
 -3 13 l 1
 35 419 l 2
 35 422 38 426 41 427 c 2
 97 458 l 2
 98 459 101 460 103 460 c 0
93 662 m 2
 94 662 l 2
 108 662 119 651 119 637 c 0
 119 623 108 612 94 612 c 2
 93 612 l 2
 79 612 68 623 68 637 c 0
 68 651 79 662 93 662 c 2
EndSplineSet
Validated: 1
EndChar

StartChar: idieresis
Encoding: 239 239 134
Width: 197
GlyphClass: 2
Flags: MW
HStem: 2 21G<4 9.5> 12 20<43 43 43 45 113 141> 46 21<113 113> 440 20G<102 106> 612 50<86 94 93 94> 722 83<44 48 140 143.5>
VStem: -3 20<8.5 13 8.5 13> 16 59<763 764.5> 74 39<70 418 418 418.5> 93 20<423 433 433 433> 112 59<763 765>
LayerCount: 2
Fore
SplineSet
141 805 m 0x0520
 146 805 150 802 151 799 c 2
 168 770 l 2
 169 768 171 767 171 764 c 0
 171 762 170 759 169 757 c 2
 151 728 l 2
 149 725 146 722 142 722 c 0
 138 722 134 725 132 728 c 2
 115 757 l 2
 113 759 112 761 112 764 c 0
 112 766 114 768 115 770 c 2
 132 799 l 2
 133 802 137 805 141 805 c 0x0520
46 805 m 0
 51 805 54 802 55 799 c 2
 73 770 l 2
 74 769 74 769 74 768 c 0
 75 767 75 765 75 764 c 0
 75 761 74 759 72 757 c 2
 55 728 l 2
 53 725 50 722 46 722 c 0
 42 722 39 725 37 728 c 2
 19 757 l 2
 18 759 16 762 16 764 c 0
 16 767 18 769 19 770 c 2
 36 799 l 2
 37 802 42 805 46 805 c 0
113 46 m 1x7a40
 113 33 l 1
 113 32 l 1
 141 32 l 2
 149 32 155 33 160 33 c 1
 147 38 129 43 113 46 c 1x7a40
93 433 m 1
 85 428 l 2
 88 428 92 426 93 423 c 2
 93 433 l 1
103 460 m 0
 109 460 113 455 113 450 c 2
 113 448 l 1x7a40
 113 67 l 1
 139 62 183 56 193 36 c 0
 198 26 188 18 182 16 c 0
 173 13 161 12 141 12 c 2
 45 12 l 2
 39 12 35 16 35 22 c 0
 35 26 39 31 43 32 c 2x7a80
 71 38 l 1
 65 43 56 47 58 58 c 0
 59 66 66 69 74 70 c 1
 74 418 l 2
 74 419 74 422 75 423 c 2
 55 412 l 1
 17 11 l 2
 17 6 12 2 7 2 c 0xba80
 1 2 -3 6 -3 12 c 2
 -3 13 l 1
 35 419 l 2
 35 422 38 426 41 427 c 2
 97 458 l 2
 98 459 101 460 103 460 c 0
93 662 m 2
 94 662 l 2
 108 662 119 651 119 637 c 0
 119 623 108 612 94 612 c 2
 93 612 l 2
 79 612 68 623 68 637 c 0
 68 651 79 662 93 662 c 2
EndSplineSet
Validated: 1
EndChar

StartChar: ograve
Encoding: 242 242 135
Width: 306
GlyphClass: 2
Flags: MW
HStem: 6 20<143 174 143 203> 439 20<149.5 163> 519 208<37 155>
VStem: 27 136<526 716> 28 40<195 256.5 195 281> 239 39<206 267.5>
LayerCount: 2
Fore
SplineSet
27 716 m 2x30
 27 722 31 726 37 726 c 1
 37 727 l 1
 42 727 46 724 47 720 c 2
 84 638 l 1
 160 535 l 2
 161 533 163 531 163 529 c 0
 163 523 158 519 152 519 c 0
 149 519 147 520 145 522 c 2
 88 584 l 1
 87 585 l 1
 31 646 l 2
 29 648 27 650 27 654 c 2
 27 716 l 2x30
153 439 m 0xcc
 110 439 93 410 82 375 c 0
 70 335 68 282 68 231 c 0
 68 159 71 78 108 43 c 0
 119 32 133 26 153 26 c 0
 195 26 213 54 224 88 c 0
 236 127 239 181 239 231 c 0
 239 304 237 386 199 422 c 0
 188 433 173 439 153 439 c 0xcc
153 459 m 0
 256 459 278 334 278 231 c 0
 278 129 253 6 153 6 c 0
 53 6 28 129 28 231 c 0
 28 331 50 442 135 457 c 0
 141 458 146 459 153 459 c 0
EndSplineSet
Validated: 1
EndChar

StartChar: oacute
Encoding: 243 243 136
Width: 306
GlyphClass: 2
Flags: MW
HStem: 6 20<143 174 143 203> 439 20<149.5 163> 519 208<151 272>
VStem: 28 40<195 256.5 195 281> 239 39<206 267.5> 260 19
LayerCount: 2
Fore
SplineSet
154 519 m 0x24
 148 519 144 523 144 529 c 0
 144 531 146 533 147 535 c 2
 222 638 l 1
 260 720 l 2
 261 724 264 727 269 727 c 0
 275 727 279 722 279 716 c 2
 279 654 l 2
 279 651 278 648 276 646 c 2
 220 585 l 1
 219 584 l 2
 200 563 181 543 162 522 c 0
 160 520 157 519 154 519 c 0x24
153 439 m 0xd8
 110 439 93 410 82 375 c 0
 70 335 68 282 68 231 c 0
 68 159 71 78 108 43 c 0
 119 32 133 26 153 26 c 0
 195 26 213 54 224 88 c 0
 236 127 239 181 239 231 c 0
 239 304 237 386 199 422 c 0
 188 433 173 439 153 439 c 0xd8
153 459 m 0
 256 459 278 334 278 231 c 0
 278 129 253 6 153 6 c 0
 53 6 28 129 28 231 c 0
 28 331 50 442 135 457 c 0
 141 458 146 459 153 459 c 0
EndSplineSet
Validated: 1
EndChar

StartChar: ocircumflex
Encoding: 244 244 137
Width: 306
GlyphClass: 2
Flags: MW
HStem: 6 20<143 174 143 203> 439 20<149.5 163> 519 207<16 154 152 291>
VStem: 9 289<526 530> 28 40<195 256.5 195 281> 239 39<206 267.5>
LayerCount: 2
Fore
SplineSet
19 519 m 0x30
 13 519 9 523 9 529 c 0
 9 531 11 534 12 536 c 2
 78 613 l 1
 144 720 l 2
 145 723 150 726 154 726 c 1
 154 727 l 1
 158 727 162 724 163 721 c 2
 229 613 l 1
 295 536 l 2
 297 534 298 532 298 529 c 0
 298 523 294 519 288 519 c 0
 285 519 283 520 281 522 c 2
 154 640 l 1
 27 522 l 2
 25 520 21 519 19 519 c 0x30
153 439 m 0xcc
 110 439 93 410 82 375 c 0
 70 335 68 282 68 231 c 0
 68 159 71 78 108 43 c 0
 119 32 133 26 153 26 c 0
 195 26 213 54 224 88 c 0
 236 127 239 181 239 231 c 0
 239 304 237 386 199 422 c 0
 188 433 173 439 153 439 c 0xcc
153 459 m 0
 256 459 278 334 278 231 c 0
 278 129 253 6 153 6 c 0
 53 6 28 129 28 231 c 0
 28 331 50 442 135 457 c 0
 141 458 146 459 153 459 c 0
EndSplineSet
Validated: 1
EndChar

StartChar: ugrave
Encoding: 249 249 138
Width: 373
GlyphClass: 2
Flags: MW
HStem: 2 20<4 6 3.5 7 3.5 8> 430 19<43 44> 440 20G<102.5 105.5 293.5 296.5> 520 208<82 200>
VStem: 72 136<527 717> 74 39<121 422 422 422> 93 20<435 438 438 438> 265 39<12 448 14 448 27 448 51 57 57 57 107 422 422 422> 284 20<435 438 438 438>
LayerCount: 2
Fore
SplineSet
72 717 m 2x18
 72 723 76 727 82 727 c 1
 82 728 l 1
 87 728 91 725 92 721 c 2
 129 639 l 1
 205 536 l 2
 206 534 208 532 208 530 c 0
 208 524 203 520 197 520 c 0
 194 520 192 521 190 523 c 2
 133 585 l 1
 132 586 l 1
 76 647 l 2
 74 649 72 651 72 655 c 2
 72 717 l 2x18
265 57 m 2x81
 262 53 260 49 257 46 c 2
 265 47 l 1
 265 57 l 2x81
98 85 m 1
 103 64 113 46 127 34 c 1
 132 34 l 1
 116 46 104 64 98 85 c 1
284 438 m 1x8080
 283 437 l 2
 284 436 284 436 284 435 c 2
 284 438 l 1x8080
93 438 m 1x82
 91 437 l 2
 92 436 93 436 93 435 c 2
 93 438 l 1x82
102 31 m 1
 84 53 74 87 74 121 c 2
 74 422 l 1
 43 430 l 2
 39 431 35 435 35 439 c 0
 35 444 39 448 44 449 c 2xc5
 100 459 l 2
 101 459 102 460 103 460 c 0
 108 460 113 455 113 450 c 2
 113 448 l 1xa2
 113 121 l 2
 113 80 136 42 173 38 c 1
 203 41 l 1
 234 50 258 75 265 107 c 1
 265 422 l 1
 235 430 l 2
 231 431 227 435 227 439 c 0
 227 444 230 448 235 449 c 2xc5
 291 459 l 2
 292 459 293 460 294 460 c 0
 299 460 305 455 305 450 c 2
 304 448 l 1xa080
 304 51 l 1
 332 53 l 1
 333 53 l 2
 339 53 343 48 343 43 c 0
 343 40 340 36 337 34 c 2
 281 4 l 2
 280 3 277 2 275 2 c 0
 269 2 265 7 265 12 c 2
 265 14 l 1
 265 27 l 1xa1
 231 23 l 1
 211 9 186 2 160 2 c 0
 146 2 133 6 122 13 c 1
 8 2 l 1
 7 2 l 2
 1 2 -3 6 -3 12 c 0
 -3 17 1 22 6 22 c 2
 102 31 l 1
EndSplineSet
Validated: 1
EndChar

StartChar: uacute
Encoding: 250 250 139
Width: 373
GlyphClass: 2
Flags: MW
HStem: 2 20<4 6 3.5 7 3.5 8> 430 19<43 44> 440 20G<102.5 105.5 293.5 296.5> 520 208<196 317>
VStem: 74 39<121 422 422 422> 93 20<435 438 438 438> 265 39<12 448 14 448 27 448 51 57 57 57 107 422 422 422> 284 20<435 438 438 438> 305 19
LayerCount: 2
Fore
SplineSet
199 520 m 0x1080
 193 520 189 524 189 530 c 0
 189 532 191 534 192 536 c 2
 267 639 l 1
 305 721 l 2
 306 725 309 728 314 728 c 0
 320 728 324 723 324 717 c 2
 324 655 l 2
 324 652 323 649 321 647 c 2
 265 586 l 1
 264 585 l 2
 245 564 226 544 207 523 c 0
 205 521 202 520 199 520 c 0x1080
265 57 m 2x82
 262 53 260 49 257 46 c 2
 265 47 l 1
 265 57 l 2x82
98 85 m 1
 103 64 113 46 127 34 c 1
 132 34 l 1
 116 46 104 64 98 85 c 1
284 438 m 1x81
 283 437 l 2
 284 436 284 436 284 435 c 2
 284 438 l 1x81
93 438 m 1x84
 91 437 l 2
 92 436 93 436 93 435 c 2
 93 438 l 1x84
102 31 m 1
 84 53 74 87 74 121 c 2
 74 422 l 1
 43 430 l 2
 39 431 35 435 35 439 c 0
 35 444 39 448 44 449 c 2xca
 100 459 l 2
 101 459 102 460 103 460 c 0
 108 460 113 455 113 450 c 2
 113 448 l 1xa4
 113 121 l 2
 113 80 136 42 173 38 c 1
 203 41 l 1
 234 50 258 75 265 107 c 1
 265 422 l 1
 235 430 l 2
 231 431 227 435 227 439 c 0
 227 444 230 448 235 449 c 2xca
 291 459 l 2
 292 459 293 460 294 460 c 0
 299 460 305 455 305 450 c 2
 304 448 l 1xa1
 304 51 l 1
 332 53 l 1
 333 53 l 2
 339 53 343 48 343 43 c 0
 343 40 340 36 337 34 c 2
 281 4 l 2
 280 3 277 2 275 2 c 0
 269 2 265 7 265 12 c 2
 265 14 l 1
 265 27 l 1xa2
 231 23 l 1
 211 9 186 2 160 2 c 0
 146 2 133 6 122 13 c 1
 8 2 l 1
 7 2 l 2
 1 2 -3 6 -3 12 c 0
 -3 17 1 22 6 22 c 2
 102 31 l 1
EndSplineSet
Validated: 1
EndChar

StartChar: ucircumflex
Encoding: 251 251 140
Width: 373
GlyphClass: 2
Flags: MW
HStem: 2 20<4 6 3.5 7 3.5 8> 430 19<43 44> 440 20G<102.5 105.5 293.5 296.5> 520 207<61 199 197 336>
VStem: 54 289<527 531> 74 39<121 422 422 422> 93 20<435 438 438 438> 265 39<12 448 14 448 27 448 51 57 57 57 107 422 422 422> 284 20<435 438 438 438>
LayerCount: 2
Fore
SplineSet
64 520 m 0x18
 58 520 54 524 54 530 c 0
 54 532 56 535 57 537 c 2
 123 614 l 1
 189 721 l 2
 190 724 195 727 199 727 c 1
 199 728 l 1
 203 728 207 725 208 722 c 2
 274 614 l 1
 340 537 l 2
 342 535 343 533 343 530 c 0
 343 524 339 520 333 520 c 0
 330 520 328 521 326 523 c 2
 199 641 l 1
 72 523 l 2
 70 521 66 520 64 520 c 0x18
265 57 m 2x81
 262 53 260 49 257 46 c 2
 265 47 l 1
 265 57 l 2x81
98 85 m 1
 103 64 113 46 127 34 c 1
 132 34 l 1
 116 46 104 64 98 85 c 1
284 438 m 1x8080
 283 437 l 2
 284 436 284 436 284 435 c 2
 284 438 l 1x8080
93 438 m 1x82
 91 437 l 2
 92 436 93 436 93 435 c 2
 93 438 l 1x82
102 31 m 1
 84 53 74 87 74 121 c 2
 74 422 l 1
 43 430 l 2
 39 431 35 435 35 439 c 0
 35 444 39 448 44 449 c 2xc5
 100 459 l 2
 101 459 102 460 103 460 c 0
 108 460 113 455 113 450 c 2
 113 448 l 1xa2
 113 121 l 2
 113 80 136 42 173 38 c 1
 203 41 l 1
 234 50 258 75 265 107 c 1
 265 422 l 1
 235 430 l 2
 231 431 227 435 227 439 c 0
 227 444 230 448 235 449 c 2xc5
 291 459 l 2
 292 459 293 460 294 460 c 0
 299 460 305 455 305 450 c 2
 304 448 l 1xa080
 304 51 l 1
 332 53 l 1
 333 53 l 2
 339 53 343 48 343 43 c 0
 343 40 340 36 337 34 c 2
 281 4 l 2
 280 3 277 2 275 2 c 0
 269 2 265 7 265 12 c 2
 265 14 l 1
 265 27 l 1xa1
 231 23 l 1
 211 9 186 2 160 2 c 0
 146 2 133 6 122 13 c 1
 8 2 l 1
 7 2 l 2
 1 2 -3 6 -3 12 c 0
 -3 17 1 22 6 22 c 2
 102 31 l 1
EndSplineSet
Validated: 1
EndChar

StartChar: udieresis
Encoding: 252 252 141
Width: 373
GlyphClass: 2
Flags: MW
HStem: 2 20<4 6 3.5 7 3.5 8> 430 19<43 44> 440 20G<102.5 105.5 293.5 296.5> 520 83<149 153 245 248.5>
VStem: 74 39<121 422 422 422> 93 20<435 438 438 438> 121 59<561 562.5 560.5 563.5> 217 59<561 563> 265 39<12 448 14 448 27 448 51 57 57 57 107 422 422 422> 284 20<435 438 438 438>
LayerCount: 2
Fore
SplineSet
246 603 m 0x13
 251 603 255 600 256 597 c 2
 273 568 l 2
 274 566 276 565 276 562 c 0
 276 560 275 557 274 555 c 2
 256 526 l 2
 254 523 251 520 247 520 c 0
 243 520 239 523 237 526 c 2
 220 555 l 2
 218 557 217 559 217 562 c 0
 217 564 219 566 220 568 c 2
 237 597 l 2
 238 600 242 603 246 603 c 0x13
151 603 m 0
 156 603 159 600 160 597 c 2
 178 568 l 2
 179 567 179 567 179 566 c 0
 180 565 180 563 180 562 c 0
 180 559 179 557 177 555 c 2
 160 526 l 2
 158 523 155 520 151 520 c 0
 147 520 144 523 142 526 c 2
 124 555 l 2
 123 557 121 560 121 562 c 0
 121 565 123 567 124 568 c 2
 141 597 l 2
 142 600 147 603 151 603 c 0
265 57 m 2x8080
 262 53 260 49 257 46 c 2
 265 47 l 1
 265 57 l 2x8080
98 85 m 1
 103 64 113 46 127 34 c 1
 132 34 l 1
 116 46 104 64 98 85 c 1
284 438 m 1x8040
 283 437 l 2
 284 436 284 436 284 435 c 2
 284 438 l 1x8040
93 438 m 1x84
 91 437 l 2
 92 436 93 436 93 435 c 2
 93 438 l 1x84
102 31 m 1
 84 53 74 87 74 121 c 2
 74 422 l 1
 43 430 l 2
 39 431 35 435 35 439 c 0
 35 444 39 448 44 449 c 2xc880
 100 459 l 2
 101 459 102 460 103 460 c 0
 108 460 113 455 113 450 c 2
 113 448 l 1xa4
 113 121 l 2
 113 80 136 42 173 38 c 1
 203 41 l 1
 234 50 258 75 265 107 c 1
 265 422 l 1
 235 430 l 2
 231 431 227 435 227 439 c 0
 227 444 230 448 235 449 c 2xc880
 291 459 l 2
 292 459 293 460 294 460 c 0
 299 460 305 455 305 450 c 2
 304 448 l 1xa040
 304 51 l 1
 332 53 l 1
 333 53 l 2
 339 53 343 48 343 43 c 0
 343 40 340 36 337 34 c 2
 281 4 l 2
 280 3 277 2 275 2 c 0
 269 2 265 7 265 12 c 2
 265 14 l 1
 265 27 l 1xa080
 231 23 l 1
 211 9 186 2 160 2 c 0
 146 2 133 6 122 13 c 1
 8 2 l 1
 7 2 l 2
 1 2 -3 6 -3 12 c 0
 -3 17 1 22 6 22 c 2
 102 31 l 1
EndSplineSet
Validated: 1
EndChar

StartChar: glyph89
Encoding: 338 338 142
Width: 595
GlyphClass: 2
Flags: MW
HStem: 2 20<191.5 266 192 266 194 266 194 266 194 268 194 269 194 305 350 476 518 548> 346 20<336 456 336 456 488 507> 658 20<194 194 194 266 336 336 336 458 511 511 511 545>
VStem: 28 40<263 417> 296 40<46 346 46 366 366 634 634 634> 507 20<330 346 346 346 366 382 381.5 382> 545 21<641 658 658 658>
LayerCount: 2
Fore
SplineSet
555 46 m 1
 543 35 l 1
 541 34 l 1
 518 22 l 1
 548 22 l 1
 555 46 l 1
488 346 m 1
 504 332 l 2
 505 331 507 331 507 330 c 2
 507 346 l 1
 488 346 l 1
507 366 m 1
 507 382 l 2
 507 381 505 380 504 379 c 2
 488 366 l 1
 507 366 l 1
511 658 m 1
 540 646 l 2
 542 645 544 643 545 641 c 2
 545 658 l 1
 511 658 l 1
194 658 m 1
 141 629 l 1
 105 570 l 1
 86 510 l 1
 68 417 l 1
 68 263 l 1
 86 171 l 1
 105 110 l 1
 141 51 l 1
 194 22 l 1
 266 22 l 1
 290 35 l 1
 296 46 l 1
 296 634 l 1
 290 645 l 1
 266 658 l 1
 194 658 l 1
517 429 m 0
 523 429 527 423 527 418 c 2
 527 417 l 1
 527 357 l 1
 527 356 l 1
 527 354 l 1
 527 293 l 2
 527 287 523 283 517 283 c 0
 514 283 511 285 509 288 c 2
 490 318 l 1
 456 346 l 1
 336 346 l 1
 336 46 l 1
 350 22 l 1
 476 22 l 1
 531 52 l 1
 568 82 l 2
 570 83 573 85 575 85 c 0
 581 85 585 81 585 75 c 0
 585 74 584 73 584 72 c 2
 565 9 l 2
 564 5 559 2 555 2 c 2
 480 2 l 1
 479 2 l 1
 478 2 l 1
 347 2 l 1
 345 2 l 1
 343 2 l 1
 327 2 l 1
 326 2 l 1
 324 2 l 1
 308 2 l 1
 306 2 l 1
 305 2 l 1
 269 2 l 1
 268 2 l 1
 266 2 l 1
 193 2 l 1
 192 2 l 2
 191 2 188 2 187 3 c 2
 111 34 l 2
 109 35 107 36 106 38 c 2
 68 101 l 2
 68 102 67 102 67 103 c 2
 48 165 l 1
 48 166 l 1
 28 260 l 1
 28 262 l 1
 28 418 l 1
 28 420 l 1
 48 514 l 1
 48 515 l 1
 67 577 l 2
 67 578 68 579 68 580 c 2
 106 642 l 2
 107 644 109 645 111 646 c 2
 187 677 l 2
 188 677 191 678 192 678 c 2
 193 678 l 1
 267 678 l 1
 268 678 l 1
 269 678 l 1
 305 678 l 1
 306 679 l 1
 308 678 l 1
 324 678 l 1
 326 679 l 1
 327 678 l 1
 459 678 l 1
 460 678 l 1
 461 678 l 1
 555 678 l 2
 561 678 566 674 566 668 c 2
 566 575 l 2
 566 569 561 564 555 564 c 0
 551 564 547 568 546 572 c 2
 528 630 l 1
 458 658 l 1
 336 658 l 1
 336 366 l 1
 456 366 l 1
 490 394 l 1
 508 423 l 2
 509 426 514 429 517 429 c 0
EndSplineSet
Validated: 1
EndChar

StartChar: glyph48
Encoding: 339 339 143
Width: 517
GlyphClass: 2
Flags: MW
HStem: 2 20<133 169 134 169 138 169 138 170 138 172 368 399> 252 20<278 447 278 479 278 447> 439 21<138 138 138 169 348 348 348 379>
VStem: 28 40<170 292 170 293 170 293.5> 239 39<170 252 272 292>
LayerCount: 2
Fore
SplineSet
348 439 m 1
 314 412 l 1
 297 383 l 1
 278 292 l 1
 278 272 l 1
 447 272 l 1
 431 353 l 1
 413 412 l 1
 379 439 l 1
 348 439 l 1
138 439 m 1
 105 412 l 1
 68 292 l 1
 68 170 l 1
 105 49 l 1
 138 22 l 1
 169 22 l 1
 202 49 l 1
 239 170 l 1
 239 292 l 1
 202 412 l 1
 169 439 l 1
 138 439 l 1
134 460 m 2
 135 460 l 1
 171 460 l 1
 172 460 l 2
 174 460 177 458 179 457 c 2
 217 426 l 1
 219 424 l 1
 258 361 l 2
 258 360 259 360 259 359 c 1
 259 360 260 360 260 361 c 0
 273 382 284 404 298 424 c 0
 298 425 299 425 300 426 c 2
 338 457 l 2
 340 458 343 460 345 460 c 2
 346 460 l 1
 383 460 l 2
 385 460 387 458 389 457 c 2
 427 427 l 2
 428 426 429 424 430 423 c 2
 468 361 l 2
 469 360 470 359 470 358 c 2
 489 264 l 1
 489 262 l 2
 489 256 485 252 479 252 c 2
 278 252 l 1
 278 170 l 1
 297 110 l 1
 333 50 l 1
 368 22 l 1
 399 22 l 1
 433 50 l 1
 451 80 l 2
 453 83 457 85 460 85 c 0
 466 85 470 80 470 75 c 0
 470 73 469 70 468 69 c 2
 450 39 l 2
 449 37 448 36 446 35 c 2
 409 4 l 2
 407 3 404 2 402 2 c 2
 345 2 l 2
 343 2 339 3 337 5 c 2
 300 35 l 2
 299 36 298 37 298 38 c 2
 260 101 l 2
 260 102 259 102 259 103 c 1
 259 102 258 102 258 101 c 2
 219 38 l 2
 219 37 218 36 217 35 c 2
 179 4 l 2
 177 3 174 2 172 2 c 2
 170 2 l 1
 136 2 l 1
 134 2 l 2
 132 2 130 3 128 4 c 2
 89 35 l 2
 88 36 88 37 87 38 c 2
 49 101 l 2
 49 102 48 102 48 103 c 2
 29 165 l 2
 29 166 28 167 28 168 c 2
 28 293 l 2
 28 294 29 295 29 296 c 2
 48 359 l 2
 48 360 49 360 49 361 c 2
 87 424 l 2
 87 425 88 425 89 426 c 2
 127 456 l 2
 129 458 131 460 134 460 c 2
EndSplineSet
Validated: 1
EndChar

StartChar: glyph152
Encoding: 350 350 144
Width: 327
GlyphClass: 2
Flags: MW
HStem: -139 52<124 148.5> 2 20<134.5 163 134.5 162 134.5 164> 658 20<138 189.5>
VStem: 29 19 47 35 117 59<-99 -97 -99 -95> 258 20<543 544 544 576>
LayerCount: 2
Fore
SplineSet
166 6 m 0x84
 172 6 176 2 176 -4 c 0
 176 -7 174 -10 172 -12 c 2
 141 -37 l 1
 152 -55 163 -74 174 -92 c 0
 175 -93 176 -96 176 -98 c 0
 176 -100 175 -102 174 -103 c 2
 155 -134 l 2
 153 -137 150 -139 147 -139 c 0
 144 -139 140 -137 138 -134 c 2
 119 -103 l 2
 118 -102 117 -100 117 -98 c 0
 117 -92 121 -87 127 -87 c 0
 130 -87 134 -89 136 -92 c 2
 147 -110 l 1
 154 -98 l 1
 142 -79 131 -59 119 -40 c 0
 118 -39 117 -37 117 -35 c 0
 117 -32 119 -29 121 -27 c 2
 159 4 l 2
 160 5 164 6 166 6 c 0x84
122 404 m 1x62
 165 346 224 299 259 234 c 1
 228 296 166 347 122 404 c 1x62
162 22 m 1
 228 27 268 83 263 152 c 0
 258 222 206 278 155 333 c 0
 101 392 46 459 47 543 c 0
 48 612 92 678 163 678 c 0
 216 678 256 650 277 611 c 0
 278 610 278 607 278 606 c 2
 278 576 l 2
 279 566 280 555 278 544 c 2
 278 543 l 2
 277 537 274 533 268 533 c 0
 262 533 258 537 258 543 c 2
 258 576 l 1
 251 620 216 658 163 658 c 0
 113 658 83 609 82 559 c 0x6a
 80 491 122 431 170 378 c 0
 225 318 291 256 297 169 c 0
 301 111 276 56 232 26 c 0
 213 11 190 2 164 2 c 2
 163 2 l 1
 162 2 l 2
 114 -1 69 24 45 63 c 0
 17 102 8 154 29 203 c 0
 30 206 34 210 38 210 c 0
 44 210 48 206 48 200 c 2
 48 107 l 1x72
 59 56 107 22 162 22 c 1
EndSplineSet
Validated: 37
EndChar

StartChar: glyph153
Encoding: 351 351 145
Width: 267
GlyphClass: 2
Flags: MW
HStem: -135 52<95 119.5> 439 20<124 125 125 142.5>
VStem: 28 20 88 59<-95 -93 -95 -91> 201 20<386 389 389 418>
LayerCount: 2
Fore
SplineSet
137 10 m 0
 143 10 147 6 147 0 c 0
 147 -3 145 -6 143 -8 c 2
 112 -33 l 1
 123 -51 134 -70 145 -88 c 0
 146 -89 147 -92 147 -94 c 0
 147 -96 146 -98 145 -99 c 2
 126 -130 l 2
 124 -133 121 -135 118 -135 c 0
 115 -135 111 -133 109 -130 c 2
 90 -99 l 2
 89 -98 88 -96 88 -94 c 0
 88 -88 92 -83 98 -83 c 0
 101 -83 105 -85 107 -88 c 2
 118 -106 l 1
 125 -94 l 1
 113 -75 102 -55 90 -36 c 0
 89 -35 88 -33 88 -31 c 0
 88 -28 90 -25 92 -23 c 2
 130 8 l 2
 131 9 135 10 137 10 c 0
92 279 m 1
 121 248 162 227 193 197 c 1
 176 218 152 238 128 254 c 0
 116 262 104 270 92 279 c 1
124 439 m 0
 86 439 68 396 68 356 c 0
 68 314 112 289 140 270 c 0
 187 239 234 198 240 138 c 0
 245 94 225 52 191 28 c 0
 176 14 156 6 134 6 c 0
 92 2 52 21 30 57 c 0
 29 58 28 61 28 63 c 2
 28 91 l 2
 28 97 32 102 38 102 c 0
 42 102 47 98 48 94 c 0
 57 54 93 26 134 26 c 1
 182 31 210 69 210 121 c 0
 210 143 200 161 185 177 c 0
 170 193 148 209 128 223 c 0
 88 251 48 286 38 338 c 0
 27 399 64 459 124 459 c 2
 125 459 l 2
 162 459 192 446 217 425 c 0
 219 423 221 421 221 418 c 2
 221 389 l 2
 221 383 217 379 211 379 c 0
 207 379 202 381 201 385 c 0
 190 416 161 439 124 439 c 0
EndSplineSet
Validated: 37
EndChar

StartChar: glyph0
Encoding: 1236 1236 146
Width: 556
GlyphClass: 2
Flags: MW
HStem: 2 20<35.5 52 38 52 38 75 101 115 230 243 312 438 480 510> 189 21<145 258 145 258 139 258> 346 20<297 418 297 418 450 469> 658 20<227.5 267 230 243 297 297 297 419 473 473 473 507>
VStem: 258 39<46 189 189 189 210 346 46 366 366 598 598 598> 469 20<346 346 366 366> 507 20<641 658 658 658>
LayerCount: 2
Fore
SplineSet
517 46 m 1
 504 35 l 1
 503 34 l 1
 480 22 l 1
 510 22 l 1
 517 46 l 1
450 346 m 1
 466 332 l 2
 467 331 468 331 468 330 c 2
 469 346 l 1
 450 346 l 1
469 366 m 1
 468 382 l 2
 468 381 467 380 466 379 c 2
 450 366 l 1
 469 366 l 1
258 598 m 1
 145 210 l 1
 258 210 l 1
 258 598 l 1
473 658 m 1
 502 646 l 2
 504 645 506 643 507 641 c 2
 507 658 l 1
 473 658 l 1
479 429 m 0
 485 429 489 423 489 418 c 2
 489 417 l 1
 489 357 l 1
 489 356 l 1
 489 354 l 1
 489 293 l 2
 489 287 485 283 479 283 c 0
 476 283 472 285 470 288 c 2
 452 318 l 1
 418 346 l 1
 297 346 l 1
 297 46 l 1
 312 22 l 1
 438 22 l 1
 492 52 l 1
 530 82 l 2
 532 83 534 85 536 85 c 0
 542 85 546 81 546 75 c 2
 546 72 l 1
 527 9 l 2
 526 5 521 2 517 2 c 2
 442 2 l 1
 440 2 l 1
 439 2 l 1
 308 2 l 1
 307 2 l 1
 305 2 l 1
 289 2 l 1
 287 2 l 1
 286 2 l 1
 270 2 l 1
 268 2 l 1
 266 2 l 1
 230 2 l 2
 225 2 220 7 220 12 c 0
 220 17 225 22 230 22 c 2
 243 22 l 1
 258 46 l 1
 258 189 l 1
 139 189 l 1
 106 76 l 1
 106 75 l 2
 106 72 104 70 103 68 c 2
 94 35 l 1
 101 22 l 1
 115 22 l 2
 120 22 125 17 125 12 c 0
 125 7 120 2 115 2 c 2
 79 2 l 1
 77 2 l 1
 75 2 l 1
 38 2 l 2
 33 2 29 7 29 12 c 0
 29 17 33 22 38 22 c 2
 52 22 l 1
 85 76 l 1
 251 646 l 1
 243 658 l 1
 230 658 l 2
 225 658 220 663 220 668 c 0
 220 673 225 678 230 678 c 2
 267 678 l 1
 268 678 l 1
 270 678 l 1
 286 678 l 1
 287 678 l 1
 289 678 l 1
 420 678 l 1
 421 678 l 1
 422 678 l 1
 517 678 l 2
 523 678 527 674 527 668 c 2
 527 575 l 2
 527 569 523 564 517 564 c 0
 513 564 508 568 507 572 c 2
 490 630 l 1
 419 658 l 1
 297 658 l 1
 297 366 l 1
 418 366 l 1
 452 394 l 1
 470 423 l 2
 471 426 476 429 479 429 c 0
EndSplineSet
Validated: 1
EndChar

StartChar: glyph38
Encoding: 1237 1237 147
Width: 479
GlyphClass: 2
Flags: MW
HStem: 2 20<75.5 130 77 130 84 130 84 134 329 360> 252 20<240 409> 439 21<138 184 138 138 310 310 310 341>
VStem: 28 40<76 136> 47 21<335 353> 201 39<170 252 272 279 279 279>
LayerCount: 2
Fore
SplineSet
201 279 m 1xf4
 122 254 l 1
 86 195 l 1
 68 136 l 1
 68 76 l 1
 84 22 l 1
 130 22 l 1
 165 50 l 1
 201 109 l 1
 201 279 l 1xf4
74 364 m 1
 68 353 l 1
 68 335 l 1xec
 74 364 l 1
310 439 m 1
 276 412 l 1
 259 383 l 1
 240 292 l 1
 240 272 l 1
 409 272 l 1
 392 353 l 1
 374 412 l 1
 341 439 l 1
 310 439 l 1
421 85 m 0
 427 85 432 80 432 75 c 0
 432 73 431 70 430 69 c 2
 412 39 l 2
 411 37 409 35 407 34 c 2
 370 4 l 2
 368 3 366 2 364 2 c 2
 306 2 l 2
 304 2 301 3 299 5 c 2
 262 35 l 2
 261 36 260 37 260 38 c 2
 222 99 l 2
 221 100 220 102 220 103 c 1
 220 102 219 102 219 101 c 2
 181 38 l 2
 181 37 180 36 179 35 c 2
 140 4 l 2
 138 3 136 2 134 2 c 2
 78 2 l 1
 77 2 l 2
 74 2 70 4 68 7 c 2xec
 30 69 l 2
 29 70 28 73 28 75 c 2
 28 137 l 2xf4
 28 138 29 139 29 140 c 2
 48 202 l 2
 48 203 49 205 50 206 c 2
 107 269 l 2
 108 271 111 272 113 272 c 2
 201 301 l 1
 201 386 l 1
 184 439 l 1
 138 439 l 1
 105 413 l 1
 86 323 l 2
 85 319 82 314 77 314 c 2
 57 314 l 2
 51 314 47 319 47 325 c 2
 47 356 l 2
 47 358 48 360 49 361 c 2
 87 424 l 1
 89 426 l 1
 128 457 l 2
 130 458 132 460 134 460 c 2
 135 460 l 1
 190 460 l 1
 191 460 l 2
 194 460 198 457 200 454 c 0
 213 433 225 413 238 392 c 2
 238 392 239 391 239 390 c 1
 246 401 253 413 260 424 c 0
 260 425 261 425 262 426 c 2
 300 457 l 2
 302 458 304 460 306 460 c 2
 308 460 l 1
 345 460 l 2
 347 460 349 458 351 457 c 2
 388 427 l 1
 392 423 l 1
 430 361 l 2
 431 360 431 359 431 358 c 2
 450 264 l 2
 450 263 451 263 451 262 c 0
 451 256 447 252 441 252 c 2
 424 252 l 1
 421 252 l 1
 419 252 l 1
 240 252 l 1
 240 170 l 1
 258 110 l 1
 295 50 l 1
 329 22 l 1
 360 22 l 1
 395 50 l 1
 413 80 l 2
 415 83 418 85 421 85 c 0
EndSplineSet
Validated: 1
EndChar

StartChar: glyph96
Encoding: 8208 8208 148
Width: 496
GlyphClass: 2
Flags: MW
HStem: 252 20<73 77 76 77 77 421 421 422>
LayerCount: 2
Fore
SplineSet
77 272 m 1
 421 272 l 1
 422 272 l 2
 428 272 432 268 432 262 c 0
 432 256 428 252 422 252 c 2
 421 252 l 1
 77 252 l 1
 76 252 l 2
 70 252 66 256 66 262 c 0
 66 268 70 272 76 272 c 2
 77 272 l 1
EndSplineSet
Validated: 1
EndChar

StartChar: glyph67
Encoding: 8211 8211 149
Width: 267
GlyphClass: 2
Flags: MW
HStem: 252 20<35 230 38 230>
VStem: 28 212<259 265>
LayerCount: 2
Fore
SplineSet
38 272 m 2
 230 272 l 2
 236 272 240 268 240 262 c 0
 240 256 236 252 230 252 c 2
 38 252 l 2
 32 252 28 256 28 262 c 0
 28 268 32 272 38 272 c 2
EndSplineSet
Validated: 1
EndChar

StartChar: glyph58
Encoding: 8212 8212 150
Width: 405
GlyphClass: 2
Flags: MW
HStem: 252 20<4 390 7 390>
LayerCount: 2
Fore
SplineSet
7 272 m 2
 390 272 l 2
 396 272 400 268 400 262 c 0
 400 256 396 252 390 252 c 2
 7 252 l 2
 1 252 -3 256 -3 262 c 0
 -3 268 1 272 7 272 c 2
EndSplineSet
Validated: 1
EndChar

StartChar: glyph30
Encoding: 8220 8220 151
Width: 190
GlyphClass: 2
Flags: MW
HStem: 533 145<55 79.5 75.5 136>
VStem: 28 40<575 634 576 634 606 634> 28 59<575 576 576 576.5 574 606 574 607> 105 39<575 634 576 634 606 634> 105 58<575 576 576 576.5 574 606 574 607>
LayerCount: 2
Fore
SplineSet
154 678 m 2x88
 159 678 163 673 163 668 c 0x88
 163 666 163 664 162 663 c 2
 144 634 l 1
 144 609 l 1x90
 161 581 l 2
 162 579 163 578 163 575 c 0
 163 573 162 570 161 568 c 2
 143 539 l 2
 141 536 138 533 134 533 c 0
 130 533 127 536 125 539 c 2
 107 568 l 2
 105 570 105 572 105 575 c 2
 105 576 l 1
 105 606 l 2
 105 608 105 610 106 611 c 2
 145 674 l 2
 147 677 150 678 153 678 c 2
 154 678 l 2x88
77 678 m 0
 82 678 87 673 87 668 c 0xa0
 87 666 86 664 85 663 c 2
 68 634 l 1
 68 609 l 1xc0
 84 581 l 2
 85 579 87 578 87 575 c 0
 87 573 85 570 84 568 c 2
 67 540 l 2
 66 536 61 533 57 533 c 0
 53 533 49 536 48 540 c 2
 30 568 l 2
 29 570 28 573 28 575 c 2
 28 576 l 1
 28 606 l 2xa0
 28 608 29 610 30 611 c 0
 43 632 55 653 68 674 c 0xc0
 70 677 74 678 77 678 c 0
EndSplineSet
Validated: 1
EndChar

StartChar: glyph22
Encoding: 8221 8221 152
Width: 190
GlyphClass: 2
Flags: MW
HStem: 533 146<35 59.5 55 116.5>
VStem: 28 59<635.5 637 605 638.5> 47 40<577 606 603 606> 105 58<636 637 605 638.5> 124 39<577 606 603 606>
LayerCount: 2
Fore
SplineSet
134 679 m 0x90
 139 679 142 675 143 672 c 2
 161 644 l 2
 162 643 163 639 163 637 c 2
 163 635 l 1
 163 606 l 2x90
 163 604 163 602 162 601 c 0
 149 580 137 559 124 538 c 0x88
 122 535 118 533 115 533 c 0
 109 533 105 537 105 543 c 0x90
 105 545 105 548 106 549 c 2
 124 577 l 1
 124 603 l 1x88
 108 630 l 2
 106 632 105 635 105 637 c 0
 105 640 106 642 107 644 c 2
 125 672 l 2
 126 675 130 679 134 679 c 0x90
57 679 m 0
 62 679 66 675 67 672 c 2
 84 644 l 2
 85 642 87 640 87 637 c 2
 87 635 l 1
 87 606 l 2xc0
 87 604 86 602 85 601 c 0
 72 580 60 559 47 538 c 0xa0
 45 535 41 533 38 533 c 0
 32 533 28 537 28 543 c 0xc0
 28 545 29 548 30 549 c 2
 47 577 l 1
 47 603 l 1xa0
 31 630 l 2
 30 632 28 634 28 637 c 0xc0
 28 640 30 643 31 644 c 2
 48 672 l 2
 49 675 53 679 57 679 c 0
EndSplineSet
Validated: 1
EndChar

StartChar: glyph47
Encoding: 8230 8230 153
Width: 250
GlyphClass: 2
Flags: MW
HStem: 2 83<57 59 57 59 132 136 189 193>
VStem: 28 59<41.5 44.5> 105 58<39.5 44.5> 163 58<39.5 44.5 41.5 47.5>
LayerCount: 2
Fore
SplineSet
134 85 m 0xe0
 139 85 142 82 143 79 c 2
 161 50 l 2
 162 49 163 48 163 47 c 1xe0
 163 48 164 49 165 50 c 2
 182 79 l 2
 183 82 187 85 191 85 c 0
 196 85 200 82 201 79 c 2
 218 50 l 2
 219 48 221 46 221 43 c 0xd0
 221 40 219 39 218 37 c 2
 201 8 l 2
 200 5 195 2 191 2 c 0
 187 2 183 5 182 8 c 2
 165 36 l 2
 164 37 163 39 163 40 c 1
 163 39 162 38 161 37 c 2
 143 8 l 2
 142 5 138 2 134 2 c 0
 130 2 126 5 125 8 c 2
 108 36 l 2
 106 38 105 41 105 43 c 0
 105 46 106 48 107 50 c 2
 125 79 l 2
 126 82 130 85 134 85 c 0xe0
59 85 m 2
 63 84 66 82 67 79 c 2
 84 50 l 2
 85 48 87 46 87 43 c 0
 87 40 85 39 84 37 c 2
 67 9 l 2
 66 5 61 2 57 2 c 0
 53 2 49 5 48 9 c 2
 31 37 l 2
 30 39 28 40 28 43 c 0
 28 46 30 48 31 50 c 2
 48 79 l 2
 49 82 53 85 57 85 c 2
 59 85 l 2
EndSplineSet
Validated: 1
EndChar

StartChar: glyph77
Encoding: 8364 8364 154
Width: 422
GlyphClass: 2
Flags: MW
HStem: 2 20<210.5 285 211 285 213 285 213 286 213 287> 252 20<16 47 29 47 29 49 89 277 89 89> 283 20<29 29 29 47 87 277> 377 20<16.5 47 19 47 29 47 29 47 87 277> 408 20<29 29 29 47 89 277> 658 20<213 285 213 213>
VStem: 9 20<272 283 272 292 272 293 272 295.5 397 408> 47 40<272 283 303 377 397 408> 277 20<272 283 283 283 397 408 408 408> 392 20<109 122 122 122 579 601 601 601>
LayerCount: 2
Fore
SplineSet
392 122 m 1
 367 68 l 1
 392 109 l 1
 392 122 l 1
87 283 m 1
 87 272 l 1
 277 272 l 1
 277 283 l 1
 87 283 l 1
29 283 m 1
 29 272 l 1
 47 272 l 1
 47 283 l 1
 29 283 l 1
87 408 m 1
 87 397 l 1
 277 397 l 1
 277 408 l 1
 87 408 l 1
29 408 m 1
 29 397 l 1
 47 397 l 1
 47 408 l 1
 29 408 l 1
365 623 m 1
 392 579 l 1
 392 601 l 1
 365 623 l 1
19 377 m 2
 14 377 9 382 9 387 c 2
 9 389 l 1
 9 418 l 2
 9 424 13 428 19 428 c 2
 49 428 l 1
 67 514 l 1
 67 515 l 1
 86 577 l 2
 86 578 87 579 87 580 c 2
 125 642 l 2
 126 644 128 645 130 646 c 2
 206 677 l 2
 207 677 210 678 211 678 c 2
 212 678 l 1
 286 678 l 1
 287 678 l 1
 291 678 l 1
 368 646 l 2
 369 646 369 646 370 645 c 2
 409 614 l 2
 411 612 412 609 412 606 c 2
 412 543 l 2
 412 537 408 533 402 533 c 0
 399 533 396 535 394 538 c 2
 338 629 l 1
 285 658 l 1
 213 658 l 1
 160 629 l 1
 124 570 l 1
 106 510 l 1
 89 428 l 1
 287 428 l 2
 293 428 297 424 297 418 c 2
 297 387 l 2
 297 381 293 377 287 377 c 2
 87 377 l 1
 87 303 l 1
 287 303 l 2
 293 303 297 299 297 293 c 2
 297 262 l 2
 297 256 293 252 287 252 c 2
 89 252 l 1
 106 171 l 1
 124 110 l 1
 160 51 l 1
 213 22 l 1
 285 22 l 1
 337 51 l 1
 393 172 l 2
 394 175 398 178 402 178 c 0
 408 178 412 174 412 168 c 2
 412 106 l 2
 412 104 412 102 411 101 c 2
 373 38 l 2
 372 36 370 35 368 34 c 2
 291 3 l 2
 290 3 288 2 287 2 c 2
 286 2 l 1
 212 2 l 1
 211 2 l 2
 210 2 208 2 207 3 c 2
 130 34 l 2
 128 35 126 36 125 38 c 2
 87 101 l 2
 87 102 86 102 86 103 c 2
 67 165 l 1
 67 166 l 1
 49 252 l 1
 19 252 l 2
 13 252 9 256 9 262 c 2
 9 292 l 1
 9 293 l 2
 9 298 14 304 19 304 c 2
 21 303 l 1
 47 303 l 1
 47 377 l 1
 21 377 l 1
 19 377 l 2
EndSplineSet
Validated: 1
EndChar
